<svg width="40" height="40" fill="none" xmlns="http://www.w3.org/2000/svg"><circle cx="20" cy="20" r="18.5" fill="#492E16" stroke="#492E16" stroke-width="3"/><g clip-path="url(#clip0_370_12869)" fill-rule="evenodd" clip-rule="evenodd" fill="#FDDEB2"><path d="M11.471 19.057l.007.032.041.195c.131.583.326 1.157.58 1.704l.012.029.013.03c.97 2.282 3.119 5.914 7.875 9.92 4.753-4.007 6.907-7.639 7.876-9.92l.012-.03.014-.029a8.41 8.41 0 00.578-1.703m-18.912.436a6.475 6.475 0 01-.072-.358c-.129-.66-.19-1.337-.19-2.007 0-5.893 4.796-10.69 10.689-10.69 5.892 0 10.689 4.797 10.7 10.69a10.993 10.993 0 01-.263 2.364 10.414 10.414 0 01-.715 2.108c-1.152 2.712-3.69 6.876-9.242 11.338a.76.76 0 01-.95 0c-5.557-4.462-8.09-8.626-9.241-11.338a10.532 10.532 0 01-.716-2.107zm1.904-.664l-.004-.027-.01-.05a8.522 8.522 0 01-.152-1.624c0-4.788 3.9-8.69 8.689-8.69 4.786 0 8.69 3.9 8.7 8.692a8.99 8.99 0 01-.156 1.638l-.008.042-.003.019-.002.01-.004.021c-.009.043-.022.108-.042.197"/><path d="M19.994 12.686a4.797 4.797 0 00-4.787 4.787 4.797 4.797 0 004.787 4.787 4.797 4.797 0 004.787-4.787 4.797 4.797 0 00-4.787-4.787zm-6.787 4.787c0-3.74 3.047-6.787 6.787-6.787 3.74 0 6.787 3.047 6.787 6.787 0 3.74-3.047 6.787-6.787 6.787-3.74 0-6.787-3.047-6.787-6.787z"/></g><defs><clipPath id="clip0_370_12869"><path fill="#fff" transform="translate(6.666 6.667)" d="M0 0h26.667v26.667H0z"/></clipPath></defs></svg>