<svg width="220" height="57" fill="none" xmlns="http://www.w3.org/2000/svg"><g clip-path="url(#clip0_875_11724)" fill="#FDDEB2"><path d="M79.534 12.115l1.46 13.655h-4.846l-.3-9.743-1.871 9.743h-4.903l-1.909-9.668-.28 9.668h-4.847l1.46-13.655h6.362l1.628 8.896 1.422-8.896h6.624zm7.73.019l-.319 10.551 4.548-10.551h6.886c-.087 2.119-.13 4.388-.13 6.808 0 2.433.043 4.709.13 6.828h-4.81l.338-10.27-4.529 10.27h-6.7c.1-2.433.15-4.708.15-6.828 0-2.106-.05-4.376-.15-6.808h4.586zm28.237 13.636h-4.735V15.8h-4.191l-.019 1.091c0 .953-.022 1.79-.065 2.511a18.895 18.895 0 01-.272 2.21c-.25 1.367-.883 2.464-1.899 3.291-1.017.828-2.437 1.242-4.258 1.242v-3.668c.487-.1.871-.323 1.151-.668.281-.344.496-.899.646-1.664.112-.614.168-2.013.168-4.194l-.018-3.837 13.492.018V25.77zm13.006-4.448c.611-.533.917-1.364.917-2.493 0-1.103-.306-1.924-.917-2.463-.612-.54-1.61-.81-2.995-.81-1.372 0-2.364.27-2.975.81-.611.539-.917 1.36-.917 2.463 0 1.116.306 1.944.917 2.483.611.54 1.603.809 2.975.809 1.385 0 2.383-.266 2.995-.8zm-9.301 2.764c-1.347-1.247-2.021-3-2.021-5.257 0-2.232.671-3.974 2.012-5.228 1.341-1.254 3.446-1.881 6.315-1.881 2.882 0 4.994.627 6.335 1.88 1.341 1.255 2.011 2.998 2.011 5.23 0 2.27-.667 4.025-2.002 5.266-1.335 1.241-3.45 1.862-6.344 1.862-2.857 0-4.958-.624-6.306-1.872zm24.326-1.758c.649 0 1.144-.028 1.488-.085.343-.056.589-.156.739-.3.15-.145.225-.342.225-.593 0-.326-.178-.562-.534-.706-.355-.144-.995-.216-1.918-.216h-3.593v1.9h3.593zm-3.593-6.771v1.749h3.593c.773 0 1.313-.069 1.619-.207.306-.138.458-.389.458-.753 0-.288-.159-.491-.476-.61-.319-.12-.852-.18-1.601-.18h-3.593zm10.835 6.15c0 .853-.193 1.577-.58 2.172-.387.596-1.079 1.06-2.077 1.392-.998.332-2.383.498-4.154.498h-8.421c.1-2.432.15-4.707.15-6.827 0-2.119-.05-4.395-.15-6.827h4.397v.018h3.986c1.547 0 2.767.13 3.659.386.892.257 1.522.63 1.89 1.12.368.488.552 1.109.552 1.861 0 .765-.265 1.445-.796 2.04-.53.597-1.438 1.076-2.722 1.44 2.844 0 4.266.909 4.266 2.727zm3.686 2.445c-1.335-1.203-2.003-2.921-2.003-5.153 0-2.244.668-4.019 2.003-5.323 1.335-1.304 3.412-1.956 6.231-1.956 3.942 0 6.581 1.36 7.916 4.082-1.123.388-2.44.971-3.949 1.749-.362-.703-.932-1.223-1.712-1.561a5.943 5.943 0 00-2.386-.508c-1.198 0-2.09.317-2.676.95-.586.633-.88 1.413-.88 2.341 0 1.003.316 1.821.946 2.455.629.633 1.593.95 2.891.95 1.035 0 1.859-.173 2.47-.518.611-.345 1.06-.893 1.347-1.646 1.023.553 2.333 1.173 3.93 1.863-.624 1.517-1.665 2.576-3.125 3.178-1.46.602-3.05.903-4.772.903-2.819 0-4.896-.602-6.231-1.806zm29.577-2.905c.393.733.777 1.633 1.151 2.698.312.866.562 1.474.749 1.825h-5.502a12.554 12.554 0 01-.3-1.11 10.921 10.921 0 00-.402-1.448 3.068 3.068 0 00-.608-1.016 2.937 2.937 0 00-1.581-.874c-.63-.132-1.494-.198-2.592-.198v4.646h-4.66c.1-2.433.15-4.708.15-6.828 0-2.119-.05-4.395-.15-6.827h4.66v4.91c.125.012.312.018.562.018 1.946-1.93 3.393-3.574 4.341-4.928h6.063l-5.82 5.83a8.69 8.69 0 012.246 1.299c.736.601 1.3 1.269 1.693 2.003zm8.168-9.113l-.318 10.551 4.548-10.551h6.886a164.652 164.652 0 00-.131 6.808c0 2.433.043 4.709.131 6.828h-4.81l.337-10.27-4.528 10.27h-6.7c.1-2.433.15-4.708.15-6.828 0-2.106-.05-4.376-.15-6.808h4.585zm17.215 10.194c4.741-.025 8.178-.094 10.311-.207a11.86 11.86 0 00-.159 1.589 61.307 61.307 0 00-.028 2.06h-14.54c.1-2.433.149-4.708.149-6.828 0-2.119-.049-4.395-.149-6.827h14.54v3.404H209.42v1.806a173.423 173.423 0 008.814-.094v3.235a174.123 174.123 0 00-8.814-.094v1.956zM77.027 37.75c0 2.433.043 4.71.13 6.828H72.76v-9.856h-6.325v9.856h-4.397c.1-2.432.15-4.708.15-6.827 0-2.12-.05-4.395-.15-6.828h15.12c-.088 2.12-.131 4.395-.131 6.828zm8.998-.113c1.036 0 1.812-.04 2.33-.122.518-.08.88-.228 1.086-.442.206-.213.309-.526.309-.94 0-.414-.097-.724-.29-.931-.194-.207-.55-.348-1.067-.423-.518-.075-1.307-.113-2.368-.113h-2.582v2.971h2.582zm1.31-6.695c2.483 0 4.21.442 5.184 1.326.973.884 1.46 2.128 1.46 3.733 0 1.104-.194 2.04-.58 2.812-.387.771-1.067 1.373-2.04 1.805-.973.433-2.314.65-4.023.65h-3.893v3.31H78.84c.1-2.433.15-4.708.15-6.828 0-2.119-.05-4.395-.15-6.827h4.603v.019h3.892zm19.649 9.188c.611-.533.917-1.364.917-2.492 0-1.104-.306-1.925-.917-2.464-.611-.539-1.609-.809-2.994-.809-1.372 0-2.364.27-2.975.809-.612.54-.917 1.36-.917 2.464 0 1.116.305 1.944.917 2.483.611.539 1.603.808 2.975.808 1.385 0 2.383-.266 2.994-.8zm-9.3 2.765c-1.348-1.248-2.021-3-2.021-5.257 0-2.232.67-3.975 2.011-5.229 1.341-1.254 3.446-1.88 6.316-1.88 2.882 0 4.993.626 6.334 1.88 1.341 1.254 2.012 2.997 2.012 5.229 0 2.27-.668 4.025-2.002 5.266-1.335 1.241-3.45 1.862-6.344 1.862-2.857 0-4.959-.624-6.306-1.871zm18.342.065c-1.335-1.203-2.002-2.921-2.002-5.153 0-2.245.667-4.019 2.002-5.323 1.335-1.304 3.412-1.956 6.232-1.956 3.942 0 6.58 1.36 7.915 4.082-1.122.388-2.439.971-3.948 1.749-.362-.703-.932-1.223-1.713-1.562a5.938 5.938 0 00-2.385-.508c-1.198 0-2.09.317-2.676.95-.587.634-.88 1.414-.88 2.342 0 1.003.315 1.822.945 2.455.63.633 1.594.95 2.891.95 1.036 0 1.859-.173 2.471-.518.611-.345 1.06-.893 1.347-1.646 1.023.553 2.332 1.173 3.93 1.862-.624 1.518-1.666 2.578-3.125 3.18-1.46.601-3.051.902-4.772.902-2.82 0-4.897-.602-6.232-1.806zm31.902-8.087c-1.958-.063-3.861-.1-5.707-.113v9.818h-4.679V34.76c-1.858.013-3.754.05-5.688.113v-3.95h16.074v3.95zm13.007 5.257c.611-.533.916-1.364.916-2.492 0-1.104-.305-1.925-.916-2.464-.612-.539-1.61-.809-2.995-.809-1.372 0-2.364.27-2.975.809-.611.54-.917 1.36-.917 2.464 0 1.116.306 1.944.917 2.483.611.539 1.603.808 2.975.808 1.385 0 2.383-.266 2.995-.8zm-9.301 2.765c-1.347-1.248-2.021-3-2.021-5.257 0-2.232.671-3.975 2.012-5.229s3.446-1.88 6.315-1.88c2.882 0 4.994.626 6.335 1.88 1.341 1.254 2.011 2.997 2.011 5.229 0 2.27-.667 4.025-2.002 5.266-1.335 1.241-3.45 1.862-6.344 1.862-2.857 0-4.958-.624-6.306-1.871zm23.522-5.258c1.035 0 1.812-.04 2.33-.122.517-.08.879-.228 1.085-.442.206-.213.309-.526.309-.94 0-.414-.097-.724-.29-.931-.194-.207-.549-.348-1.067-.423-.518-.075-1.307-.113-2.367-.113h-2.582v2.971h2.582zm1.31-6.695c2.482 0 4.21.442 5.183 1.326.973.884 1.46 2.128 1.46 3.733 0 1.104-.194 2.04-.58 2.812-.387.771-1.067 1.373-2.04 1.805-.973.433-2.314.65-4.023.65h-3.892v3.31h-4.604c.1-2.433.15-4.708.15-6.828 0-2.119-.05-4.395-.15-6.827h4.604v.019h3.892zm28.238 9.573c0 1.869.012 3.223.037 4.063h-4.416l.018-2.126c.026-2.332.038-4.13.038-5.397 0-1.204-.012-2.91-.038-5.116l-.018-2.031h4.416a68.9 68.9 0 00-.019 1.88v5.267a239.37 239.37 0 00-.018 3.46zm-12.725.32c.873 0 1.531-.04 1.974-.122.442-.082.752-.222.926-.424.175-.2.262-.507.262-.921 0-.414-.093-.727-.281-.94-.186-.213-.502-.36-.945-.442-.443-.082-1.088-.123-1.936-.123h-2.583v2.972h2.583zm.748-6.602c1.709 0 3.05.217 4.024.65.973.432 1.653 1.034 2.039 1.804.387.772.58 1.71.58 2.813 0 1.605-.486 2.85-1.459 3.733-.973.884-2.701 1.326-5.184 1.326h-3.331v.019h-4.603c.1-2.432.15-4.708.15-6.828 0-2.118-.05-4.394-.15-6.827h4.603v3.31h3.331zM47.898 25.558h.722c-.389.862-1.677.725-2.798.66.065-.362.148-.73.192-1.101.088-.74.495-1.258 1.226-1.406.714-.144 1.44-.285 2.194-.032-.134.942-.817 1.403-1.535 1.879zm-4.227 6.803c-.087.815-.709 1.27-1.447 1.497-.473.146-.965.207-1.146.808l-.207-.058c-.14-1.002-.3-2.002-.408-3.007-.038-.349.117-.674.512-.944l.203.957.12.064c.29-1.09.59-2.173 1.819-2.595a5.994 5.994 0 01.554 3.278zm1.34-11.99c-.484.152-1 .195-1.238.794-.21-1.097-.774-2.085-.53-3.2.057-.268.224-.51.34-.765l.166.047.193.893.123.06c.258-1.1.586-2.146 1.808-2.607.114.288.263.554.322.839.119.578.22 1.163.272 1.75.094 1.094-.408 1.86-1.457 2.19zm-2.468 3.645c-.167.655-.42 1.289-.635 1.932l-.105.07c-.12-.697-.687-.74-1.156-.947-.9-.4-1.33-1.078-1.23-2.055.094-.952.266-1.9.84-2.762 1.13.545 1.424 1.58 1.533 2.728l.14-.007.284-.879.145-.039c.1.227.271.45.283.68.02.424.005.869-.099 1.279zm-3.211-8.287l.213.96.116.057c.28-1.085.58-2.157 1.81-2.596.507 1.007.641 2.071.582 3.147-.049.871-.663 1.364-1.434 1.62-.48.158-1.01.183-1.188.836-.76-1.418-.828-3.392-.099-4.024zm-.91 4.704a23.8 23.8 0 01-.792 2.919c-.214-.654-.76-.715-1.237-.918-.968-.413-1.363-1.18-1.213-2.239.126-.886.277-1.766.808-2.568 1.18.52 1.407 1.61 1.556 2.75l.137-.038.29-.947c.416.28.524.675.451 1.041zm-3.228-6.702c.06-.264.223-.503.34-.754l.175.047.182.89.101.01c.185-.506.311-1.047.572-1.51.262-.467.651-.867 1.268-1.035.11.281.26.548.317.834.118.594.223 1.195.271 1.798.086 1.073-.506 1.905-1.553 2.17-.46.117-.904.194-1.133.739-.21-1.085-.793-2.071-.54-3.189zm-.619-.454c-.44.561-.94 1.074-1.483 1.627.086-.713-.464-1.005-.814-1.436-.678-.835-.714-1.562-.13-2.466.483-.748.963-1.508 1.77-1.992.851.951.623 2.034.337 3.125l.133.036.569-.689.18.024c0 .242.064.507-.013.72-.134.37-.309.745-.549 1.051zm-.197 5.752c-.165.72-.715 1.129-1.378 1.339-.484.153-1.008.19-1.19.83a52.18 52.18 0 01-.19-.06c-.148-1.012-.327-2.021-.424-3.038-.03-.315.087-.699.535-.883l.177.926.144.058c.257-1.102.58-2.157 1.77-2.595.447.676.514 1.458.585 2.23.037.395.058.812-.029 1.193zm-3.435-3.35c-.115.754-.735 1.152-1.408 1.37-.468.153-.983.167-1.209.774-.215-1.064-.741-2.021-.565-3.1.047-.29.22-.561.334-.841l.187.022.204.9.144.053c.242-1.112.58-2.153 1.79-2.596.513 1.106.702 2.248.523 3.418zm-3.397-3.804c-.338.837-.766 1.637-1.19 2.523-.193-.328-.292-.601-.479-.785-.198-.196-.497-.284-.722-.459-.82-.636-1.068-1.395-.68-2.373.32-.806.75-1.568 1.132-2.349h.192c.902.779 1.068 1.823.95 2.969h.155l.458-.888c.398.465.35.95.184 1.362zm-2.267 6.906c-.164.72-.72 1.123-1.376 1.343-.475.16-1.016.164-1.191.824l-.18-.096c-.156-.937-.337-1.871-.453-2.813-.049-.394.084-.785.533-1.11l.202.968.158.07c.207-1.137.573-2.157 1.748-2.614.445.686.519 1.464.587 2.236.035.394.059.811-.028 1.192zm-.09 6.61c-.172.804-.463 1.582-.767 2.419-.227-.758-.945-.728-1.45-1.025-.706-.414-1.105-1.01-1.016-1.855.104-.987.27-1.96.847-2.85 1.134.585 1.441 1.602 1.524 2.753l.158-.023.299-.966c.552.474.513 1.045.405 1.548zm-4.895-13.823c-.053-.958-.052-1.914.332-2.853 1.23.317 1.675 1.312 2.03 2.39l.139-.06.084-.892.173-.064c.144.239.36.462.418.72.092.415.134.858.1 1.282-.049.635-.182 1.262-.308 2.08-.34-.824-1.023-.667-1.566-.854-.828-.286-1.352-.84-1.402-1.749zm-.604 10.8c-1.058.21-1.774-.181-2.277-1.152-.546-1.056-.77-1.763-.789-2.533 1.245-.228 2.077.47 2.843 1.33l.095-.14-.303-.888.176-.131c.282.254.674.454.823.77.408.869.713 1.785 1.006 2.766-.564-.425-1.056-.125-1.573-.023zm-1.573-9.982c1.232.302 1.671 1.317 2.026 2.411l.145-.067.09-1.044c.207.217.407.33.437.477.11.554.235 1.122.223 1.682-.012.599-.173 1.194-.275 1.832-.082-.052-.15-.1-.224-.141-.263-.148-.516-.387-.794-.423-1.235-.157-1.966-.915-1.984-2.151-.012-.864-.02-1.728.356-2.576zM32.772 30.35c-.272.19-.752.107-1.137.105-.265-.001-.53-.076-.856-.128.36-.685.349-1.636 1.365-2.1l-.187.728c.323-.232.577-.479.88-.614.289-.13.63-.144 1.058-.232-.157.958-.42 1.748-1.123 2.24zm-16.29-15.14c-.04.484-.153.962-.284 1.521-.28-.695-.903-.57-1.415-.715-1.008-.283-1.518-.974-1.529-2.041-.008-.862-.04-1.727.357-2.596 1.221.327 1.682 1.306 2.003 2.413l.154-.075.102-.951c.449.167.581.524.615.871.05.52.038 1.051-.003 1.573zm-.94 5.113c-.503-.543-.986-.218-1.483-.1-.857.204-1.686-.1-2.12-.833-.51-.867-.942-1.776-.997-2.834 1.258-.26 2.083.456 2.854 1.305l.1-.125-.293-.853.118-.136c.229.153.51.265.674.471.244.308.453.663.59 1.03.239.634.41 1.293.61 1.94l-.054.135zm-5.664 4.303c.886.3 1.139.933 1.416 1.578l.1-.53c.52.35.546 1.204.126 2.382-.264-.11-.522-.244-.795-.325-.742-.221-1.094-.668-1.046-1.448.034-.532.125-1.06.2-1.657zm2.685 3.763c.387.445.816.799 1.057 1.253.245.46.304 1.02.537 1.561l.289-.88.143-.034c.097.228.265.453.276.685.02.425.004.87-.1 1.28-.166.656-.417 1.291-.707 1.997-.142-.72-.746-.736-1.219-.959-.99-.468-1.38-1.274-1.168-2.358.162-.829.277-1.674.892-2.545zm-5.424 3.246l.1-.102-.293-.856.135-.157c.24.173.533.305.705.53.247.326.449.703.591 1.087.224.604.381 1.233.537 1.913-.5-.408-.965-.188-1.458-.053-.963.266-1.827-.125-2.291-1.021-.424-.82-.851-1.647-.862-2.636 1.242-.263 2.064.456 2.836 1.295zM28.109 0C12.585 0 0 12.649 0 28.252c0 15.247 12.018 27.67 27.053 28.23-.095-.936-.18-1.873-.297-2.806-.243-1.935-.52-3.866-1.139-5.786-1.447.556-2.517.012-3.327-1.181-.321-.474-.43-1.009-.247-1.563l.139-.038c.057.177.122.352.17.531.14.528.392.66.871.404.362-.193.702-.43 1.146-.705l-2.668-2.929c-.094.267-.156.393-.183.528-.274 1.358-1.057 2.078-2.507 1.88-.778-.107-1.547-.278-2.393-.432.48-1.318 1.476-1.707 2.607-1.92l-.038-.15-.906-.205c.333-.566.973-.69 2.26-.548-.378-.258-.75-.525-1.137-.77-.39-.249-.794-.476-1.192-.711-.412-.242-.826-.482-1.287-.752-.08.156-.174.281-.214.422-.499 1.765-1.017 2.156-2.797 1.972-.699-.072-1.385-.273-2.139-.427.506-1.286 1.49-1.698 2.625-1.905l-.03-.155-1.005-.194c.642-.748 1.398-.54 2.166-.536-.458-.322-.893-.626-1.324-.934-.181-.13-.38-.249-.53-.41-.458-.498-.892-.562-1.482-.149-.9.63-2.434-.447-2.572-1.278-.026-.159.01-.328.018-.493l.164-.093c.035.083.066.168.106.249.302.609.345.615.886.175.184-.15.378-.289.58-.442-.364-.444-.747-.873-1.088-1.332-.844-1.135-1.49-2.377-2.015-3.694-.175-.44-.44-.881-1.006-1.044-1.23-.355-1.745-1.149-1.572-2.414.118-.869.273-1.741.812-2.514 1.15.52 1.397 1.602 1.568 2.732l.13-.045.285-.944c.545.475.46 1.025.418 1.554-.018.22-.05.466-.16.648-.567.934-.097 1.704.364 2.518l.808-.605-.294-.392.078-.14c.162.088.357.144.477.272.528.563.477 1.338-.068 1.885-.098.099-.179.362-.12.45 1.185 1.756 2.675 3.207 4.44 4.44.462-1.06.583-2.32 1.829-2.762l.144.076-.318.869.09.114c.814-.79 1.672-1.455 2.908-1.155-.15 1.14-.631 2.088-1.27 2.953-.505.685-1.25.684-2.002.583-.092-.013-.18-.047-.271-.071l-.055.107 3.716 2.112c.143-.353.271-.654.386-.96.22-.588.101-.752-.521-.748-.102 0-.203-.024-.4-.05.364-.358.733-.406 1.098-.33.798.169 1.427.624 1.686 1.405.12.361.047.82-.044 1.21-.124.54-.024.905.456 1.22.516.337.979.756 1.523 1.187.194-2.025.058-3.965-.348-5.93-1.03.205-1.754-.188-2.217-1.055-.208-.39-.327-.817.01-1.38.08.27.139.416.165.568.054.314.203.417.5.273.243-.116.491-.223.767-.348-.597-1.08-1.317-2.038-2.229-2.82-.958-.82-1.987-1.556-2.97-2.348a22.14 22.14 0 01-1.659-1.45c-.283-.28-.509-.345-.876-.183-.727.322-1.753-.306-1.839-1.1-.013-.125.045-.259.069-.388l.122-.022.31.55.765-.454c-.176-.26-.37-.493-.504-.756a39.691 39.691 0 01-.968-2.03c-.211-.482-.407-.58-.929-.446-.381.098-.778.189-1.168.19-.55 0-1.04-.23-1.344-.708-.578-.907-1.034-1.868-1.105-3.008 1.231-.208 2.072.427 2.816 1.296l.12-.094-.278-.833c.487-.134.777.114 1.326 1.11l.113-.07c.094.102.237.188.273.307.161.533.293 1.075.448 1.662l.535-.327-.116-.344.079-.084c.126.083.284.141.372.254.364.465.226 1.017-.416 1.537l1.606 2.32c.417-1.108.625-2.233 1.758-2.66l.16.096-.335.883.09.1c.805-.78 1.642-1.478 2.913-1.17-.024.176-.01.375-.08.534-.342.771-.642 1.572-1.081 2.285-.47.764-1.352.95-2.302.64-.134-.044-.266-.093-.464-.048l1.996 1.689c.163-.4.262-.754.443-1.06.17-.285.425-.518.643-.775l.161.095-.169.72c.579-.594 1.122-.99 1.98-.79l-.597 1.61c.178.143.403.29.586.48.358.37.486.795.316 1.318-.254.781-.236.787.512 1.337.46-1.029.569-2.312 1.822-2.765l.15.082-.33.88.082.105c.82-.77 1.661-1.477 2.904-1.163-.016.848-.436 1.534-.771 2.251-.065.139-.084.299-.12.45.382-.545.695-.696 1.284-.548l-.625.438.74.838c.71-1.02 1.395-1.977 2.035-2.964.066-.102-.097-.433-.238-.57-.134-.129-.38-.14-.576-.207-.938-.317-1.445-1.038-1.427-2.028.016-.953.373-2.188.827-2.835 1.12.523 1.423 1.549 1.544 2.69l.153-.019.295-.966c.661.637.414 1.344.465 2.043.26-.873.521-1.745.78-2.607-.987-.458-1.221-1.195-.66-1.612.2.173.39.335.578.496l.145-.084c0-.31.04-.628-.01-.93-.063-.392-.376-.241-.611-.206-.39.057-.775.17-1.165.187-.659.029-1.18-.273-1.507-.845-.5-.875-.938-1.777-1-2.863 1.249-.215 2.087.456 2.838 1.335l.117-.106-.334-.994c.24.079.426.087.529.184.24.226.502.463.648.752.662 1.306 1.106 2.674.987 4.172-.01.12-.001.24-.001.395.871-1.456.97-1.559 1.668-1.645l-.354.915.074.118c.825-.765 1.678-1.45 2.955-1.156-.082.344-.118.696-.25 1.007a13.361 13.361 0 01-.827 1.674c-.5.83-1.42 1.113-2.384.796-.106-.035-.207-.084-.312-.123-.579-.215-.802-.102-.979.498-.04.137-.074.275-.123.46l.849.193c.05-.227.094-.417.166-.738.134.199.224.284.254.387.24.825-.59 1.81-1.44 1.699-.261-.034-.437-.02-.597.242-.684 1.118-1.395 2.219-2.095 3.327-.072.115-.135.236-.203.355l.097.105c.428-.316.818-.715 1.292-.925.472-.208 1.027-.227 1.667-.352-.066.37-.064.583-.143.76-.337.755-.633 1.54-1.067 2.236-.469.75-1.37.948-2.26.647-.18-.06-.354-.146-.539-.191-.255-.063-.46-.02-.56.284-.256.786-.531 1.566-.819 2.406.436.028.828.157 1.11.033.165-.073.154-.55.237-.905.418.36.44.8.362 1.255-.167.976-.658 1.468-1.713 1.696.085 2.199.834 4.223 1.676 6.242.115-2.389.577-4.685 1.646-6.82-1.018-.812-1.213-1.89-.56-3.107.696.273 1.03.834 1.155 1.572l.11-.044.106-.473.07.083c.15-.1.335-.17.445-.303.601-.725 1.183-1.466 1.775-2.205-.802-.787-.944-1.816-.37-2.98.74.227 1.009.838 1.26 1.514l.149-.534.119-.023.318.716.126-.075c.791-.454 1.096-1.004.8-1.999-.371-1.256 1.177-2.563 2.435-2.169.097.03.182.103.266.264-.152.02-.304.052-.457.06-.462.022-.575.162-.421.606.12.345.282.676.447 1.065.38-.215.747-.421 1.113-.63.357-.206.712-.414 1.157-.673-.224-.091-.357-.156-.496-.2-1.385-.446-1.871-1.163-1.672-2.581.115-.818.245-1.646.761-2.375 1.153.513 1.435 1.563 1.576 2.703l.14-.02.26-.903c.607.352.614.642.103 2.937 2.554-1.505 4.676-3.401 6.287-5.925-.71-.432-.913-1.04-.605-1.777.123-.294.281-.624.79-.545l-.317.45.853.662 1.034-2.757.115.008v.853c.398-.575.674-1.165 1.49-1.293l-.346.954.072.11c.828-.75 1.671-1.46 2.936-1.145-.221 1.241-.653 2.367-1.572 3.216-.566.524-1.304.45-1.994.209-.834-.292-1.14-.184-1.492.617-.605 1.376-1.438 2.601-2.468 3.727.269.203.527.384.77.584.327.27.538.19.682-.19.04-.109.11-.206.167-.308l.143.023c.01.169.052.343.023.504-.162.901-1.725 1.969-2.736 1.22-.41-.305-.712-.219-1.082.108-1.627 1.436-3.53 2.467-5.359 3.605-1.962 1.22-3.647 2.745-5.009 4.624-.083.115-.16.236-.267.394.386.224.74.458 1.12.644.452.22.68.101.817-.383.053-.189.092-.383.147-.616.35.374.322.996-.016 1.585-.709 1.234-1.747 1.655-3.33 1.32-.841 2.468-1.143 5.027-1.283 7.635l2.385-3.649c-1.179-.433-1.256-1.386-.684-3.089.739.243 1.038.834 1.284 1.537l.133-.51.12-.05.367.9c.672-.563 1.379-1.132 2.053-1.737.121-.109.153-.367.148-.555-.005-.218-.08-.44-.15-.652-.248-.756.1-1.318.61-1.796.528-.496 1.154-.734 1.887-.495.058.02.112.06.16.098.02.016.02.057.052.165-.156.013-.294.028-.433.034-.455.02-.579.16-.445.602.11.363.283.707.443 1.098l2.481-1.439c-.23-.09-.368-.155-.512-.199-1.284-.389-1.782-1.132-1.648-2.466.1-.998.345-1.778.785-2.464 1.152.505 1.421 1.563 1.576 2.696l.138-.03.274-.921c.603.45.616.982.08 2.955.602-.406 1.144-.744 1.656-1.123a17.927 17.927 0 004.125-4.252c.215-.311.236-.483-.078-.742-.583-.48-.494-1.547.13-1.966.082-.056.192-.068.367-.022l-.263.446c.26.19.523.384.87.64.305-.878.41-1.854.931-2.48.477-.572.773-1.52 1.86-1.632l-.375.922.072.09c.429-.317.827-.694 1.295-.931.489-.248 1.045-.375 1.65-.185a5.916 5.916 0 01-1.378 3.07c-.535.63-1.299.593-2.043.417-.138-.034-.267-.104-.403-.151-.486-.169-.753-.054-.92.44-.527 1.565-1.325 2.977-2.348 4.264-.179.225-.376.435-.587.678.268.202.53.395.787.596.307.24.517.19.645-.191.038-.113.11-.215.189-.366.284.315.18.6.058.863-.467 1.016-1.734 1.444-2.692.886-.38-.221-.623-.16-.972.093-1.314.959-2.664 1.868-4.004 2.793-.18.125-.374.232-.596.368l1.001.277.02.162-.855.396-.002.141c1.131.006 2.177.194 2.864 1.287-1.053.702-2.162 1.187-3.427 1.11-.737-.045-1.163-.603-1.49-1.217-.111-.209-.199-.43-.321-.698-1.521 1.163-2.808 2.474-3.88 4.055.362.218.69.438 1.039.618.535.278.736.176.896-.404.048-.174.102-.347.217-.51.315.522.183 1.026-.075 1.503-.664 1.228-1.593 1.606-3.363 1.37-.785 2.795-1 5.674-1.238 8.594 15.094-.492 27.181-12.944 27.181-28.234C56.217 12.649 43.633 0 28.11 0z"/><path d="M19.216 29.682l.412-.858-1.386.188c.322.221.627.43.974.67zm5.679 1.67c-.72.957-1.637.97-2.648.583-.147-.056-.308-.08-.371-.096l2.489 3.924c.24-.51.497-1.15.837-1.741.235-.41.238-.715-.076-1.065-.471-.525-.433-1.088-.058-1.652-.063.012-.145.01-.174.047z"/></g><defs><clipPath id="clip0_875_11724"><path fill="#fff" d="M0 0h220v56.656H0z"/></clipPath></defs></svg>