<svg width="220" height="58" fill="none" xmlns="http://www.w3.org/2000/svg"><path fill="#0A67B4" d="M75.408 0h144.591v57.839H75.408z"/><path fill="#E40522" d="M0 0h75.409v57.839H0z"/><path fill-rule="evenodd" clip-rule="evenodd" d="M30.103 8.535h9.512V5.38H26.989v40.137h3.113V8.535zm6.564 3.559h13.032v33.423h-3.114V15.25h-9.918v-3.155zm16.32 10.165h13.031v23.258h-3.113V25.414h-9.919V22.26zM13.922 32.372h9.512v-3.155H10.81v16.3h3.113V32.372zm19.804 6.012h9.513v10.788h32.317v3.155h-35.43V41.54H36.84v10.788l-36.639.001v-3.155h33.526V38.383z" fill="#fff"/><path d="M20.41 35.755h3.113v3.155h-3.114v-3.155zm32.861 0h3.113v3.155h-3.113v-3.155zm-13.145-7.011h3.114V31.9h-3.114v-3.155zm-6.572 0h3.113V31.9h-3.113v-3.155zm19.717 0h3.113V31.9h-3.113v-3.155zm-13.145-7.01h3.114v3.154h-3.114v-3.154zm-6.572 0h3.113v3.154h-3.113v-3.154zM20.41 42.416h3.113v3.154h-3.114v-3.154zm32.861 0h3.113v3.154h-3.113v-3.154zm41.785-15.364l.837 3.858h.25l.67-3.985 4.393-12.972h5.898l-7.78 20.518c-.614 1.61-1.214 3.01-1.8 4.197-.557 1.187-1.17 2.176-1.84 2.967-.642.763-1.367 1.343-2.175 1.738-.81.368-1.758.552-2.845.552-.92 0-1.674-.071-2.26-.212-.557-.114-1.17-.382-1.84-.806l1.464-4.705c.474.254.907.41 1.297.466.39.056.809.085 1.255.085 1.31 0 2.231-1.046 2.761-3.138l-10.96-21.662h6.735l5.94 13.1zm34.569-7.927h-11.294v24.503h-5.732V13.953h17.026v5.172zm16.609 17.932h-8.994l-2.217 6.57h-5.731l10.542-29.886h4.225l10.542 29.887h-6.024l-2.343-6.571zm-7.53-4.663h6.275l-2.175-6.614-.879-4.663h-.209l-.878 4.706-2.134 6.57zm39.05-5.214l.335-3.858h-.209l-1.967 3.985-10.918 16.32h-4.309V13.954h5.731v16.152l-.418 3.984h.251l2.05-4.112 10.918-16.024h4.267v29.675h-5.731v-16.45zm21.587 3.772h-1.506v12.676h-5.732V13.953h5.732v13.142l1.338-.594 8.074-12.548h6.526l-8.534 12.463-2.259 1.611 2.343 1.653 9.747 13.948H208l-8.659-12.676z" fill="#fff"/></svg>