<svg width="1920" height="1535" fill="none" xmlns="http://www.w3.org/2000/svg"><g clip-path="url(#clip0_673_19635)" fill="#482E17"><path d="M1919.94 1013.46c-19.74-1.77-24.16-2.11-33.32 3.39-1.27.75-2.34 1.83-3.17 3.05-22.08 32.61-42.41 42.48-72.94 35.66-12.07-2.69-22.72-7.96-26.94-21.23 4.55.46 8.32 2.12 12.03 3.9 12.38 5.94 17.15 3.98 20.46-9.41 2.15-8.72 3.3-17.69 5.02-27.23-43.31-5.157-85.22-2.58-128.12 6.25 2.76 6.13 5.24 10.96 7.15 16 5.63 14.85 8.8 30.58-1.52 43.96-17.74 23.01-42.78 34.89-70.72 42.56-8.33-27.97 3.86-48.71 20.56-68.17-1.08-1.47-.89-1.2-1.97-2.66-6.51 2.92-13.03 5.85-19.54 8.77-1.31-1.34-1.33-1.36-2.63-2.71 3.29-6.84 6.58-13.68 10.31-21.44-5.67 1.79-10.42 3.53-15.3 4.79-36.05 9.26-72.01 18.95-108.28 27.29-9.63 2.21-14.32 5.5-16.24 15.38-4.85 24.91-31.29 40.36-55.77 33.21-6.36-1.85-12.84-4.31-13.97-13.94 3.79.89 6.63 1.18 9.15 2.22 8.45 3.5 12.48.62 12.98-8.27.42-7.45 1.05-14.88 1.61-22.53-7.33.01-13.91.27-20.47-.01-37.53-1.62-73.8-9.02-108.63-23.35-11.01-4.53-17-1.65-21.44 9.28-1.24 3.05-1.96 6.33-3.48 9.21-8.17 15.5-19.05 29.24-37.91 29.04-26.07-.27-50.79-7.35-73.52-22.2 5.85-13.32 16.4-21.01 28.03-25.75 10.96-4.45 23.22-5.7 34.93-8.28.07-1.41.06-1.3.13-2.71-6.53-2.22-13.06-4.45-21.51-7.33 18.3-17.09 39.04-8.01 56.06-7.66 18.61.39 36.97 13.18 56.64 21.06l2.09-24.59c-4.56-.85-8.08-1.5-11.61-2.15 1.85-3.71 3.72-5.42 5.9-6.01 16.61-4.481 36.27 9.96 35.74 27.21-.28 9.31 3 11.53 11.57 12.48 45.54 5.05 90.58 2.45 135.21-7.5 14.21-3.16 28.18-7.46 44.23-11.76-41.97-20.33-50.91-28.515-49.57-45.675 6.91 3.139 13.43 6.099 19.95 9.062 1.08-1.465.88-1.194 1.97-2.66-16.85-19.425-30.53-39.774-21.94-66.896 18.41 2.682 35.51 10.131 54.16 23.364 24.93 17.7 30.2 37.433 17.54 65.435-1.42 3.14-2.38 6.5-4.3 11.82 22.1-7.57 41.98-14.38 62.1-21.274-4.3-8.638-7.62-16.761-12.19-24.102-5.58-8.953-9.86-8.926-17.05-1.345-2.19 2.309-4.54 4.463-7.1 6.963-1.37-2.174-2.08-2.781-2.06-3.359.06-1.427.2-2.95.75-4.242 6.92-16.251 20.43-23.499 36.92-25.181 15.88-1.618 30.79.791 40.04 16.408 2.59 4.376 5.25 8.994 8.93 12.351 3.17 2.883 8.08 6.213 11.77 5.751 20.56-2.569 40.98-6.234 60.78-9.418-3.37-6.71-6.67-13.26-9.96-19.811l1.78-1.782 11.67 5.787c-8.37-14.767-14.02-28.803-7.06-45.19 37.87 15.626 53.08 31.255 42.77 58.088 32.45 4.444 65.25 8.937 98.62 13.506-46.92-36.658-95.44-69.807-150.49-92.26-18.11 32.363-40.98 43.978-72.85 37.714-15.21-2.988-26.32-11.824-27.48-23.478 4.84 2.544 8.74 4.782 12.8 6.697 10.37 4.893 15.86 2.748 18.87-8.379 2.53-9.324 3.86-18.972 5.81-28.975-4.33-.527-7.55-1.01-10.79-1.295-52.78-4.649-104.38 1.603-154.9 17.197-47.11 14.537-93.48 31.925-142.67 38.512-11.18 1.497-17.21 5.429-18.17 17.055-2.35 28.695-44.24 39.69-62.15 28.987-3.21-1.922-5.57-5.265-8.33-7.952l1.77-2.822c2.61.551 5.33.798 7.81 1.712 8.71 3.22 13.27.786 13.55-8.928.21-7.182.99-14.345 1.56-22.033-34.87.909-68.45-3.066-101.21-13.245-19.06-5.919-25.55-2.247-33.09 16.532-6.24 15.535-16.1 29.369-33.63 31.3-28.42 3.131-54.28-6.273-78.93-21.049 13.47-26.208 37.87-30.395 62.9-33.429.2-1.588.17-1.367.37-2.958-6.7-2.578-13.38-5.151-21.76-8.381 14.47-12.173 28.78-8.1 44.64-6.341l-14.44-12.597c.77-1.301.59-1 1.37-2.302 20.72 7.727 41.45 15.453 62.96 23.476.58-9.857 1.02-17.358 1.46-24.663l-12.5-1.27c6.31-9.967 14.36-7.76 21.27-5.47 17.31 5.739 24.69 18.33 21.41 37.076 67.65 9.997 132.19 1.773 196.53-19.772-47.15-25.566-52.02-30.044-48.92-45.798l19.41 9.046 1.98-2.681c-17.23-19.355-30.69-39.829-22.21-67.154 20.29 1.997 36.48 12.157 52.27 22.439 27.36 17.814 32.36 36.966 19.15 67.546-1.33 3.077-2.22 6.341-4.03 11.574 11.15-3.809 20.08-6.815 28.97-9.91 9.12-3.168 18.2-6.423 27.6-9.75-4.19-8.7-7.41-16.456-11.54-23.695-5.32-9.301-9.44-9.459-16.77-1.817-2.44 2.535-5.27 4.68-7.93 7.002-1.48-3.858-1.45-6.404-.5-8.547 12.18-27.628 57.95-34.785 73.92-9.527 12.65 20.002 26.69 22.984 46.42 16.135 1.33-.463 2.68-.898 3.18-1.067-2.57-5.57-5.05-10.901-7.51-16.233.92-.918.93-.927 1.86-1.846l11.75 5.591c-7.84-14.471-14.27-28.287-7.04-44.481 28.65 7.535 44.19 25.418 45.63 51.066 21.6.861 43.1 1.91 64.62 2.409 3.95.091 22.24-1.103 23.17-2.197-10.43-13.033-14.8-27.036-9.1-42.911 30.73 6.965 46.33 26.503 44.93 56.233 52.81 13.552 99.21 39.986 141.99 73.816-22-44.802-45.51-88.082-82-122.502-19.82 14.801-35.65 15.899-54.95 4.164-9.01-5.479-16.24-12.461-16.11-25.065 7.35 3.911 15.37 11.239 19.11 9.477 6.38-3.006 10.08-11.71 16.16-19.662-18.76-7.624-36.31-14.555-53.67-21.91-6.7-2.838-10.56.047-13.34 5.408-2 3.857-3.14 8.144-4.82 12.18-8.25 19.873-25.22 32.458-45.17 29.308-18.5-2.924-36.44-9.577-54.47-15.072-4.24-1.29-7.88-4.533-15.21-8.928 11.79-9.166 20.47-18.475 31.16-23.498 10.63-4.998 23.24-5.801 35.01-8.388-.01-1.832-.01-1.488-.02-3.32-6.27-1.259-12.46-3.036-19.1-1.963-22.4 3.631-45.29.244-65.96-9.112-17.14-7.758-21.04-5.096-25.95 2.247-10.91 16.342-40.34 15.941-50.9-.579-1.32-2.06-1.41-4.907-2.82-10.204l15.19 8.205c3.27-6.08 6.25-11.612 9.45-17.561-3.9-1.908-6.79-3.396-9.75-4.747-12.97-5.938-18.27-3.784-23.3 9.442-.9 2.387-1.58 4.866-2.58 7.212-9.08 21.408-27.82 33.055-49.59 29.247-13.96-2.439-27.72-6.437-41.22-10.818-7.33-2.381-13.92-7.026-21.06-10.757 13.94-26.038 37.99-30.767 63.08-33.569.21-1.729.17-1.449.38-3.179l-21.06-7.615c12.01-10.755 15.26-10.922 53.4-4.153-2.67-2.327-4.61-4.271-6.8-5.889-27.54-20.388-44.34-48.572-56.84-79.578-2.75-6.836-2.87-14.922-3.14-22.471-.11-3.223 2.53-6.541 4.8-11.886 4.97 8.517 8.51 14.594 12.06 20.672 1.94-.672 1.53-.531 3.46-1.201-3.66-25.862-2.35-50.09 19.92-68.239 17.72 17.344 26.64 38.429 34.13 60.162 4.91 14.231 2.24 27.744-8.16 38.687-6.18 6.486-13.93 11.45-20.78 17.317-4.14 3.54-11.45 6.685-5.68 13.641 4.54 5.473 10.71 9.596 16.12 14.355 1.59-.705 1.77-.787 3.37-1.491l.18-17.411c15.61-3.455 24.74 11.654 17.75 35.538 18.7 8.471 37.61 17.041 56.53 25.611-11.23-11.344-27.11-17.678-28.09-38.63l21.11 9.395c1.16-1.598.93-1.29 2.09-2.89-17.55-19.032-30.3-39.522-22.48-66.473 17.94 1.864 44.55 14.21 61.16 28.198 17.27 14.546 22.02 34.11 13.34 55.061-1.81 4.371-5.3 8.793-5.1 13.051.21 4.476 3.44 12.241 6.2 12.631 26.6 3.754 53.37 6.259 81.6 9.281l-3.27-25.327c-6.54 1.63-11.01 2.745-16.95 4.224 6.39-12.518 13.77-15.615 29.2-13.935 15.5 1.905 25.86 9.693 27.8 25.816 1.28 10.674 6.58 15.196 17.15 17.267 15.27 2.993 176.74 53.411 197.12 68.495"/><path d="M1185.89 844.04c-15.66-20.064-24.14-44.62-46.98-57.139-5.47-2.995-12.15-3.766-18.27-5.557a575.37 575.37 0 00-1.7 3.562l12.45 16.721c-.28 1.002-.56 2.005-.83 3.008-22.78-12.018-45.71-22.033-72.03-7.831 3.24 6.277 5.56 12.841 9.57 18.122 8.14 10.716 16.66 21.253 25.99 30.935 17.36 18.024 38.07 20.828 59.54 7.645 9.89-6.074 18.41-14.346 32.26-9.466zm116.51-70.908c-4.94-2.197-9.88-4.397-15.4-6.851-1.09 8.469 2.78 14.295 8.29 17.447 14.61 8.367 29.86 15.613 46.3 22.43-5.98-10.074-.61-17.796 2.14-26.207 5.59-17.073.19-30.755-15.07-40.649-12.77-8.287-25.75-16.176-41.99-18.314-6.6 21.024 4.82 36.133 17.75 50.79-.67.451-1.34.903-2.02 1.354zm11.04 369.028c20.14 1.96 39.06-1.38 56.37-10.65 11.15-5.97 13.94-17.91 13.63-29.7-.22-8.19-2.86-16.37 5.39-23.27-17.84 2.49-35.73-.51-51.62 8.2-4.29 2.36-7.57 6.56-11.32 9.91.47.94.93 1.89 1.39 2.83l15.2-1.77c.54.66 1.09 1.31 1.64 1.97-16.06 9.95-30.48 20.99-30.68 42.48zm-133.41-417.571c-8.47 18.843-10.05 38.403-8.06 58.011 1.61 15.895 13.31 24.392 27.69 28.408 8.94 2.496 18.7 2.514 22.51 14.293 12.79-26.564 12.39-62.692-1.52-73.641l-3.12 17.736c-.7.379-1.39.759-2.09 1.138-6.06-19.608-12.44-38.95-35.41-45.945zm318.05 278.781c-15.11-17.429-29.88-35.168-45.51-52.118-5.42-5.883-13.35-8.059-23.93-5.302 5.1 6.799 9.24 12.329 13.38 17.856l-.69 3.011c-23.11-11.326-46.24-22.364-72-7.479 10.5 24.506 26.91 43.982 47.98 58.712 15.3 10.7 32.5 6.81 47.5-2.54 9.64-6 18.1-13.57 31.16-7.7.7-1.48 1.4-2.96 2.11-4.44zm-193.42-90.416c-7.2-14.445 2.69-22.919 8.53-33.107 11.23-19.57 9.98-37.838-5.04-54.457-14.62-16.183-30.59-31.251-52.83-39.317-13.5 25.375-4.94 48.363 8.56 70.936-.9.583-1.79 1.167-2.68 1.75-5.71-4.086-11.41-8.173-17.12-12.259-1.07.419-2.14.838-3.21 1.26 1.22 5.5 1.06 11.913 3.96 16.301 5.35 8.093 11.64 16.05 19.1 22.154 11.94 9.771 25.16 17.985 37.83 26.855l2.9-.116zm-86.76 84.634c21.59-.039 30.86-28.257 40.08-52.264-8.15-2.047-16.57-3.738-24.72-6.295-16.22-5.095-30.8-1.441-40.76 12.453-9.72 13.564-19.49 27.419-21.3 45.545 20.82 6.003 36.85-3.949 53.49-14.507-2.1 4.664-4.2 9.327-6.79 15.068zm132.76-280.328c-.96-17.637 8.31-37.24-8.43-56.557-1.18 6.528-1.98 10.941-3.05 16.857-4.51-7.899-7.44-15.437-12.46-21.146-4.79-5.454-11.75-9.007-19.83-14.917-5.84 21.335-7.92 40.212 2.04 57.153 3.86 6.566 14.64 9.408 22.67 13.057 5.54 2.514 11.77 3.499 19.06 5.553zm263.66-104.433c-3.72-5.092-7.45-10.184-11.61-15.875-6.02 7.943-5.49 16.082-1.74 22.473 9.94 16.95 21.17 33.137 33.85 49.577-.2-13.664 9.71-18.368 17.38-25.283 15.57-14.04 18.04-31.025 8.35-49.894-8.13-15.802-16.69-31.326-31.89-42.915-18.88 17.449-16.09 39.377-11.5 61.718l-2.84.199zm97.31 28.355c-3.61-3.15-7.23-6.297-11.27-9.816-3.12 6.896-1.36 12.838 2.48 16.945 10.21 10.897 21.26 21.01 33.41 31.066-2.44-10.092 4.12-15.243 8.64-21.655 9.18-13.016 8.16-26.021-2.19-38.379-8.67-10.348-17.62-20.417-30.83-26.457-11.07 16.102-5.31 31.886 1.83 47.674l-2.07.622zm-196.85 532.228c25.73-4.95 48.02-16.03 66.12-33.88 11.67-11.51 10.75-27.37 6.05-41.89-3.27-10.1-9.55-19.3-1.83-30.89-21.26 9.63-44.57 12.46-61.12 29.11-4.47 4.49-7.01 10.92-10.43 16.46.92.99 1.85 1.99 2.77 2.99 6.07-2.59 12.14-5.18 18.22-7.76.92.62 1.84 1.23 2.76 1.85-16.31 18.24-30.17 37.24-22.54 64.01zm225.18-40.77c16.07-13.96 27.21-30.81 32.66-50.72 3.52-12.84-3.58-23.61-12.8-31.9-6.41-5.76-14.56-9.67-13.85-20.95-11.02 15.41-26.25 26.9-31.1 45.32-1.31 4.99-.48 10.53-.63 15.81 1.06.33 2.11.66 3.17.98 3.21-4.29 6.42-8.58 9.64-12.87l2.69.18c-4.03 19.45-6.03 38.44 10.22 54.15zM1564.8 800.783c-6.26-13.723-5-32.196-24.32-42.34 1.1 5.556 1.84 9.313 2.83 14.35-6.04-4.878-10.73-9.956-16.49-12.933-5.51-2.844-12.15-3.503-20.42-5.684 2.01 18.783 6.23 34.437 19.43 44.807 5.11 4.018 14.57 2.92 22.09 3.321 5.18.273 10.44-.885 16.88-1.521zm215.8-159.286c-8.48 18.842-10.06 38.402-8.06 58.01 1.61 15.895 13.3 24.392 27.68 28.408 8.95 2.496 18.71 2.514 22.52 14.293 12.78-26.564 12.38-62.692-1.53-73.641-1.13 6.479-2.12 12.109-3.11 17.736l-2.09 1.138c-6.06-19.608-12.44-38.95-35.41-45.944zM1.104 185.754c13.4-9.915 119.547-43.059 129.587-45.028 6.945-1.361 10.43-4.333 11.271-11.351 1.274-10.598 8.086-15.717 18.27-16.968 10.144-1.106 14.997.93 19.197 9.16-3.899-.973-6.844-1.707-11.138-2.776l-2.152 16.647c18.555-1.987 36.158-3.633 53.644-6.101 1.807-.256 3.931-5.361 4.07-8.304.135-2.798-2.16-5.704-3.35-8.578-5.709-13.774-2.587-26.633 8.768-36.197 10.922-9.194 28.41-17.308 40.207-18.534 5.14 17.716-3.245 31.186-14.778 43.697l1.372 1.899c4.239-1.885 8.474-3.77 13.878-6.175-.645 13.773-11.086 17.937-18.466 25.393 12.435-5.632 24.869-11.266 37.16-16.837-4.597-15.699 1.411-25.632 11.67-23.36l.121 11.445c1.046.462 1.167.517 2.213.98 3.553-3.127 7.608-5.837 10.593-9.436 3.795-4.572-1.012-6.64-3.728-8.967-4.506-3.856-9.603-7.12-13.662-11.384-6.842-7.193-8.595-16.075-5.367-25.432 4.93-14.286 10.787-28.145 22.438-39.546 14.642 11.93 15.499 27.856 13.09 44.857 1.274.44 1.005.346 2.279.789l7.929-13.59c1.491 3.513 3.225 5.697 3.153 7.814-.174 4.962-.258 10.28-2.068 14.772-8.209 20.382-19.254 38.91-37.36 52.312-1.439 1.062-2.715 2.343-4.468 3.87 25.072-4.449 27.207-4.34 35.098 2.73l-13.842 5.006.251 2.092c16.495 1.839 32.303 4.95 41.465 22.065-4.69 2.452-9.025 5.506-13.846 7.072-8.87 2.879-17.919 5.507-27.09 7.111-14.318 2.503-26.635-5.153-32.607-19.225-.654-1.543-1.096-3.172-1.693-4.743-3.305-8.693-6.792-10.11-15.316-6.206-1.942.889-3.843 1.869-6.412 3.12l6.218 11.547 9.983-5.395c-.925 3.482-.987 5.354-1.853 6.707-6.943 10.859-26.286 11.123-33.461.381-3.225-4.827-5.792-6.578-17.058-1.479-13.588 6.151-28.638 8.378-43.364 5.992-4.358-.707-8.428.463-12.554 1.29-.006 1.203-.004.978-.013 2.183 7.738 1.701 16.027 2.229 23.02 5.514 7.026 3.3 12.729 9.42 20.481 15.446-4.821 2.89-7.212 5.021-9.995 5.869-11.858 3.612-23.653 7.986-35.813 9.908-13.114 2.071-24.269-6.204-29.691-19.266-1.101-2.653-1.855-5.473-3.17-8.007-1.828-3.524-4.361-5.42-8.766-3.556-11.415 4.837-22.947 9.393-35.282 14.405 3.997 5.226 6.43 10.949 10.625 12.925 2.457 1.158 7.727-3.66 12.561-6.231.084 8.285-4.668 12.875-10.589 16.476-12.686 7.715-23.095 6.993-36.126-2.735-23.986 22.626-39.439 51.075-53.905 80.527 28.125-22.239 58.628-39.615 93.34-48.525-.918-19.542 9.338-32.385 29.534-36.964 3.752 10.434.878 19.64-5.98 28.208.615.72 12.638 1.504 15.231 1.445 14.145-.329 28.283-1.017 42.48-1.584.948-16.862 11.164-28.616 29.995-33.569 4.752 10.644.526 19.727-4.627 29.24l7.724-3.676c.609.604.615.611 1.226 1.213-1.623 3.505-3.248 7.01-4.941 10.671.33.111 1.215.399 2.094.702 12.967 4.503 22.2 2.543 30.512-10.608 10.496-16.604 40.586-11.897 48.595 6.264.62 1.408.641 3.081-.333 5.62-1.743-1.527-3.61-2.938-5.208-4.604-4.822-5.023-7.532-4.921-11.024 1.194-2.717 4.759-4.834 9.858-7.592 15.577 6.183 2.188 12.155 4.328 18.145 6.411 5.848 2.033 11.717 4.009 19.047 6.512-1.188-3.44-1.778-5.584-2.651-7.606-8.684-20.105-5.399-32.695 12.588-44.406 10.382-6.758 21.019-13.436 34.364-14.749 5.57 17.963-3.275 31.422-14.601 44.146l1.302 1.762 12.759-5.946c2.037 10.354-1.163 13.299-32.155 30.103 42.286 14.166 84.72 19.57 129.185 12.999-2.156-12.322 2.698-20.6 14.078-24.372 4.541-1.506 9.833-2.956 13.981 3.595l-8.216.836c.285 4.8.574 9.732.959 16.212 14.14-5.274 27.763-10.352 41.386-15.433l.902 1.514-9.492 8.28c10.425-1.155 19.829-3.833 29.344 4.169l-14.302 5.509.242 1.946c16.451 1.992 32.488 4.745 41.349 21.974-16.207 9.714-33.203 15.895-51.89 13.837-11.524-1.27-18.004-10.364-22.106-20.577-4.958-12.344-9.224-14.757-21.749-10.867-21.538 6.692-43.614 9.304-66.532 8.709.372 5.053.882 9.762 1.021 14.482.187 6.386 3.187 7.986 8.91 5.869 1.627-.602 3.416-.761 5.13-1.126.388.62.777 1.238 1.165 1.855-1.81 1.767-3.362 3.966-5.475 5.227-11.774 7.038-39.311-.192-40.857-19.055-.627-7.642-4.59-10.226-11.941-11.211-32.335-4.331-62.819-15.758-93.784-25.315-33.215-10.252-67.13-14.361-101.828-11.305-2.129.187-4.246.506-7.095.852 1.285 6.576 2.158 12.917 3.82 19.045 1.98 7.317 5.588 8.725 12.405 5.509 2.667-1.258 5.233-2.73 8.413-4.403-.759 7.663-8.066 13.47-18.061 15.435-20.955 4.116-35.988-3.517-47.89-24.794-36.192 14.761-68.082 36.552-98.927 60.65 21.93-3.004 43.499-5.958 64.828-8.877-6.779-17.641 3.222-27.914 28.114-38.186 4.576 10.771.861 19.998-4.639 29.707l7.672-3.806 1.167 1.173-6.543 13.024c13.016 2.092 26.438 4.501 39.952 6.19 2.425.303 5.659-1.885 7.735-3.781 2.421-2.206 4.174-5.242 5.876-8.121 6.081-10.265 15.879-11.847 26.32-10.783 10.838 1.106 19.722 5.869 24.272 16.552.36.85.449 1.851.487 2.787.014.381-.449.78-1.351 2.209-1.682-1.643-3.23-3.059-4.67-4.577-4.725-4.982-7.538-5-11.203.885-3.006 4.825-5.187 10.165-8.018 15.842 13.229 4.531 26.295 9.008 40.825 13.988-1.262-3.499-1.896-5.705-2.83-7.775-8.317-18.404-4.857-31.377 11.535-43.01 12.255-8.702 23.5-13.598 35.598-15.36 5.648 17.83-3.348 31.205-14.42 43.975.713.964.581.786 1.297 1.748 4.285-1.946 8.572-3.893 13.114-5.958.878 11.282-4.996 16.661-32.585 30.024 10.548 2.831 19.731 5.653 29.075 7.736 29.334 6.539 58.945 8.248 88.88 4.927 5.637-.624 7.793-2.083 7.604-8.205-.349-11.336 12.579-20.832 23.496-17.885 1.431.386 2.662 1.512 3.875 3.948-2.316.428-4.632.857-7.629 1.415l1.37 16.164c12.939-5.176 25.003-13.588 37.235-13.843 11.191-.231 24.823-6.2 36.857 5.034l-14.14 4.823.082 1.776c7.702 1.7 15.761 2.518 22.961 5.449 7.647 3.111 14.584 8.169 18.427 16.923-14.942 9.762-31.193 14.419-48.33 14.596-12.397.13-19.547-8.9-24.921-19.09-.998-1.892-1.473-4.055-2.284-6.054-2.92-7.186-6.86-9.082-14.094-6.106-22.895 9.425-46.742 14.291-71.413 15.351-4.309.187-8.633.018-13.454.011.363 5.028.78 9.912 1.056 14.806.332 5.844 2.981 7.74 8.535 5.438 1.657-.686 3.519-.875 6.011-1.461-.744 6.329-5.001 7.948-9.179 9.169-16.091 4.7-33.477-5.458-36.663-21.837-1.263-6.491-4.347-8.656-10.671-10.11-23.845-5.48-47.483-11.848-71.184-17.94-3.207-.825-6.33-1.969-10.059-3.145 2.455 5.101 4.618 9.597 6.781 14.097l-1.732 1.777c-4.283-1.921-8.563-3.845-12.843-5.768-.714.961-.586.788-1.297 1.748 10.976 12.793 18.995 26.432 13.515 44.818-18.368-5.042-34.826-12.852-46.486-27.977-6.785-8.8-4.7-19.136-1.001-28.898 1.256-3.316 2.886-6.489 4.702-10.519-28.2-5.805-55.754-7.501-84.223-4.109 1.133 6.27 1.89 12.164 3.302 17.896 2.175 8.809 5.31 10.097 13.448 6.191 2.44-1.172 4.918-2.264 7.908-2.562-2.771 8.718-9.773 12.184-17.711 13.955-20.069 4.479-33.43-2.01-47.95-23.444-.545-.802-1.25-1.508-2.081-2.008-6.022-3.617-8.93-3.389-21.906-2.226"/><path d="M483.642 220.586c10.297-13.19 15.874-29.331 30.885-37.561 3.592-1.969 7.986-2.475 12.012-3.654.371.782.745 1.561 1.119 2.343-2.729 3.663-5.459 7.326-8.187 10.991l.547 1.978c14.972-7.902 30.049-14.484 47.35-5.149-2.131 4.128-3.658 8.442-6.295 11.914-5.352 7.045-10.949 13.971-17.08 20.335-11.415 11.849-25.031 13.691-39.141 5.025-6.5-3.991-12.103-9.431-21.21-6.222zm-76.588-46.612l10.124-4.504c.714 5.568-1.825 9.397-5.447 11.469-9.604 5.5-19.633 10.263-30.436 14.744 3.927-6.621.401-11.699-1.409-17.226-3.672-11.223-.121-20.219 9.906-26.721 8.394-5.448 16.932-10.635 27.605-12.039 4.34 13.819-3.172 23.752-11.672 33.386l1.329.891zm-7.255 242.59c-13.238 1.286-25.678-.909-37.053-7.002-7.333-3.927-9.165-11.779-8.962-19.523.141-5.386 1.876-10.765-3.547-15.298 11.731 1.634 23.49-.335 33.935 5.392 2.822 1.546 4.978 4.31 7.44 6.514l-.917 1.856-9.985-1.163c-.358.433-.718.864-1.078 1.297 10.557 6.539 20.037 13.798 20.167 27.927zm87.699-274.501c5.568 12.385 6.608 25.245 5.297 38.134-1.06 10.45-8.747 16.034-18.199 18.673-5.881 1.643-12.294 1.655-14.801 9.397-8.404-17.463-8.142-41.21 1.002-48.408l2.047 11.658c.458.251.919.5 1.377.748 3.979-12.889 8.175-25.602 23.277-30.202zM278.427 325.325c9.93-11.457 19.64-23.12 29.912-34.263 3.565-3.865 8.775-5.297 15.733-3.485l-8.795 11.738c.153.659.303 1.32.456 1.979 15.188-7.444 30.391-14.699 47.325-4.914-6.901 16.109-17.689 28.909-31.537 38.593-10.058 7.036-21.368 4.477-31.23-1.668-6.334-3.945-11.897-8.921-20.478-5.06-.463-.973-.924-1.946-1.386-2.92zm127.143-59.437c4.73-9.495-1.766-15.068-5.609-21.764-7.382-12.864-6.557-24.873 3.314-35.797 9.614-10.64 20.112-20.543 34.726-25.846 8.875 16.681 3.252 31.792-5.621 46.63.586.385 1.172.768 1.758 1.151l11.257-8.059 2.108.829c-.802 3.615-.697 7.832-2.605 10.715-3.517 5.319-7.651 10.552-12.554 14.564-7.85 6.423-16.538 11.822-24.871 17.652l-1.903-.075zm57.032 55.635c-14.192-.025-20.284-18.575-26.347-34.356 5.361-1.345 10.894-2.457 16.251-4.139 10.662-3.349 20.248-.946 26.794 8.187 6.391 8.916 12.816 18.026 14.006 29.939-13.692 3.943-24.228-2.596-35.164-9.536 1.379 3.065 2.76 6.131 4.46 9.905zm-87.268-184.278c.629-11.592-5.463-24.481 5.541-37.178l2.001 11.081c2.963-5.194 4.893-10.147 8.189-13.9 3.15-3.586 7.724-5.922 13.039-9.808 3.838 14.026 5.204 26.434-1.342 37.573-2.537 4.314-9.623 6.183-14.904 8.583-3.638 1.653-7.733 2.3-12.524 3.649zM202.009 68.594l7.633-10.437c3.957 5.222 3.608 10.573 1.144 14.774-6.53 11.143-13.916 21.785-22.252 32.59.13-8.982-6.384-12.075-11.423-16.62-10.234-9.23-11.861-20.394-5.486-32.8 5.338-10.386 10.968-20.59 20.96-28.21 12.412 11.472 10.575 25.886 7.562 40.573l1.862.13zM138.04 87.235l7.408-6.455c2.055 4.536.9 8.442-1.63 11.14-6.71 7.165-13.969 13.813-21.96 20.423 1.604-6.635-2.706-10.02-5.678-14.234-6.037-8.558-5.369-17.105 1.436-25.23 5.701-6.804 11.585-13.42 20.269-17.391 7.275 10.585 3.494 20.96-1.203 31.339.453.134.905.271 1.358.408zm129.406 349.872c-16.916-3.255-31.565-10.542-43.465-22.277-7.669-7.565-7.067-17.99-3.977-27.538 2.149-6.639 6.275-12.683 1.201-20.303 13.974 6.327 29.302 8.192 40.18 19.134 2.941 2.956 4.604 7.177 6.854 10.82l-1.817 1.969c-3.993-1.703-7.986-3.403-11.979-5.103-.604.405-1.21.811-1.814 1.214 10.719 11.994 19.833 24.486 14.817 42.084zm-148.029-26.808c-10.559-9.172-17.887-20.253-21.47-33.343-2.309-8.437 2.359-15.517 8.415-20.966 4.212-3.791 9.572-6.357 9.11-13.776 7.241 10.134 17.251 17.682 20.44 29.799.861 3.272.312 6.917.412 10.39l-2.078.643-6.339-8.46-1.771.116c2.651 12.786 3.968 25.274-6.719 35.597zM234.566 192.15c4.112-9.021 3.282-21.164 15.984-27.833-.72 3.653-1.208 6.122-1.859 9.433 3.972-3.206 7.049-6.543 10.84-8.501 3.621-1.869 7.986-2.302 13.422-3.736-1.318 12.347-4.098 22.637-12.768 29.455-3.362 2.641-9.58 1.919-14.526 2.181-3.405.182-6.862-.579-11.093-.999zM92.706 87.44c5.568 12.386 6.608 25.245 5.297 38.134-1.06 10.45-8.748 16.034-18.2 18.673-5.88 1.644-12.293 1.655-14.8 9.398-8.404-17.464-8.142-41.211 1.002-48.411l2.047 11.661c.458.25.919.499 1.377.747 3.98-12.889 8.175-25.604 23.277-30.201zM.001 1239.11c18.828-13.93 167.986-60.51 182.095-63.27 9.759-1.92 14.655-6.09 15.84-15.95 1.787-14.9 11.36-22.09 25.673-23.85 14.252-1.55 21.074 1.31 26.977 12.87-5.482-1.36-9.618-2.4-15.654-3.9l-3.022 23.4c26.074-2.8 50.808-5.11 75.378-8.58 2.541-.36 5.525-7.53 5.723-11.67.187-3.93-3.038-8.01-4.711-12.05-8.021-19.35-3.636-37.43 12.321-50.86 15.348-12.92 39.923-24.33 56.499-26.05 7.223 24.9-4.558 43.82-20.765 61.4 1.066 1.48.861 1.2 1.928 2.67 5.958-2.65 11.909-5.3 19.501-8.68-.908 19.36-15.576 25.21-25.947 35.69 17.473-7.92 34.943-15.83 52.217-23.66-6.46-22.06 1.98-36.02 16.399-32.83l.166 16.09c1.472.65 1.641.72 3.113 1.37 4.992-4.39 10.692-8.2 14.886-13.26 5.331-6.42-1.422-9.33-5.24-12.6-6.334-5.42-13.495-10-19.196-16-9.615-10.1-12.082-22.58-7.544-35.73 6.927-20.07 15.157-39.552 31.531-55.573 20.574 16.764 21.778 39.143 18.395 63.033l3.2 1.11c3.276-5.61 6.553-11.23 11.143-19.1 2.095 4.94 4.534 8.01 4.431 10.98-.244 6.98-.362 14.45-2.904 20.76-11.539 28.64-27.061 54.68-52.503 73.51-2.02 1.49-3.813 3.29-6.277 5.44 35.232-6.25 38.233-6.1 49.319 3.84l-19.448 7.03c.191 1.6.16 1.34.353 2.94 23.178 2.59 45.391 6.95 58.266 31-6.592 3.45-12.684 7.74-19.455 9.94-12.468 4.05-25.181 7.74-38.07 10-20.119 3.51-37.429-7.24-45.817-27.02-.918-2.17-1.543-4.46-2.381-6.66-4.645-12.22-9.543-14.21-21.523-8.73-2.728 1.25-5.399 2.63-9.007 4.39 2.96 5.5 5.711 10.6 8.736 16.22l14.026-7.58c-1.299 4.9-1.386 7.53-2.603 9.43-9.752 15.26-36.937 15.63-47.02.53-4.531-6.78-8.136-9.24-23.968-2.07-19.097 8.64-40.244 11.77-60.934 8.41-6.125-.99-11.845.65-17.641 1.82-.012 1.69-.009 1.37-.019 3.06 10.872 2.4 22.521 3.14 32.347 7.75 9.873 4.64 17.887 13.24 28.779 21.71-6.773 4.06-10.135 7.06-14.046 8.25-16.661 5.07-33.236 11.22-50.323 13.92-18.427 2.91-34.104-8.72-41.721-27.07-1.547-3.73-2.609-7.69-4.458-11.26-2.566-4.95-6.124-7.61-12.317-4.99-16.038 6.79-32.246 13.19-49.579 20.24 5.618 7.34 9.037 15.38 14.933 18.16 3.451 1.63 10.858-5.14 17.648-8.75.121 11.64-6.557 18.09-14.879 23.15-17.828 10.84-32.451 9.82-50.762-3.85-33.705 31.8-55.421 71.78-75.747 113.16 39.521-31.25 82.382-55.67 131.161-68.18-1.29-27.47 13.119-45.51 41.502-51.95 5.27 14.67 1.233 27.6-8.405 39.64.863 1.01 17.757 2.11 21.404 2.03 19.877-.46 39.742-1.43 59.692-2.23 1.333-23.69 15.688-40.21 42.149-47.17 6.678 14.96.739 27.72-6.502 41.09l10.853-5.16c.857.84.866.85 1.723 1.7-2.281 4.93-4.56 9.85-6.944 15 .467.15 1.711.56 2.944.98 18.223 6.33 31.196 3.57 42.874-14.9 14.751-23.33 57.035-16.72 68.288 8.8.873 1.98.9 4.33-.468 7.89-2.45-2.14-5.071-4.12-7.318-6.46-6.778-7.06-10.582-6.92-15.492 1.67-3.818 6.69-6.794 13.85-10.667 21.89 8.689 3.08 17.079 6.08 25.496 9.01 8.218 2.86 16.467 5.64 26.764 9.15-1.668-4.83-2.495-7.85-3.724-10.69-12.2-28.25-7.585-45.94 17.689-62.4 14.589-9.49 29.539-18.88 48.287-20.72 7.829 25.24-4.601 44.15-20.517 62.03l1.83 2.48c5.903-2.75 11.806-5.5 17.931-8.36 2.862 14.55-1.635 18.69-45.188 42.31 59.423 19.9 119.05 27.5 181.534 18.26-3.031-17.31 3.793-28.95 19.781-34.25 6.382-2.11 13.817-4.15 19.649 5.06l-11.546 1.17c.399 6.75.807 13.67 1.347 22.78 19.87-7.41 39.015-14.55 58.158-21.68l1.265 2.12-13.34 11.64c14.651-1.63 27.866-5.39 41.238 5.86-7.747 2.98-13.917 5.36-20.101 7.74.185 1.47.16 1.26.342 2.73 23.118 2.8 45.653 6.67 58.104 30.88-22.774 13.65-46.657 22.33-72.916 19.44-16.194-1.78-25.299-14.56-31.063-28.91-6.966-17.35-12.962-20.74-30.562-15.27-30.266 9.4-61.286 13.07-93.491 12.23.522 7.11 1.24 13.72 1.436 20.35.262 8.98 4.476 11.23 12.52 8.25 2.286-.84 4.8-1.07 7.209-1.58l1.634 2.61c-2.544 2.48-4.723 5.57-7.69 7.34-16.547 9.89-55.241-.27-57.413-26.77-.88-10.74-6.45-14.37-16.78-15.76-45.436-6.08-88.273-22.14-131.788-35.57-46.673-14.41-94.329-20.18-143.088-15.89-2.991.27-5.965.71-9.97 1.2 1.808 9.24 3.034 18.15 5.368 26.76 2.783 10.28 7.854 12.26 17.434 7.74 3.747-1.77 7.352-3.83 11.819-6.18-1.066 10.76-11.334 18.92-25.378 21.68-29.445 5.79-50.571-4.94-67.294-34.83-50.858 20.74-95.67 51.36-139.015 85.22 30.819-4.22 61.126-8.37 91.095-12.48-9.523-24.78 4.531-39.22 39.507-53.65 6.43 15.13 1.211 28.1-6.516 41.74 3.592-1.78 7.187-3.56 10.779-5.35.829.84.809.82 1.641 1.65l-9.197 18.3c18.291 2.94 37.153 6.33 56.141 8.7 3.41.43 7.953-2.65 10.872-5.31 3.399-3.1 5.862-7.37 8.255-11.41 8.545-14.43 22.316-16.65 36.985-15.16 15.23 1.56 27.713 8.25 34.106 23.26.508 1.2.634 2.6.686 3.92.021.53-.631 1.1-1.896 3.11-2.366-2.31-4.543-4.3-6.566-6.44-6.64-7-10.592-7.03-15.743 1.24-4.223 6.79-7.289 14.29-11.264 22.27 18.587 6.37 36.948 12.66 57.368 19.65-1.776-4.91-2.667-8.01-3.98-10.92-11.685-25.86-6.826-44.09 16.208-60.44 17.224-12.23 33.025-19.11 50.026-21.59 7.938 25.06-4.704 43.86-20.264 61.8 1.002 1.35.818 1.1 1.823 2.46 6.022-2.74 12.046-5.47 18.427-8.37 1.233 15.85-7.02 23.41-45.791 42.19 14.826 3.97 27.726 7.94 40.859 10.86 41.219 9.19 82.831 11.59 124.896 6.93 7.92-.88 10.949-2.93 10.685-11.53-.49-15.93 17.673-29.27 33.016-25.13 2.011.54 3.743 2.12 5.445 5.54-3.254.61-6.507 1.21-10.721 1.99l1.926 22.72c18.181-7.28 35.134-19.1 52.324-19.45 15.724-.33 34.881-8.72 51.79 7.07-7.813 2.66-13.842 4.72-19.87 6.77.059 1.3.055 1.2.116 2.5 10.822 2.39 22.145 3.54 32.265 7.66 10.746 4.37 20.494 11.48 25.894 23.78-20.996 13.72-43.832 20.26-67.914 20.51-17.42.18-27.469-12.51-35.02-26.83-1.402-2.66-2.069-5.69-3.209-8.5-4.1-10.1-9.641-12.77-19.806-8.58-32.174 13.24-65.682 20.08-100.347 21.57-6.056.26-12.134.02-18.908.01.513 7.07 1.096 13.93 1.486 20.81.465 8.21 4.189 10.88 11.993 7.64 2.327-.96 4.946-1.23 8.445-2.05-1.044 8.89-7.025 11.17-12.896 12.88-22.614 6.6-47.043-7.67-51.522-30.68-1.773-9.13-6.106-12.17-14.994-14.21-33.505-7.7-66.724-16.65-100.03-25.21-4.504-1.16-8.891-2.77-14.133-4.42 3.448 7.17 6.488 13.49 9.531 19.81-1.21 1.24-1.228 1.26-2.436 2.5-6.017-2.7-12.032-5.41-18.049-8.11l-1.819 2.46c15.421 17.97 26.689 37.14 18.99 62.98-25.812-7.09-48.939-18.07-65.324-39.32-9.534-12.36-6.603-26.89-1.404-40.61 1.764-4.65 4.055-9.11 6.607-14.78-39.628-8.15-78.347-10.53-118.35-5.77 1.589 8.81 2.651 17.09 4.639 25.15 3.056 12.38 7.462 14.19 18.896 8.69 3.431-1.64 6.911-3.17 11.114-3.59-3.895 12.25-13.735 17.12-24.889 19.61-28.2 6.29-46.974-2.83-67.378-32.95-.766-1.13-1.757-2.12-2.924-2.82-8.463-5.08-12.55-4.76-30.783-3.13"/><path d="M678.064 1288.05c14.471-18.53 22.307-41.21 43.401-52.78 5.046-2.76 11.221-3.48 16.878-5.13.524 1.1 1.048 2.19 1.572 3.29-3.833 5.15-7.669 10.3-11.503 15.44.255.93.513 1.86.77 2.79 21.037-11.11 42.223-20.36 66.535-7.24-2.995 5.8-5.142 11.86-8.846 16.74-7.519 9.9-15.387 19.63-24.002 28.58-16.036 16.65-35.173 19.24-55.002 7.06-9.135-5.61-17.005-13.25-29.803-8.75zm-107.621-65.5c4.563-2.03 9.126-4.06 14.225-6.32 1.005 7.82-2.564 13.2-7.652 16.11-13.499 7.73-27.589 14.42-42.769 20.72 5.516-9.3.563-16.44-1.981-24.21-5.16-15.77-.17-28.41 13.917-37.55 11.8-7.65 23.795-14.94 38.795-16.91 6.097 19.42-4.458 33.37-16.404 46.91.625.42 1.247.84 1.869 1.25zm113.042-44.84c7.824 17.41 9.283 35.48 7.444 53.59-1.491 14.68-12.292 22.53-25.575 26.24-8.262 2.31-17.277 2.32-20.8 13.2-11.809-24.53-11.437-57.91 1.411-68.02 1.05 5.99 1.962 11.18 2.876 16.38l1.935 1.05c5.591-18.11 11.487-35.98 32.709-42.44zm-293.79 257.52c13.956-16.1 27.599-32.48 42.033-48.14 5.01-5.44 12.333-7.45 22.109-4.9-4.709 6.28-8.534 11.39-12.36 16.49.214.93.428 1.86.64 2.79 21.345-10.47 42.705-20.66 66.503-6.91-9.696 22.63-24.855 40.62-44.315 54.23-14.136 9.89-30.026 6.29-43.884-2.34-8.9-5.55-16.72-12.54-28.779-7.11l-1.947-4.11zm178.663-83.52c6.646-13.34-2.482-21.17-7.882-30.58-10.375-18.08-9.215-34.95 4.657-50.3 13.508-14.95 28.259-28.87 48.797-36.32 12.47 23.44 4.57 44.67-7.899 65.52.822.54 1.648 1.08 2.473 1.62 5.271-3.77 10.543-7.55 15.815-11.33l2.963 1.17c-1.128 5.08-.98 11.01-3.66 15.06-4.944 7.47-10.751 14.82-17.641 20.46-11.032 9.03-23.239 16.62-34.95 24.81-.891-.04-1.782-.07-2.673-.11zm80.141 78.18c-19.943-.04-28.506-26.1-37.023-48.28 7.53-1.89 15.309-3.45 22.835-5.81 14.983-4.71 28.451-1.33 37.652 11.5 8.98 12.53 18.008 25.33 19.679 42.07-19.236 5.54-34.044-3.64-49.411-13.4 1.94 4.31 3.879 8.62 6.268 13.92zm-122.628-258.95c.884-16.29-7.677-34.4 7.783-52.24 1.092 6.03 1.828 10.11 2.815 15.57 4.164-7.29 6.874-14.26 11.508-19.53 4.426-5.04 10.853-8.32 18.322-13.78 5.393 19.71 7.31 37.14-1.887 52.79-3.564 6.07-13.522 8.7-20.943 12.07-5.113 2.32-10.865 3.23-17.598 5.12zm-243.558-96.47c3.442-4.7 6.881-9.4 10.726-14.66 5.559 7.34 5.069 14.86 1.609 20.76-9.178 15.66-19.558 30.61-31.268 45.8.182-12.63-8.971-16.97-16.055-23.36-14.379-12.97-16.665-28.66-7.708-46.09 7.501-14.6 15.412-28.93 29.452-39.64 17.442 16.12 14.86 36.37 10.628 57.01l2.616.18zm-89.89 26.2l10.409-9.07c2.89 6.37 1.265 11.86-2.29 15.66-9.43 10.06-19.631 19.4-30.859 28.69 2.255-9.32-3.801-14.08-7.979-20-8.481-12.03-7.542-24.04 2.019-35.45 8.009-9.56 16.278-18.86 28.481-24.44 10.222 14.87 4.91 29.45-1.691 44.04l1.91.57zm135.639 147.43c5.777-12.68 4.61-29.74 22.459-39.11-1.01 5.13-1.694 8.6-2.612 13.25 5.584-4.5 9.908-9.19 15.232-11.94 5.089-2.63 11.223-3.24 18.86-5.25-1.851 17.34-5.757 31.81-17.942 41.38-4.722 3.72-13.458 2.7-20.408 3.07-4.788.25-9.648-.81-15.589-1.4zM128.72 1100.96c7.825 17.4 9.283 35.47 7.444 53.58-1.49 14.69-12.292 22.54-25.575 26.24-8.262 2.31-17.276 2.33-20.8 13.21-11.808-24.54-11.437-57.91 1.411-68.03 1.05 5.99 1.962 11.19 2.876 16.39l1.935 1.05c5.591-18.12 11.488-35.98 32.709-42.44z"/></g><defs><clipPath id="clip0_673_19635"><path fill="#fff" d="M0 0h1920v1534.36H0z"/></clipPath></defs></svg>