<svg width="40" height="40" fill="none" xmlns="http://www.w3.org/2000/svg"><circle cx="20" cy="20" r="18.5" fill="#492E16" stroke="#492E16" stroke-width="3"/><g clip-path="url(#clip0_370_12876)" fill-rule="evenodd" clip-rule="evenodd" fill="#FDDEB2"><path d="M26.311 24.584l-.012-.013c-.227-.236-.385-.258-.46-.258-.078 0-.254.024-.51.281l-.003.002-2.83 2.822-1.309-.704c-.08-.044-.148-.078-.229-.12a30.79 30.79 0 01-.164-.084l-.015-.008a8.622 8.622 0 01-.689-.373l-.009-.006-.008-.005c-1.875-1.19-3.545-2.723-5.111-4.647l-.009-.01-.008-.012c-.774-.977-1.345-1.866-1.774-2.815l-.597-1.32 1.07-.979a30.005 30.005 0 001.232-1.212l.004-.005.005-.005.224-.226.003-.003c.077-.078.16-.164.246-.249.28-.28.3-.47.3-.533 0-.064-.02-.253-.3-.533l-1.546-1.546c-.165-.165-.36-.36-.548-.56a24.45 24.45 0 00-.967-.957l-.025-.024-.025-.024c-.221-.219-.385-.249-.479-.249-.097 0-.277.034-.515.258l-1.909 1.925a2.12 2.12 0 00-.643 1.373c-.095 1.187.256 2.373.603 3.311.82 2.21 2.053 4.295 3.966 6.596 2.286 2.728 5.024 4.872 8.147 6.383 1.241.587 2.676 1.169 4.202 1.27.115.006.188.008.242.008.744 0 1.285-.236 1.74-.71.343-.415.728-.786 1.037-1.085l.087-.084.006-.006.005-.005c.231-.22.454-.438.666-.66l.004-.004c.257-.268.292-.464.292-.562 0-.09-.03-.267-.274-.509l-.005-.005-3.108-3.119zm2.798 7.354c-.856.928-1.948 1.395-3.248 1.395a7.74 7.74 0 01-.354-.01c-1.93-.125-3.659-.85-4.953-1.464-3.388-1.638-6.354-3.963-8.82-6.906-2.03-2.443-3.392-4.723-4.304-7.183-.371-1.001-.855-2.532-.72-4.176.09-1.018.5-1.896 1.221-2.617l1.914-1.93.01-.012c.564-.54 1.228-.827 1.914-.827.687 0 1.34.287 1.886.827.366.338.72.698 1.058 1.047.169.18.349.36.523.535l1.537 1.537c1.182 1.181 1.182 2.712 0 3.894l-.236.24-.237.239-.12.122c-.38.384-.769.78-1.186 1.16.344.76.816 1.51 1.52 2.398 1.452 1.785 2.966 3.163 4.632 4.222.163.1.355.197.557.298l.145.074.289.15 1.778-1.772c.569-.568 1.233-.867 1.925-.867.698 0 1.356.304 1.902.873l3.09 3.1c.569.564.867 1.233.867 1.931 0 .693-.293 1.368-.85 1.948a22.178 22.178 0 01-.81.802c-.326.315-.636.614-.907.942-.002.006-.007.01-.01.015-.005.004-.01.008-.012.014zm-8.753-20.593a1 1 0 011.154-.818 9.68 9.68 0 015.239 2.716 9.68 9.68 0 012.715 5.239 1 1 0 01-1.971.335 7.68 7.68 0 00-2.159-4.16 7.68 7.68 0 00-4.16-2.158 1 1 0 01-.818-1.154z"/><path d="M20.317 8.008a1 1 0 011.153-.819c2.83.48 5.41 1.823 7.456 3.863l.001.001a13.75 13.75 0 013.864 7.457 1 1 0 01-1.972.335 11.75 11.75 0 00-3.306-6.377 11.787 11.787 0 00-6.377-3.307 1 1 0 01-.819-1.153z"/></g><defs><clipPath id="clip0_370_12876"><path fill="#fff" transform="translate(6.666 6.667)" d="M0 0h26.667v26.667H0z"/></clipPath></defs></svg>