<svg width="171" height="30" fill="none" xmlns="http://www.w3.org/2000/svg"><rect x="1.334" y=".6" width="168" height="28.2" rx="14.1" fill="#FDDEB2"/><path d="M155.675 27.522H14.886c-6.967 0-12.633-5.666-12.633-12.636 0-6.967 5.666-12.633 12.633-12.633h140.789c6.967 0 12.636 5.666 12.636 12.633 0 6.97-5.669 12.636-12.636 12.636zm0-27.522H14.886C6.678 0 0 6.678 0 14.886c0 8.211 6.678 14.889 14.886 14.889h140.789c8.208 0 14.889-6.678 14.889-14.889C170.564 6.678 163.883 0 155.675 0z" fill="#472E17"/><path d="M28.454 10.395c-1.273 1.23-2.206 3.097-2.206 5.325 0 2.266.933 4.133 2.206 5.363 1.188 1.167 2.947 2.059 5.555 2.059.85 0 1.867-.128 3.12-.764v-3.753c-1.253 1.228-2.398 1.461-3.245 1.461-1.742 0-2.758-.889-3.055-1.186-.637-.617-1.231-1.655-1.231-3.12 0-1.355.553-2.5 1.336-3.263.745-.723 1.697-1.103 2.886-1.103 1.506 0 2.586.742 3.309 1.505V9.145c-1.378-.595-2.462-.787-3.395-.787-2.205 0-4.03.828-5.28 2.037zm21.65 8.525c-.678.677-1.697 1.21-3.14 1.21-1.102 0-2.119-.297-3.03-1.169-.872-.847-1.297-1.886-1.297-3.18 0-1.57.639-2.609 1.253-3.203.764-.764 1.867-1.209 3.097-1.209 1.292 0 2.417.53 3.117 1.209.636.636 1.23 1.72 1.23 3.183 0 1.63-.677 2.628-1.23 3.158zM47.007 8.357c-2.82 0-4.578 1.125-5.534 2.078-1.272 1.272-2.186 3.33-2.186 5.367 0 2.078.85 3.986 2.206 5.258 1.06 1.02 2.864 2.078 5.514 2.078 2.377 0 4.158-.806 5.472-2.078 1.528-1.483 2.205-3.414 2.205-5.3 0-2.186-.87-4.053-2.205-5.344-1.42-1.381-3.264-2.059-5.472-2.059zm11.721 8.229c0 1.122-.042 2.375-.636 2.97-.276.274-.742.466-1.295.466-.294 0-.572-.041-.805-.128v2.925c.402.109.827.17 1.313.17 1.614 0 2.59-.528 3.184-1.122 1.125-1.148 1.422-3.162 1.422-5.578V11.43h3.836v11.39h3.267V8.674H58.728v7.911zm22.5-2.522h-5.642V8.678H72.32v14.144h3.266v-6h5.642v6h3.267V8.678h-3.267v5.386zm6.569 8.758h7.995v-2.755h-4.728v-3.14h4.495V14.17h-4.495v-2.736h4.728V8.678h-7.995v14.144zm18.193-8.442a9.716 9.716 0 01-1.931.17c-.953 0-1.633-.128-2.055-.467-.637-.508-.617-1.294-.617-1.716v-3.69h-3.264v4.345c0 1.061.106 2.186 1.08 3.12 1.145 1.08 3.117 1.25 4.389 1.25.87 0 1.656-.084 2.398-.212v5.642h3.266V8.678h-3.266v5.702zm15.478-.316h-5.642V8.678h-3.267v14.144h3.267v-6h5.642v6h3.266V8.678h-3.266v5.386zm12.973 5.744c-.444.32-1.125.38-1.697.38h-1.442V16.82h1.464c1.017 0 1.464.17 1.698.34.105.063.591.444.591 1.335 0 .742-.361 1.145-.614 1.314zm-1.189-5.62h-1.95V8.676h-3.266V22.82h5.111c1.189 0 2.864-.083 4.03-1.186.975-.933 1.145-2.183 1.145-3.12 0-.93-.17-2.183-1.189-3.135-1.122-1.061-2.669-1.19-3.881-1.19zm9.653-5.51h-3.266v14.144h3.266V8.678zm6.568 9.244V8.675h-3.267v14.317h2.886l6.553-9.44v9.27h3.264V8.506h-2.883l-6.553 9.416zm.488-11.05c.847.509 1.761.595 2.586.595.85 0 1.761-.086 2.608-.595a4.274 4.274 0 001.614-1.908l-2.25-.956c-.105.34-.361.764-.678 1.02-.425.316-.933.358-1.252.358-.486 0-.975-.128-1.292-.358-.275-.214-.553-.636-.7-1.02l-2.25.956a4.274 4.274 0 001.614 1.908zm-135.716 12a3.375 3.375 0 003.383-3.367 3.375 3.375 0 00-3.383-3.366 3.375 3.375 0 00-3.384 3.367 3.375 3.375 0 003.384 3.366zm-4.281-6.6c.288.253.733.217 1.008-.039.28-.266.35-.73.103-1.022a8.203 8.203 0 00-.864-.864c-.114-.1-.292-.122-.442-.18-.325.044-.567.183-.703.464-.136.286-.13.586.084.827.252.29.525.561.814.814zm4.226 7.684c-.429.01-.754.35-.768.797-.002.164 0 .328 0 .491 0 .156-.002.311.003.464a.786.786 0 00.759.78c.408.018.789-.33.808-.76.017-.334.014-.67 0-1.006-.02-.433-.392-.778-.803-.767zM9.663 15.45c.02-.406-.31-.792-.725-.811-.358-.02-.72-.02-1.077 0-.414.022-.745.41-.725.814a.79.79 0 00.788.75c.164.002.328 0 .492 0 .156 0 .311.002.464 0a.782.782 0 00.783-.753zm8.79 3.122c-.3-.26-.769-.214-1.047.07-.275.28-.314.722-.05 1.025.253.286.528.558.817.808.12.106.303.136.458.2.33-.042.564-.183.706-.461.155-.297.13-.597-.086-.844a8 8 0 00-.798-.798zm-4.267-7.686a.796.796 0 00.803-.739c.02-.35.02-.703 0-1.053a.788.788 0 00-.806-.733.776.776 0 00-.76.772c-.006.164 0 .328 0 .492 0 .153-.006.308 0 .464.01.447.338.786.763.797zm6.351 3.75c-.35-.016-.703-.016-1.056 0a.786.786 0 00-.739.82.786.786 0 00.789.744c.164.003.325.003.489.003.155 0 .311 0 .467-.003a.769.769 0 00.772-.755c.008-.423-.303-.787-.722-.809zm-2.009-2.43c.236-.225.472-.453.692-.695a.738.738 0 00.128-.864c-.14-.291-.38-.436-.817-.455-.089.047-.286.11-.436.236a7.732 7.732 0 00-.678.672c-.32.336-.311.808.008 1.117.309.3.778.297 1.103-.011zm-7.764 6.269c-.297-.13-.6-.103-.847.128-.25.236-.497.478-.728.73a.78.78 0 00.031 1.09.791.791 0 001.072.019c.253-.234.503-.473.725-.734.114-.136.167-.325.248-.489-.042-.36-.198-.61-.5-.744z" fill="#472E17"/></svg>