<svg width="18" height="24" viewBox="0 0 18 24" fill="none" xmlns="http://www.w3.org/2000/svg">
<path d="M10 1.00011C10 0.447822 9.55228 0.000106838 9 0.000106812C8.44772 0.000106785 8 0.447822 8 1.00011L10 1.00011ZM8.29289 19.3072C8.68342 19.6977 9.31658 19.6977 9.70711 19.3072L16.0711 12.9433C16.4616 12.5527 16.4616 11.9196 16.0711 11.529C15.6805 11.1385 15.0474 11.1385 14.6569 11.529L9 17.1859L3.34315 11.529C2.95262 11.1385 2.31946 11.1385 1.92893 11.529C1.53841 11.9196 1.53841 12.5527 1.92893 12.9433L8.29289 19.3072ZM8 1.00011L8 18.6001L10 18.6001L10 1.00011L8 1.00011Z" fill="#492E16"/>
<path d="M1 23.0001H17" stroke="#492E16" stroke-width="2" stroke-linecap="round"/>
</svg>
