<svg width="40" height="40" viewBox="0 0 40 40" fill="none" xmlns="http://www.w3.org/2000/svg">
<circle cx="20" cy="20" r="18.5" fill="#492E16" stroke="#492E16" stroke-width="3"/>
<g clip-path="url(#clip0_370_12869)">
<path fill-rule="evenodd" clip-rule="evenodd" d="M11.4713 19.0566C11.4727 19.0637 11.4747 19.0743 11.4776 19.0885C11.4861 19.1309 11.4996 19.1955 11.5193 19.2841C11.6504 19.8668 11.8451 20.4414 12.0981 20.9881L12.1114 21.0169L12.1239 21.0462C13.0935 23.3291 15.2426 26.9607 19.9989 30.967C24.7517 26.96 26.9055 23.3281 27.8748 21.0462L27.8872 21.0169L27.9005 20.9881C28.155 20.4383 28.3487 19.8695 28.4791 19.2854M9.56744 19.7205C9.52272 19.5192 9.50035 19.4018 9.49476 19.3627C9.36618 18.703 9.30469 18.0265 9.30469 17.3557C9.30469 11.4633 14.1013 6.66666 19.9937 6.66666C25.8861 6.66666 30.6827 11.4633 30.6939 17.3557C30.6939 18.0265 30.6268 18.703 30.5038 19.3627C30.4983 19.4018 30.4759 19.5192 30.4312 19.7205C30.269 20.4472 30.0287 21.1516 29.7156 21.8281C28.5639 24.5395 26.0259 28.7044 20.4745 33.1656C20.3347 33.2774 20.167 33.3333 19.9993 33.3333C19.8316 33.3333 19.6639 33.2774 19.5241 33.1656C13.9672 28.7044 11.4347 24.5395 10.283 21.8281C9.96996 21.1516 9.72957 20.4416 9.56744 19.7205ZM11.4713 19.0566L11.4675 19.0297L11.4578 18.98C11.3552 18.4536 11.3047 17.9056 11.3047 17.3557C11.3047 12.5679 15.2059 8.66666 19.9937 8.66666C24.7801 8.66666 28.6838 12.5669 28.6939 17.3575C28.6938 17.8959 28.6398 18.4489 28.5377 18.9961L28.53 19.0378L28.5273 19.0566C28.5267 19.0597 28.526 19.0635 28.5251 19.0679C28.524 19.0737 28.5226 19.0805 28.521 19.0885C28.5125 19.131 28.4988 19.1964 28.4791 19.2854" fill="#FDDEB2"/>
<path fill-rule="evenodd" clip-rule="evenodd" d="M19.9939 12.6862C17.3584 12.6862 15.207 14.8376 15.207 17.4731C15.207 20.1086 17.3584 22.2599 19.9939 22.2599C22.6294 22.2599 24.7808 20.1086 24.7808 17.4731C24.7808 14.8376 22.6294 12.6862 19.9939 12.6862ZM13.207 17.4731C13.207 13.733 16.2539 10.6862 19.9939 10.6862C23.7339 10.6862 26.7808 13.733 26.7808 17.4731C26.7808 21.2131 23.7339 24.2599 19.9939 24.2599C16.2539 24.2599 13.207 21.2131 13.207 17.4731Z" fill="#FDDEB2"/>
</g>
<defs>
<clipPath id="clip0_370_12869">
<rect width="26.6667" height="26.6667" fill="white" transform="translate(6.66602 6.66666)"/>
</clipPath>
</defs>
</svg>
