<svg width="220" height="58" viewBox="0 0 220 58" fill="none" xmlns="http://www.w3.org/2000/svg">
<rect x="75.4082" width="144.591" height="57.8393" fill="#0A67B4"/>
<rect width="75.4088" height="57.8393" fill="#E40522"/>
<path fill-rule="evenodd" clip-rule="evenodd" d="M30.1026 8.53518L39.6148 8.53508L39.6147 5.3802L26.9894 5.38034L26.989 45.5172L30.1022 45.5172L30.1026 8.53518ZM36.6668 12.0936L49.6987 12.094L49.6984 45.5173L46.5852 45.5172L46.5855 15.2488L36.6667 15.2485L36.6668 12.0936ZM52.9862 22.2593L66.0182 22.2597L66.0179 45.5173L62.9046 45.5172L62.9049 25.4145L52.9861 25.4142L52.9862 22.2593ZM13.9231 32.3719L23.4353 32.3718L23.4353 29.217L10.81 29.2171L10.8095 45.5171L13.9227 45.5172L13.9231 32.3719ZM33.727 38.3843H43.2396V49.1724H75.5573V52.3273H40.1264V41.5392H36.8403L36.8403 52.3272L0.201264 52.3283L0.201172 49.1734L33.727 49.1724L33.727 38.3843Z" fill="white"/>
<path d="M20.4093 35.7552H23.5225V38.9101H20.4093V35.7552Z" fill="white"/>
<path d="M53.271 35.7552H56.3842V38.9101H53.271V35.7552Z" fill="white"/>
<path d="M40.1263 28.7444H43.2395V31.8993H40.1263V28.7444Z" fill="white"/>
<path d="M33.554 28.7444H36.6672V31.8993H33.554V28.7444Z" fill="white"/>
<path d="M53.271 28.7444H56.3842V31.8993H53.271V28.7444Z" fill="white"/>
<path d="M40.1263 21.7336H43.2395V24.8884H40.1263V21.7336Z" fill="white"/>
<path d="M33.554 21.7336H36.6672V24.8884H33.554V21.7336Z" fill="white"/>
<path d="M20.4093 42.4155H23.5225V45.5704H20.4093V42.4155Z" fill="white"/>
<path d="M53.271 42.4155H56.3842V45.5704H53.271V42.4155Z" fill="white"/>
<path d="M95.0563 27.0522L95.8929 30.9099H96.1439L96.8133 26.925L101.206 13.9527H107.104L99.3233 34.4709C98.7097 36.0819 98.1101 37.4808 97.5244 38.6678C96.9667 39.8548 96.3531 40.844 95.6838 41.6353C95.0423 42.3984 94.3172 42.9778 93.5085 43.3734C92.6997 43.7409 91.7515 43.9246 90.6638 43.9246C89.7435 43.9246 88.9905 43.8539 88.4048 43.7126C87.847 43.5995 87.2335 43.3311 86.5642 42.9071L88.0283 38.2015C88.5024 38.4559 88.9347 38.6113 89.3252 38.6678C89.7156 38.7244 90.1339 38.7526 90.5801 38.7526C91.8909 38.7526 92.8112 37.7069 93.3411 35.6155L82.3809 13.9527H89.116L95.0563 27.0522Z" fill="white"/>
<path d="M129.625 19.1247H118.331V43.6278H112.599V13.9527H129.625V19.1247Z" fill="white"/>
<path d="M146.234 37.0569H137.24L135.023 43.6278H129.292L139.834 13.7408H144.059L154.601 43.6278H148.577L146.234 37.0569ZM138.704 32.3937H144.979L142.804 25.7804L141.925 21.1172H141.716L140.838 25.8228L138.704 32.3937Z" fill="white"/>
<path d="M177.754 27.1793L178.089 23.3216H177.88L175.913 27.3065L164.995 43.6278H160.686V13.9527H166.417V30.1045L165.999 34.0894H166.25L168.3 29.9773L179.218 13.9527H183.485V43.6278H177.754V27.1793Z" fill="white"/>
<path d="M199.341 30.9523H197.835V43.6278H192.103V13.9527H197.835V27.0946L199.173 26.5011L207.247 13.9527H213.773L205.239 26.4163L202.98 28.0272L205.323 29.6805L215.07 43.6278H208L199.341 30.9523Z" fill="white"/>
</svg>
