<svg width="220" height="57" viewBox="0 0 220 57" fill="none" xmlns="http://www.w3.org/2000/svg">
<g clip-path="url(#clip0_875_11724)">
<path d="M79.5345 12.1149L80.994 25.7698H76.1476L75.848 16.027L73.9765 25.7698H69.0737L67.1652 16.1024L66.8844 25.7698H62.0376L63.4971 12.1149H69.86L71.4876 21.0111L72.91 12.1149H79.5345Z" fill="#FDDEB2"/>
<path d="M87.2636 12.1337L86.9454 22.6852L91.4929 12.1337H98.3792C98.2916 14.2529 98.2481 16.5224 98.2481 18.9424C98.2481 21.375 98.2916 23.6509 98.3792 25.7698H93.5698L93.9068 15.5006L89.3782 25.7698H82.6787C82.7786 23.3375 82.8285 21.0616 82.8285 18.9424C82.8285 16.8358 82.7786 14.5663 82.6787 12.1337H87.2636Z" fill="#FDDEB2"/>
<path d="M115.501 25.7695H110.766V15.8014H106.575L106.556 16.8921C106.556 17.8449 106.534 18.6821 106.491 19.4031C106.446 20.124 106.356 20.8606 106.219 21.6129C105.969 22.9798 105.336 24.077 104.32 24.9045C103.303 25.732 101.883 26.1457 100.062 26.1457V22.4783C100.549 22.378 100.933 22.1552 101.213 21.8104C101.494 21.4656 101.709 20.9111 101.859 20.1461C101.971 19.5316 102.027 18.1333 102.027 15.9516L102.009 12.1146L115.501 12.1333V25.7695Z" fill="#FDDEB2"/>
<path d="M128.507 21.3216C129.118 20.7887 129.424 19.9576 129.424 18.8294C129.424 17.726 129.118 16.905 128.507 16.3657C127.895 15.8266 126.897 15.5566 125.512 15.5566C124.14 15.5566 123.148 15.8266 122.537 16.3657C121.926 16.905 121.62 17.726 121.62 18.8294C121.62 19.9453 121.926 20.7731 122.537 21.3122C123.148 21.8515 124.14 22.1209 125.512 22.1209C126.897 22.1209 127.895 21.8545 128.507 21.3216ZM119.206 24.0864C117.859 22.8386 117.185 21.0862 117.185 18.8294C117.185 16.5975 117.856 14.8547 119.197 13.6009C120.538 12.347 122.643 11.7199 125.512 11.7199C128.394 11.7199 130.506 12.347 131.847 13.6009C133.188 14.8547 133.858 16.5975 133.858 18.8294C133.858 21.0992 133.191 22.8545 131.856 24.0957C130.521 25.337 128.406 25.9576 125.512 25.9576C122.655 25.9576 120.554 25.3341 119.206 24.0864Z" fill="#FDDEB2"/>
<path d="M143.532 22.3278C144.181 22.3278 144.676 22.2996 145.02 22.2429C145.363 22.1866 145.609 22.0866 145.759 21.9422C145.909 21.7978 145.984 21.6006 145.984 21.3497C145.984 21.0237 145.806 20.7883 145.45 20.6443C145.095 20.5002 144.455 20.428 143.532 20.428H139.939V22.3278H143.532ZM139.939 15.5566V17.3058H143.532C144.305 17.3058 144.845 17.2372 145.151 17.0989C145.457 16.961 145.609 16.7104 145.609 16.3465C145.609 16.0584 145.45 15.8548 145.133 15.7353C144.814 15.6162 144.281 15.5566 143.532 15.5566H139.939ZM150.774 21.7068C150.774 22.5599 150.581 23.2838 150.194 23.8795C149.807 24.4748 149.115 24.9391 148.117 25.2713C147.119 25.6034 145.734 25.7695 143.963 25.7695H135.542C135.642 23.3372 135.692 21.0616 135.692 18.942C135.692 16.8231 135.642 14.5475 135.542 12.1149H139.939V12.1333H143.925C145.472 12.1333 146.692 12.2625 147.584 12.5192C148.476 12.7763 149.106 13.1492 149.474 13.6381C149.842 14.1269 150.026 14.7479 150.026 15.5003C150.026 16.265 149.761 16.9455 149.23 17.5408C148.7 18.1365 147.792 18.616 146.508 18.9796C149.352 18.9796 150.774 19.889 150.774 21.7068Z" fill="#FDDEB2"/>
<path d="M154.46 24.1524C153.125 22.9487 152.457 21.2309 152.457 18.999C152.457 16.7545 153.125 14.9804 154.46 13.6763C155.795 12.3723 157.872 11.7202 160.691 11.7202C164.633 11.7202 167.272 13.0806 168.607 15.8017C167.484 16.1902 166.167 16.7733 164.658 17.5506C164.296 16.8484 163.726 16.3281 162.946 15.9895C162.166 15.6512 161.371 15.4815 160.56 15.4815C159.362 15.4815 158.47 15.7985 157.884 16.4314C157.298 17.0646 157.004 17.8452 157.004 18.7734C157.004 19.7763 157.32 20.5944 157.95 21.2277C158.579 21.8609 159.543 22.1776 160.841 22.1776C161.876 22.1776 162.7 22.0053 163.311 21.6602C163.922 21.3154 164.371 20.7667 164.658 20.0143C165.681 20.5666 166.991 21.1872 168.588 21.8765C167.964 23.3935 166.923 24.4535 165.463 25.0553C164.003 25.6572 162.413 25.9576 160.691 25.9576C157.872 25.9576 155.795 25.3561 154.46 24.1524Z" fill="#FDDEB2"/>
<path d="M184.037 21.2465C184.43 21.9801 184.814 22.8798 185.188 23.9455C185.5 24.8106 185.75 25.4189 185.937 25.7698H180.435C180.36 25.5568 180.26 25.1868 180.135 24.66C180.011 24.0835 179.876 23.6008 179.733 23.2119C179.59 22.8231 179.387 22.4848 179.125 22.1963C178.701 21.7447 178.174 21.4533 177.544 21.3216C176.914 21.1898 176.05 21.1241 174.952 21.1241V25.7698H170.292C170.392 23.3375 170.442 21.0616 170.442 18.9424C170.442 16.8235 170.392 14.5475 170.292 12.1149H174.952V17.0242C175.077 17.0365 175.264 17.043 175.514 17.043C177.46 15.1121 178.907 13.4691 179.855 12.1149H185.918L180.098 17.9456C180.922 18.2716 181.67 18.7044 182.344 19.2435C183.08 19.8453 183.644 20.5129 184.037 21.2465Z" fill="#FDDEB2"/>
<path d="M192.205 12.1337L191.887 22.6852L196.435 12.1337H203.321C203.233 14.2529 203.19 16.5224 203.19 18.9424C203.19 21.375 203.233 23.6509 203.321 25.7698H198.511L198.848 15.5006L194.32 25.7698H187.62C187.72 23.3375 187.77 21.0616 187.77 18.9424C187.77 16.8358 187.72 14.5663 187.62 12.1337H192.205Z" fill="#FDDEB2"/>
<path d="M209.42 22.3278C214.161 22.3029 217.598 22.2336 219.731 22.1209C219.643 22.635 219.591 23.1647 219.572 23.7099C219.553 24.2557 219.544 24.942 219.544 25.7695H205.004C205.104 23.3372 205.153 21.0616 205.153 18.9421C205.153 16.8231 205.104 14.5475 205.004 12.1149H219.544V15.5191H209.42V17.3246C210.019 17.3372 210.905 17.3434 212.077 17.3434C214.061 17.3434 216.113 17.3058 218.234 17.2304V20.4656C216.113 20.3905 214.061 20.3529 212.077 20.3529C210.905 20.3529 210.019 20.3594 209.42 20.3717V22.3278Z" fill="#FDDEB2"/>
<path d="M77.0269 37.7507C77.0269 40.1833 77.0704 42.4593 77.1577 44.5782H72.7603V34.7224H66.435V44.5782H62.0376C62.1375 42.1459 62.1874 39.8699 62.1874 37.7507C62.1874 35.6318 62.1375 33.3558 62.0376 30.9232H77.1577C77.0704 33.0425 77.0269 35.3184 77.0269 37.7507Z" fill="#FDDEB2"/>
<path d="M86.0255 37.6374C87.0608 37.6374 87.8374 37.5972 88.3556 37.515C88.873 37.4341 89.2347 37.2868 89.4408 37.0734C89.6467 36.8604 89.7497 36.5467 89.7497 36.1329C89.7497 35.7192 89.6528 35.409 89.4595 35.2018C89.2656 34.995 88.9103 34.8541 88.3927 34.7787C87.8751 34.7036 87.0859 34.6657 86.0255 34.6657H83.4432V37.6374H86.0255ZM87.3355 30.9417C89.8177 30.9417 91.5458 31.3839 92.5189 32.2677C93.492 33.1519 93.9787 34.3964 93.9787 36.0012C93.9787 37.1048 93.7851 38.0417 93.3986 38.8129C93.0117 39.5844 92.3321 40.1862 91.359 40.6184C90.3859 41.0513 89.0446 41.2675 87.3355 41.2675H83.4432V44.5778H78.8396C78.9395 42.1455 78.9894 39.8696 78.9894 37.7504C78.9894 35.6314 78.9395 33.3555 78.8396 30.9229H83.4432V30.9417H87.3355Z" fill="#FDDEB2"/>
<path d="M106.984 40.1299C107.595 39.597 107.901 38.766 107.901 37.6377C107.901 36.5344 107.595 35.7134 106.984 35.174C106.373 34.635 105.375 34.365 103.99 34.365C102.618 34.365 101.626 34.635 101.015 35.174C100.403 35.7134 100.098 36.5344 100.098 37.6377C100.098 38.7537 100.403 39.5815 101.015 40.1205C101.626 40.6599 102.618 40.9292 103.99 40.9292C105.375 40.9292 106.373 40.6628 106.984 40.1299ZM97.6838 42.8947C96.3364 41.647 95.6626 39.8946 95.6626 37.6377C95.6626 35.4058 96.3332 33.6631 97.6742 32.4092C99.0154 31.1554 101.12 30.5283 103.99 30.5283C106.872 30.5283 108.983 31.1554 110.324 32.4092C111.665 33.6631 112.336 35.4058 112.336 37.6377C112.336 39.9075 111.668 41.6628 110.334 42.9041C108.999 44.1453 106.884 44.766 103.99 44.766C101.133 44.766 99.0312 44.1424 97.6838 42.8947Z" fill="#FDDEB2"/>
<path d="M116.026 42.9604C114.691 41.7567 114.024 40.0389 114.024 37.807C114.024 35.5625 114.691 33.7884 116.026 32.4843C117.361 31.1803 119.438 30.5283 122.258 30.5283C126.2 30.5283 128.838 31.8886 130.173 34.6097C129.051 34.9982 127.734 35.5813 126.225 36.3586C125.863 35.6564 125.293 35.1361 124.512 34.7975C123.733 34.4592 122.937 34.2895 122.127 34.2895C120.929 34.2895 120.037 34.6065 119.451 35.2394C118.864 35.8727 118.571 36.6532 118.571 37.5811C118.571 38.5844 118.886 39.4025 119.516 40.0357C120.146 40.669 121.11 40.9856 122.407 40.9856C123.443 40.9856 124.266 40.8133 124.878 40.4682C125.489 40.1234 125.938 39.5747 126.225 38.8223C127.248 39.3746 128.557 39.9952 130.155 40.6845C129.531 42.2016 128.489 43.2615 127.03 43.8633C125.57 44.4652 123.979 44.7656 122.258 44.7656C119.438 44.7656 117.361 44.1641 116.026 42.9604Z" fill="#FDDEB2"/>
<path d="M147.928 34.8729C145.97 34.8104 144.067 34.7726 142.221 34.7603V44.5782H137.542V34.7603C135.684 34.7726 133.788 34.8104 131.854 34.8729V30.9232H147.928V34.8729Z" fill="#FDDEB2"/>
<path d="M160.935 40.1299C161.546 39.597 161.851 38.766 161.851 37.6377C161.851 36.5344 161.546 35.7134 160.935 35.174C160.323 34.635 159.325 34.365 157.94 34.365C156.568 34.365 155.576 34.635 154.965 35.174C154.354 35.7134 154.048 36.5344 154.048 37.6377C154.048 38.7537 154.354 39.5815 154.965 40.1205C155.576 40.6599 156.568 40.9292 157.94 40.9292C159.325 40.9292 160.323 40.6628 160.935 40.1299ZM151.634 42.8947C150.287 41.647 149.613 39.8946 149.613 37.6377C149.613 35.4058 150.284 33.6631 151.625 32.4092C152.966 31.1554 155.071 30.5283 157.94 30.5283C160.822 30.5283 162.934 31.1554 164.275 32.4092C165.616 33.6631 166.286 35.4058 166.286 37.6377C166.286 39.9075 165.619 41.6628 164.284 42.9041C162.949 44.1453 160.834 44.766 157.94 44.766C155.083 44.766 152.982 44.1424 151.634 42.8947Z" fill="#FDDEB2"/>
<path d="M175.156 37.6374C176.191 37.6374 176.968 37.5972 177.486 37.515C178.003 37.4341 178.365 37.2868 178.571 37.0734C178.777 36.8604 178.88 36.5467 178.88 36.1329C178.88 35.7192 178.783 35.409 178.59 35.2018C178.396 34.995 178.041 34.8541 177.523 34.7787C177.005 34.7036 176.216 34.6657 175.156 34.6657H172.574V37.6374H175.156ZM176.466 30.9417C178.948 30.9417 180.676 31.3839 181.649 32.2677C182.622 33.1519 183.109 34.3964 183.109 36.0012C183.109 37.1048 182.915 38.0417 182.529 38.8129C182.142 39.5844 181.462 40.1862 180.489 40.6184C179.516 41.0513 178.175 41.2675 176.466 41.2675H172.574V44.5778H167.97C168.07 42.1455 168.12 39.8696 168.12 37.7504C168.12 35.6314 168.07 33.3555 167.97 30.9229H172.574V30.9417H176.466Z" fill="#FDDEB2"/>
<path d="M204.704 40.5152C204.704 42.3838 204.716 43.7381 204.741 44.5779H200.325L200.343 42.4525C200.369 40.1202 200.381 38.3215 200.381 37.0547C200.381 35.851 200.369 34.1458 200.343 31.9385L200.325 29.9077H204.741C204.729 30.3088 204.722 30.9359 204.722 31.7883V37.0547C204.71 37.8071 204.704 38.9606 204.704 40.5152ZM191.979 40.835C192.852 40.835 193.51 40.7946 193.953 40.713C194.395 40.6314 194.705 40.4906 194.879 40.2895C195.054 40.0891 195.141 39.7819 195.141 39.3678C195.141 38.9544 195.048 38.641 194.86 38.4277C194.674 38.2146 194.358 38.0673 193.915 37.9858C193.472 37.9042 192.827 37.8631 191.979 37.8631H189.396V40.835H191.979ZM192.727 34.2335C194.436 34.2335 195.777 34.4498 196.751 34.8823C197.724 35.3149 198.404 35.9167 198.79 36.6875C199.177 37.459 199.37 38.3966 199.37 39.4996C199.37 41.1047 198.884 42.3492 197.911 43.2334C196.938 44.1169 195.21 44.5591 192.727 44.5591H189.396V44.5779H184.793C184.893 42.1456 184.943 39.87 184.943 37.7504C184.943 35.6315 184.893 33.3559 184.793 30.9232H189.396V34.2335H192.727Z" fill="#FDDEB2"/>
<path d="M47.8985 25.5575H48.6197C48.2312 26.4202 46.9425 26.2827 45.8218 26.2189C45.8866 25.856 45.97 25.4888 46.0145 25.1168C46.1024 24.3764 46.5089 23.8594 47.2404 23.7111C47.9542 23.5668 48.6806 23.4256 49.4343 23.6794C49.3 24.6205 48.6168 25.0822 47.8985 25.5575ZM43.6708 32.361C43.5838 33.1755 42.9625 33.6317 42.2245 33.8583C41.7507 34.0037 41.2592 34.0652 41.0778 34.6661C41.0089 34.6466 40.9403 34.6272 40.8714 34.6075C40.7316 33.6058 40.5718 32.6061 40.4626 31.6008C40.4246 31.2522 40.5805 30.9274 40.9748 30.6571C41.0521 31.0213 41.1152 31.3179 41.178 31.6141C41.218 31.6351 41.2576 31.6565 41.2972 31.6779C41.5874 30.5875 41.8879 29.5052 43.1165 29.0827C43.6212 30.1362 43.7906 31.2402 43.6708 32.361ZM45.0101 20.3711C44.5267 20.5229 44.0103 20.566 43.7732 21.1646C43.5629 20.0684 42.9986 19.08 43.2421 17.9643C43.3001 17.6972 43.4666 17.4544 43.5832 17.2003C43.6386 17.2158 43.694 17.2314 43.7494 17.2466C43.8135 17.5444 43.8776 17.8426 43.942 18.1404C43.9829 18.1602 44.0238 18.1799 44.0647 18.1997C44.3228 17.1003 44.6513 16.0536 45.8734 15.5929C45.9868 15.881 46.1359 16.1471 46.1945 16.432C46.3137 17.0099 46.4158 17.5953 46.4667 18.1829C46.5614 19.2761 46.0592 20.0418 45.0101 20.3711ZM42.5431 24.0155C42.3759 24.671 42.1237 25.3046 41.9076 25.9476C41.8728 25.9712 41.8377 25.9952 41.8029 26.0188C41.6824 25.3215 41.1158 25.2787 40.6469 25.0709C39.7462 24.6714 39.3178 23.9931 39.4161 23.0157C39.5114 22.0639 39.6834 21.1166 40.2565 20.2539C41.3871 20.7994 41.6808 21.8341 41.79 22.9824C41.8364 22.9798 41.8828 22.9772 41.9292 22.9746C42.0242 22.682 42.1192 22.389 42.2142 22.0963C42.2626 22.0833 42.3109 22.0704 42.3595 22.0574C42.4587 22.2837 42.6304 22.5062 42.6417 22.7363C42.6629 23.1614 42.6475 23.6059 42.5431 24.0155ZM39.332 15.7289C39.4096 16.0798 39.4773 16.3845 39.5449 16.6894C39.5839 16.7085 39.6229 16.7273 39.6615 16.7464C39.9418 15.6606 40.2404 14.589 41.4711 14.1496C41.9778 15.1571 42.1121 16.2213 42.0525 17.2968C42.0042 18.1683 41.3903 18.6614 40.6192 18.9165C40.1395 19.0751 39.6093 19.1004 39.4315 19.753C38.6714 18.3347 38.6034 16.3611 39.332 15.7289ZM38.4221 20.4335C38.2291 21.4041 37.9618 22.3602 37.6303 23.3518C37.4158 22.6978 36.8695 22.637 36.3928 22.434C35.4252 22.0215 35.0299 21.2536 35.18 20.1953C35.306 19.3092 35.4574 18.4289 35.9876 17.6267C37.1681 18.1466 37.3949 19.237 37.544 20.3762C37.5897 20.3639 37.6355 20.3516 37.6812 20.339C37.7743 20.0353 37.8674 19.7317 37.9714 19.392C38.3866 19.6711 38.4949 20.0674 38.4221 20.4335ZM35.1939 13.7314C35.2535 13.4675 35.4174 13.2276 35.5334 12.9767C35.5917 12.9926 35.6503 13.0081 35.7086 13.024C35.7692 13.3208 35.8301 13.6174 35.8906 13.9139L35.9924 13.924C36.1773 13.4176 36.3032 12.8773 36.5638 12.4137C36.826 11.9469 37.2151 11.5474 37.8323 11.3787C37.9421 11.6604 38.0916 11.9274 38.1486 12.213C38.2674 12.8067 38.3718 13.4079 38.4201 14.0107C38.5058 15.084 37.9141 15.9157 36.8669 16.1815C36.4073 16.298 35.9628 16.3747 35.7344 16.9199C35.5247 15.8351 34.9407 14.8486 35.1939 13.7314ZM34.5751 13.2771C34.1351 13.8382 33.6349 14.3513 33.0918 14.9036C33.1781 14.1914 32.6276 13.8991 32.2782 13.4681C31.6001 12.6326 31.5637 11.9058 32.148 11.0015C32.6309 10.2543 33.1108 9.49449 33.9177 9.00984C34.7693 9.96101 34.541 11.0439 34.2546 12.135C34.2991 12.1469 34.3435 12.1589 34.3883 12.1709C34.5777 11.941 34.7674 11.7115 34.9568 11.482C35.017 11.4897 35.0776 11.4978 35.1378 11.5059C35.1378 11.7478 35.201 12.0129 35.1237 12.2266C34.99 12.5963 34.8154 12.9706 34.5751 13.2771ZM34.378 19.0288C34.2127 19.7482 33.6629 20.158 33 20.3678C32.5159 20.521 31.9925 20.5579 31.8098 21.1989C31.7464 21.1788 31.6829 21.1584 31.6194 21.138C31.4722 20.126 31.2928 19.1169 31.1962 18.0997C31.1662 17.7847 31.2835 17.401 31.7312 17.2171C31.7947 17.548 31.8517 17.8455 31.9084 18.143C31.9564 18.1621 32.004 18.1816 32.0517 18.2007C32.3094 17.0986 32.6322 16.0445 33.8227 15.6065C34.2694 16.2815 34.3358 17.0637 34.4073 17.8361C34.444 18.2308 34.4653 18.6484 34.378 19.0288ZM30.943 15.679C30.8277 16.4327 30.2076 16.8306 29.5351 17.0494C29.0674 17.2016 28.552 17.2158 28.3265 17.8229C28.111 16.7587 27.5847 15.8017 27.7606 14.7236C27.8079 14.4326 27.9803 14.1619 28.0953 13.8816C28.1578 13.8893 28.2202 13.8968 28.2824 13.9042C28.3504 14.204 28.418 14.5035 28.4857 14.8033C28.5336 14.8211 28.582 14.8392 28.63 14.857C28.8722 13.7446 29.2091 12.7035 30.4206 12.2612C30.933 13.3668 31.1218 14.5093 30.943 15.679ZM27.5457 11.875C27.2079 12.7116 26.7801 13.5119 26.3552 14.3983C26.1626 14.07 26.0637 13.7968 25.8775 13.6129C25.6788 13.4173 25.3802 13.3289 25.1554 13.1544C24.3359 12.5176 24.0873 11.7591 24.4757 10.7814C24.7956 9.97526 25.2259 9.21348 25.607 8.43196H25.7986C26.7005 9.21089 26.8667 10.2546 26.7485 11.4007C26.8004 11.4007 26.8519 11.401 26.9038 11.401C27.0474 11.1229 27.1911 10.8445 27.3621 10.5127C27.7596 10.9779 27.7123 11.4635 27.5457 11.875ZM25.2791 18.7808C25.1154 19.5015 24.5595 19.9042 23.9027 20.1244C23.4276 20.2836 22.8874 20.2875 22.7119 20.9476C22.6516 20.9156 22.5917 20.8839 22.5315 20.8518C22.3762 19.9146 22.1949 18.9806 22.0786 18.0388C22.0303 17.6451 22.163 17.2537 22.612 16.9283C22.688 17.2932 22.7508 17.5953 22.8137 17.8973C22.8665 17.9206 22.9196 17.9436 22.9724 17.9669C23.1792 16.8299 23.5455 15.8104 24.7205 15.353C25.1647 16.039 25.2388 16.817 25.3071 17.5885C25.3422 17.9834 25.3657 18.4004 25.2791 18.7808ZM25.1889 25.3917C25.0166 26.1949 24.726 26.9726 24.4219 27.8098C24.1948 27.0516 23.4775 27.0823 22.9724 26.7854C22.2661 26.3707 21.8673 25.7753 21.9559 24.9304C22.0599 23.9429 22.2255 22.9691 22.8033 22.0795C23.9372 22.6648 24.2441 23.6823 24.3272 24.8329C24.3801 24.8252 24.4329 24.8174 24.4854 24.8096C24.5772 24.5127 24.669 24.2155 24.784 23.8436C25.3364 24.3185 25.2965 24.8893 25.1889 25.3917ZM20.2938 11.5681C20.2406 10.6104 20.2419 9.6541 20.6262 8.71459C21.856 9.03154 22.3015 10.0267 22.6568 11.1048C22.7028 11.0851 22.7486 11.065 22.7946 11.0452C22.8227 10.7477 22.851 10.4502 22.8794 10.1527C22.9367 10.1313 22.994 10.1103 23.0517 10.0889C23.1963 10.3278 23.4118 10.5506 23.4695 10.8086C23.5622 11.2243 23.6035 11.6672 23.5703 12.0913C23.521 12.7255 23.388 13.3532 23.2617 14.1707C22.9222 13.3471 22.2387 13.5038 21.6959 13.3166C20.8681 13.0314 20.344 12.4768 20.2938 11.5681ZM19.6905 22.3673C18.6324 22.5771 17.9157 22.1866 17.4135 21.2164C16.8666 20.1597 16.6427 19.4529 16.6243 18.6834C17.8686 18.4548 18.701 19.1538 19.4673 20.0133L19.5623 19.8728C19.4611 19.5769 19.3597 19.281 19.2585 18.9851C19.3175 18.9414 19.3761 18.8977 19.4351 18.854C19.7166 19.1075 20.1092 19.3082 20.2577 19.6248C20.6655 20.4928 20.9705 21.4093 21.2637 22.3903C20.7 21.9649 20.2081 22.265 19.6905 22.3673ZM18.1173 12.3859C19.3487 12.6876 19.7881 13.7032 20.1434 14.7971C20.1917 14.7748 20.24 14.7524 20.2883 14.7301C20.3134 14.44 20.3382 14.15 20.3785 13.6864C20.5847 13.9033 20.785 14.0156 20.8146 14.1626C20.9254 14.7175 21.0498 15.285 21.0382 15.8451C21.0259 16.4437 20.8652 17.0394 20.7628 17.6775C20.6813 17.6254 20.6124 17.5768 20.5392 17.536C20.2761 17.3884 20.0232 17.1491 19.7452 17.1135C18.51 16.9562 17.7791 16.1983 17.7614 14.9619C17.7491 14.0985 17.7401 13.2341 18.1173 12.3859ZM32.7723 30.3508C32.4998 30.5419 32.0205 30.4577 31.6352 30.4557C31.3701 30.4548 31.105 30.3797 30.7787 30.3282C31.1382 29.6428 31.1279 28.692 32.1435 28.2287C32.0714 28.5104 32.0227 28.7007 31.9573 28.9561C32.2798 28.724 32.5336 28.4773 32.8367 28.3417C33.1259 28.2122 33.4667 28.1979 33.8948 28.1105C33.7376 29.0678 33.4758 29.8581 32.7723 30.3508ZM16.4816 15.2112C16.4427 15.6952 16.3293 16.173 16.1979 16.7322C15.918 16.0367 15.295 16.1614 14.7832 16.0173C13.775 15.7337 13.2647 15.0432 13.2544 13.9755C13.2461 13.114 13.2132 12.2486 13.6107 11.38C14.8324 11.707 15.2931 12.6863 15.6145 13.7932C15.6657 13.7679 15.717 13.743 15.7679 13.7178C15.8001 13.417 15.8326 13.1159 15.87 12.7669C16.3187 12.934 16.4514 13.2914 16.4849 13.6381C16.5351 14.1581 16.5235 14.6893 16.4816 15.2112ZM15.5411 20.3241C15.0392 19.7815 14.5558 20.1062 14.0594 20.2244C13.2019 20.4284 12.3728 20.1244 11.9399 19.3908C11.4291 18.5241 10.9968 17.6153 10.9417 16.557C12.2005 16.297 13.0254 17.0125 13.7959 17.862C13.8291 17.8203 13.8623 17.7788 13.8951 17.7371C13.7978 17.4525 13.7006 17.1679 13.603 16.8837C13.6426 16.8383 13.6819 16.793 13.7212 16.7477C13.9499 16.9015 14.2314 17.0132 14.395 17.2194C14.6392 17.5266 14.8479 17.8824 14.9858 18.2499C15.2238 18.8831 15.3958 19.5416 15.5955 20.1894C15.5772 20.2341 15.5591 20.2791 15.5411 20.3241ZM9.87842 24.6267C10.7639 24.9278 11.0168 25.5601 11.2941 26.2046C11.3269 26.0324 11.3595 25.8605 11.3949 25.6743C11.9148 26.0243 11.9399 26.8793 11.5199 28.0568C11.2558 27.9474 10.9981 27.8133 10.7249 27.7317C9.98311 27.5106 9.63104 27.0639 9.67936 26.284C9.71253 25.7524 9.80433 25.2247 9.87842 24.6267ZM12.5629 28.3896C12.95 28.8347 13.3788 29.1886 13.6204 29.6431C13.8648 30.1035 13.9238 30.6629 14.157 31.2042C14.2533 30.9109 14.3496 30.6176 14.4459 30.3243C14.4936 30.313 14.5413 30.3013 14.5889 30.2897C14.6859 30.5182 14.8537 30.7429 14.8647 30.9753C14.8846 31.4004 14.8692 31.8446 14.7651 32.2545C14.5986 32.911 14.348 33.5462 14.0584 34.2517C13.9157 33.5316 13.3118 33.5164 12.8392 33.293C11.8481 32.8246 11.4597 32.0185 11.6713 30.9346C11.833 30.1064 11.9476 29.2611 12.5629 28.3896ZM7.13889 31.6361C7.17207 31.6021 7.20492 31.5681 7.2381 31.5341L6.94627 30.6778C6.99104 30.6257 7.03581 30.5733 7.08091 30.5208C7.32024 30.6943 7.614 30.8258 7.78568 31.0514C8.03306 31.3765 8.23502 31.7536 8.3774 32.1379C8.60062 32.7424 8.75813 33.3714 8.91371 34.0513C8.41315 33.643 7.94931 33.8628 7.45649 33.9985C6.49306 34.2643 5.62852 33.8726 5.16501 32.9767C4.74079 32.157 4.31368 31.3295 4.30305 30.3411C5.54542 30.0783 6.3668 30.7973 7.13889 31.6361ZM28.1088 0C12.5848 0 0 12.6487 0 28.2517C0 43.4991 12.0185 55.9229 27.0529 56.4813C26.9585 55.5457 26.8735 54.6088 26.7559 53.6764C26.5127 51.7411 26.2354 49.8099 25.6173 47.8904C24.17 48.4463 23.1003 47.9021 22.2902 46.7088C21.9688 46.2351 21.8599 45.7003 22.0425 45.146C22.0889 45.1331 22.1353 45.1205 22.1817 45.1075C22.2387 45.2846 22.3038 45.4597 22.3514 45.6394C22.4912 46.1674 22.7438 46.2986 23.223 46.0428C23.5854 45.8499 23.9252 45.6132 24.3691 45.3377C23.4778 44.3597 22.6243 43.4224 21.7011 42.4091C21.6074 42.6758 21.5452 42.8024 21.5181 42.9365C21.2443 44.2952 20.4613 45.0146 19.0112 44.8165C18.2329 44.7103 17.4638 44.5393 16.6176 44.3846C17.0982 43.0673 18.0941 42.6781 19.2247 42.4657C19.2122 42.4156 19.1996 42.3657 19.1867 42.3155C18.891 42.2482 18.5953 42.1812 18.2813 42.1096C18.614 41.544 19.2537 41.42 20.5415 41.5618C20.163 41.3041 19.7907 41.0367 19.4045 40.7913C19.0141 40.5433 18.6105 40.3157 18.2117 40.081C17.7997 39.8389 17.3864 39.5986 16.9255 39.3293C16.8447 39.485 16.7509 39.6103 16.711 39.7511C16.212 41.5159 15.6944 41.907 13.9144 41.7234C13.2151 41.6512 12.5287 41.4505 11.7753 41.296C12.281 40.0101 13.2644 39.5977 14.4005 39.3905C14.3905 39.339 14.3809 39.2872 14.3709 39.2357C14.0697 39.1778 13.7682 39.1198 13.3649 39.0424C14.0066 38.2939 14.7626 38.5018 15.5308 38.5063C15.0734 38.1839 14.6385 37.8805 14.2072 37.5723C14.0256 37.4422 13.8275 37.3234 13.6777 37.1615C13.219 36.6642 12.7854 36.6001 12.195 37.0132C11.2954 37.6423 9.76117 36.5658 9.62299 35.7354C9.59657 35.5761 9.6333 35.4065 9.64103 35.2417C9.69578 35.2109 9.75054 35.1798 9.8053 35.1491C9.84041 35.232 9.87101 35.3171 9.91095 35.398C10.2131 36.007 10.2563 36.0135 10.7968 35.5729C10.981 35.4226 11.1746 35.2841 11.3769 35.1306C11.0126 34.6871 10.6305 34.2581 10.2888 33.7991C9.44486 32.664 8.79904 31.4224 8.274 30.1045C8.09909 29.6658 7.834 29.2239 7.26838 29.061C6.03824 28.7065 5.52287 27.9121 5.69552 26.6472C5.81406 25.7783 5.96899 24.9058 6.5082 24.1327C7.65845 24.6539 7.90486 25.7352 8.0759 26.8647C8.11907 26.8499 8.16223 26.835 8.20539 26.8201C8.29333 26.53 8.38126 26.2399 8.49142 25.8764C9.03611 26.3506 8.95043 26.9013 8.90888 27.4297C8.89148 27.6502 8.85959 27.8959 8.74911 28.0778C8.18188 29.0115 8.65215 29.7817 9.11341 30.5956C9.37883 30.3965 9.64071 30.2003 9.92062 29.9905C9.80756 29.8396 9.71737 29.7189 9.62685 29.5985C9.65327 29.5515 9.67936 29.5049 9.70545 29.4583C9.8665 29.5473 10.0623 29.6033 10.1825 29.7312C10.7098 30.2939 10.6592 31.0692 10.1139 31.6164C10.016 31.7148 9.93511 31.9783 9.99374 32.0654C11.1788 33.8217 12.6688 35.2731 14.4337 36.5053C14.8956 35.446 15.0173 34.1859 16.2626 33.744C16.3109 33.7693 16.3589 33.7945 16.4069 33.8201C16.3009 34.1095 16.195 34.3993 16.089 34.689C16.1186 34.7269 16.1486 34.7651 16.1785 34.8033C16.9925 34.0124 17.8506 33.3484 19.0865 33.6475C18.9371 34.7881 18.4555 35.7357 17.8168 36.6014C17.312 37.2858 16.5676 37.2848 15.8152 37.1835C15.7234 37.1709 15.6345 37.1369 15.544 37.1126C15.5259 37.1485 15.5076 37.1841 15.4895 37.2198C16.7171 37.9174 17.9443 38.6151 19.2054 39.3319C19.3478 38.9787 19.4763 38.6782 19.5906 38.3726C19.8106 37.784 19.6921 37.6202 19.0695 37.6241C18.9683 37.6248 18.8672 37.6002 18.6694 37.5749C19.034 37.2159 19.4035 37.1683 19.7678 37.2447C20.5663 37.4127 21.1954 37.8676 21.4544 38.6494C21.5742 39.0104 21.5007 39.4695 21.4105 39.8596C21.2856 40.3986 21.3857 40.7638 21.8663 41.0782C22.382 41.4155 22.8446 41.8354 23.3889 42.266C23.5832 40.241 23.4469 38.3014 23.0414 36.3359C22.0103 36.5405 21.2869 36.1485 20.8243 35.2808C20.6159 34.8904 20.497 34.4644 20.8336 33.9014C20.9132 34.1704 20.9725 34.3171 20.9986 34.4695C21.0527 34.7832 21.2015 34.8859 21.4991 34.7425C21.742 34.6256 21.99 34.5191 22.2664 34.3944C21.6692 33.3141 20.9493 32.3558 20.0371 31.5743C19.0791 30.7536 18.0497 30.0184 17.0672 29.2265C16.4955 28.7658 15.9308 28.2902 15.4081 27.7751C15.1249 27.4961 14.8994 27.431 14.5316 27.5935C13.8046 27.9153 12.7787 27.2869 12.6933 26.4928C12.6801 26.3675 12.7375 26.2344 12.7619 26.1046L12.8837 26.0829C12.9777 26.2496 13.0715 26.416 13.1936 26.6329C13.439 26.4873 13.6777 26.3458 13.9589 26.1791C13.7833 25.9191 13.5891 25.6863 13.4554 25.4225C13.1163 24.7543 12.7877 24.0792 12.4869 23.3926C12.2756 22.9108 12.0797 22.8127 11.5582 22.9468C11.1765 23.0449 10.78 23.1358 10.3899 23.1362C9.84041 23.1368 9.35016 22.9066 9.04609 22.4291C8.46823 21.522 8.01245 20.5614 7.94126 19.4205C9.17204 19.2133 10.0134 19.8479 10.7565 20.7168L10.8776 20.6226C10.7852 20.3461 10.6924 20.0697 10.599 19.7903C11.086 19.6556 11.3765 19.9042 11.9248 20.8994C11.9625 20.8764 12.0005 20.8531 12.0382 20.8298C12.1319 20.9315 12.2746 21.0182 12.3107 21.1374C12.4724 21.6699 12.6038 22.2119 12.7587 22.7988C12.9723 22.6687 13.1311 22.5719 13.2944 22.4722C13.2528 22.3495 13.2155 22.2391 13.1781 22.1283L13.257 22.0439C13.3826 22.1271 13.5405 22.185 13.6287 22.298C13.9927 22.7632 13.8555 23.3146 13.2126 23.8345C13.7292 24.5807 14.2491 25.3321 14.8186 26.1548C15.2361 25.0469 15.4438 23.9222 16.577 23.4952C16.6301 23.5273 16.683 23.5593 16.7361 23.5914C16.625 23.8856 16.5135 24.1802 16.4024 24.4745C16.432 24.5079 16.462 24.5409 16.4916 24.5742C17.2975 23.7943 18.1341 23.096 19.4048 23.4042C19.3806 23.5797 19.3954 23.7785 19.3246 23.9384C18.9828 24.7093 18.6826 25.5096 18.2439 26.2228C17.7739 26.9865 16.892 27.1723 15.9418 26.8625C15.8078 26.8188 15.6757 26.7699 15.478 26.8152C16.1309 27.3675 16.7838 27.9198 17.4741 28.5039C17.6367 28.1034 17.7359 27.7499 17.917 27.4449C18.0864 27.1594 18.3425 26.9256 18.5605 26.6692C18.6143 26.7009 18.6678 26.7327 18.7213 26.7644C18.6787 26.9457 18.6362 27.1267 18.5525 27.4834C19.131 26.8897 19.6741 26.4937 20.5312 26.6938C20.3283 27.2416 20.1337 27.7674 19.9353 28.3038C20.1128 28.4469 20.3379 28.5942 20.5209 28.7833C20.8787 29.1533 21.0069 29.579 20.8369 30.1022C20.5827 30.8831 20.6014 30.8892 21.349 31.4393C21.8083 30.4101 21.9179 29.1271 23.1705 28.6742C23.2205 28.7014 23.2704 28.7289 23.3203 28.7561C23.2105 29.0497 23.1003 29.343 22.9905 29.6367C23.0179 29.6713 23.0452 29.7063 23.0729 29.7409C23.8921 28.9707 24.7341 28.264 25.9774 28.5783C25.9613 29.4262 25.5409 30.1122 25.2059 30.829C25.1412 30.9676 25.1225 31.1278 25.0855 31.2793C25.4675 30.7342 25.7809 30.5826 26.37 30.7309C26.1513 30.8844 25.9861 31.0003 25.7452 31.1693C25.9742 31.4289 26.1955 31.6801 26.4841 32.0075C27.1943 30.9873 27.8801 30.03 28.5198 29.0426C28.5858 28.9406 28.4232 28.6101 28.2821 28.4738C28.1478 28.3443 27.9023 28.3323 27.7065 28.2662C26.7685 27.949 26.2612 27.228 26.2786 26.2377C26.295 25.2852 26.6522 24.0501 27.1057 23.4033C28.226 23.9261 28.5295 24.9517 28.6499 26.0923C28.7008 26.0861 28.7517 26.0803 28.8026 26.0742C28.8928 25.7792 28.9833 25.4843 29.0983 25.1084C29.7593 25.7449 29.5119 26.4523 29.5631 27.1506C29.8237 26.2784 30.0843 25.406 30.3423 24.5438C29.3563 24.0864 29.1215 23.3485 29.6829 22.9322C29.8839 23.1051 30.0724 23.2666 30.2605 23.4282C30.3091 23.4 30.3577 23.3719 30.4061 23.3437C30.4061 23.0332 30.4454 22.7163 30.3964 22.4136C30.3333 22.0222 30.0202 22.173 29.785 22.2077C29.3956 22.2653 29.01 22.3783 28.6197 22.3951C27.9613 22.4239 27.4401 22.1225 27.1128 21.5498C26.6136 20.6754 26.1755 19.7731 26.1136 18.6873C27.3618 18.472 28.2003 19.1428 28.9514 20.0224C28.9904 19.9871 29.0291 19.9518 29.068 19.9162C28.9698 19.6239 28.8715 19.3315 28.734 18.9216C28.9749 19.0006 29.1598 19.0091 29.2626 19.1059C29.5032 19.3322 29.7654 19.5695 29.9113 19.8576C30.5726 21.1642 31.0174 22.5324 30.8979 24.0304C30.8886 24.1495 30.8966 24.2696 30.8966 24.425C31.7683 22.9691 31.8668 22.8665 32.5648 22.7801C32.4347 23.1167 32.3229 23.4058 32.2112 23.6953C32.236 23.7345 32.2608 23.7736 32.2852 23.8128C33.1098 23.0484 33.9625 22.3624 35.2399 22.6574C35.1581 23.0008 35.1217 23.3528 34.9897 23.6636C34.7465 24.2359 34.4833 24.806 34.1631 25.3376C33.6639 26.1674 32.7433 26.451 31.7786 26.1341C31.6729 26.0991 31.5721 26.0499 31.4674 26.011C30.8883 25.7961 30.6654 25.9091 30.4885 26.509C30.4483 26.6456 30.4144 26.7841 30.3652 26.9683C30.6525 27.0337 30.9198 27.0949 31.2139 27.1619C31.2648 26.9347 31.3076 26.745 31.3798 26.4235C31.5135 26.6229 31.6043 26.7077 31.6343 26.811C31.8746 27.6362 31.0438 28.6204 30.1932 28.51C29.9326 28.476 29.757 28.4896 29.5966 28.7522C28.9134 29.8701 28.2019 30.9705 27.5023 32.0787C27.4295 32.1936 27.3666 32.315 27.2993 32.4338C27.3315 32.4688 27.3641 32.5038 27.3963 32.5387C27.8237 32.2227 28.2144 31.8239 28.6883 31.6144C29.1598 31.4059 29.7148 31.3875 30.3545 31.2622C30.2888 31.6313 30.2911 31.8449 30.2122 32.022C29.8752 32.7767 29.5795 33.5618 29.145 34.2575C28.6763 35.0076 27.7757 35.2057 26.8857 34.9053C26.7047 34.8441 26.5308 34.7586 26.3465 34.7136C26.0908 34.6508 25.8853 34.6949 25.7864 34.9982C25.53 35.7843 25.2546 36.5642 24.9673 37.404C25.4031 37.4325 25.7954 37.561 26.0776 37.4367C26.2425 37.3638 26.2315 36.8876 26.314 36.5318C26.7321 36.8912 26.7543 37.3311 26.6761 37.787C26.5086 38.7631 26.0183 39.2548 24.9628 39.4834C25.0481 41.6816 25.797 43.7063 26.6393 45.7255C26.754 43.336 27.2156 41.0403 28.2847 38.9042C27.2671 38.0932 27.0719 37.0142 27.7242 35.7979C28.4206 36.0711 28.7556 36.6325 28.8802 37.3697C28.917 37.3551 28.954 37.3408 28.9907 37.3263C29.0258 37.1686 29.0609 37.0109 29.0964 36.8533C29.1192 36.8808 29.1424 36.9083 29.1656 36.9362C29.3161 36.8368 29.5009 36.7665 29.6114 36.6331C30.2122 35.9076 30.7945 35.1666 31.3856 34.4278C30.5835 33.6408 30.4415 32.6116 31.0152 31.4474C31.7551 31.6753 32.025 32.2862 32.2762 32.9625C32.3258 32.7844 32.3754 32.6064 32.425 32.4283C32.4643 32.4206 32.504 32.4125 32.5436 32.4047C32.6479 32.6397 32.7526 32.8751 32.8618 33.1211C32.8818 33.1092 32.9346 33.0771 32.9881 33.0464C33.7792 32.5918 34.0842 32.0418 33.7888 31.0472C33.4165 29.7911 34.9649 28.4845 36.2227 28.8785C36.3203 28.9089 36.405 28.9814 36.4894 29.1417C36.337 29.1624 36.185 29.1941 36.032 29.2015C35.5701 29.2236 35.4571 29.3644 35.6107 29.8082C35.7302 30.1534 35.8925 30.4836 36.0584 30.873C36.4379 30.6581 36.8054 30.4519 37.171 30.2421C37.5279 30.0371 37.8828 29.8286 38.328 29.57C38.1041 29.4787 37.9711 29.4142 37.8316 29.3696C36.4472 28.9244 35.9605 28.207 36.1596 26.789C36.2746 25.9706 36.4047 25.1427 36.9214 24.4143C38.0739 24.9268 38.3557 25.9774 38.4968 27.1173C38.5435 27.1105 38.5905 27.1034 38.6375 27.0966C38.7229 26.7994 38.8083 26.5022 38.8968 26.1943C39.5037 26.5459 39.5114 26.8359 38.9996 29.1313C41.5536 27.6262 43.6756 25.7297 45.2872 23.2058C44.5766 22.7739 44.3743 22.1665 44.6822 21.4291C44.805 21.1348 44.9634 20.8049 45.4724 20.8839C45.3574 21.047 45.2717 21.1684 45.1554 21.3336C45.4079 21.5297 45.6672 21.7314 46.0084 21.9963C46.3617 21.0542 46.7019 20.1464 47.0423 19.2386C47.0807 19.2412 47.119 19.2441 47.1573 19.2467V20.1001C47.5545 19.5251 47.8308 18.9349 48.6464 18.8074C48.5134 19.1745 48.4071 19.4675 48.3008 19.7605C48.3246 19.7974 48.3488 19.8343 48.3726 19.8712C49.2008 19.1201 50.044 18.4117 51.3093 18.7261C51.088 19.967 50.6557 21.0927 49.7374 21.9419C49.1708 22.4657 48.4332 22.3925 47.7432 22.151C46.9093 21.859 46.6026 21.9674 46.2506 22.7681C45.6457 24.1443 44.813 25.369 43.7829 26.495C44.0519 26.698 44.3099 26.879 44.5521 27.0791C44.8797 27.3497 45.0907 27.2691 45.2346 26.8884C45.2756 26.7803 45.3455 26.6831 45.4021 26.5811L45.5455 26.6038C45.5551 26.7725 45.5973 26.947 45.5684 27.1082C45.4063 28.0092 43.8431 29.0766 42.832 28.3271C42.4226 28.0234 42.1202 28.1092 41.7504 28.4356C40.1228 29.8717 38.2207 30.9032 36.3912 32.0408C34.4292 33.2613 32.7436 34.7865 31.3824 36.6652C31.299 36.7804 31.2226 36.9009 31.1153 37.0592C31.5006 37.2829 31.8559 37.5173 32.235 37.7025C32.6872 37.9236 32.9153 37.8041 33.0519 37.3201C33.1053 37.1311 33.1437 36.9375 33.1987 36.7044C33.5489 37.0783 33.5205 37.7005 33.1826 38.2891C32.4743 39.5232 31.4362 39.9444 29.8527 39.6096C29.0117 42.0769 28.7105 44.6361 28.5697 47.2439C29.3766 46.0095 30.17 44.7954 30.9546 43.595C29.7763 43.1621 29.6987 42.2087 30.2711 40.5064C31.0097 40.7489 31.3093 41.3404 31.5547 42.0426C31.5992 41.8726 31.6436 41.7027 31.6881 41.5327C31.7283 41.5162 31.7686 41.4994 31.8088 41.4828C31.93 41.7804 32.0508 42.0782 32.1748 42.3829C32.8473 41.8202 33.5537 41.251 34.2279 40.6456C34.349 40.5372 34.3806 40.2785 34.3764 40.0911C34.3715 39.8725 34.2962 39.6511 34.2266 39.4394C33.9782 38.6834 34.3268 38.1211 34.8354 37.6429C35.3636 37.1466 35.9898 36.909 36.7226 37.1485C36.7809 37.1676 36.8347 37.2071 36.8833 37.2463C36.903 37.2622 36.9027 37.303 36.9349 37.4111C36.7793 37.4237 36.6408 37.4393 36.502 37.4451C36.0468 37.4642 35.9231 37.605 36.0575 38.0473C36.1676 38.4102 36.3396 38.754 36.5004 39.1451C37.304 38.6789 38.0983 38.2182 38.9812 37.706C38.7513 37.616 38.6134 37.5513 38.4688 37.5072C37.1852 37.1184 36.6872 36.3754 36.8205 35.041C36.9201 34.0432 37.1658 33.2629 37.6055 32.5772C38.7583 33.0816 39.0273 34.1403 39.1819 35.2728C39.2283 35.2627 39.2744 35.2527 39.3204 35.2426C39.41 34.9419 39.4995 34.6408 39.5945 34.3219C40.1972 34.7726 40.2101 35.3038 39.6747 37.2774C40.2764 36.8708 40.8182 36.5331 41.3304 36.1543C42.9374 34.9662 44.315 33.5524 45.4553 31.9016C45.6701 31.5908 45.6911 31.4186 45.3767 31.1596C44.7943 30.6798 44.8832 29.6134 45.5072 29.1935C45.589 29.1384 45.6991 29.1261 45.8737 29.1718C45.7942 29.3071 45.7146 29.4424 45.6115 29.6176C45.8708 29.8086 46.1337 30.0022 46.4802 30.2576C46.7856 29.3803 46.8913 28.4045 47.4124 27.7784C47.8891 27.2057 48.1855 26.2581 49.2726 26.146C49.1248 26.5086 49.0107 26.7887 48.8967 27.0684L48.9688 27.1571C49.3976 26.8414 49.7957 26.464 50.2637 26.2266C50.753 25.9787 51.309 25.8517 51.9145 26.0424C51.7506 27.2218 51.2745 28.2433 50.5356 29.1125C50.0012 29.7416 49.2375 29.705 48.4931 29.5285C48.3549 29.4955 48.2261 29.4246 48.0905 29.3777C47.6038 29.2093 47.3367 29.3242 47.1702 29.8186C46.6426 31.3833 45.8454 32.7954 44.822 34.0823C44.6433 34.3073 44.4461 34.5175 44.2355 34.7596C44.5028 34.9616 44.7653 35.1549 45.0221 35.3556C45.329 35.5952 45.5394 35.5453 45.6666 35.1649C45.7046 35.0516 45.7764 34.9497 45.8557 34.7988C46.1401 35.1138 46.0354 35.3987 45.914 35.6622C45.4469 36.6775 44.1801 37.1061 43.2218 36.5483C42.8417 36.3269 42.5992 36.3871 42.2503 36.6412C40.9358 37.5998 39.5855 38.5092 38.2465 39.4335C38.0655 39.5588 37.8719 39.6657 37.6503 39.8016C38.0127 39.9017 38.3319 39.9904 38.6514 40.0788C38.6578 40.1328 38.6646 40.1869 38.671 40.241C38.386 40.373 38.1009 40.5048 37.8158 40.6366C37.8152 40.6838 37.8142 40.7311 37.8136 40.7784C38.9452 40.7839 39.991 40.972 40.6784 42.0646C39.6248 42.7671 38.5158 43.2521 37.2505 43.1751C36.5142 43.1301 36.0881 42.5719 35.7611 41.9578C35.65 41.7493 35.5624 41.5282 35.44 41.2601C33.919 42.4233 32.6318 43.7345 31.5592 45.3147C31.9222 45.5326 32.2501 45.7531 32.5987 45.9334C33.1343 46.2105 33.3353 46.1095 33.4951 45.5287C33.5431 45.3548 33.5965 45.1823 33.7122 45.0188C34.0272 45.5407 33.8951 46.0447 33.6375 46.5216C32.9733 47.7499 32.0437 48.1284 30.274 47.8917C29.4887 50.6866 29.2739 53.5657 29.0358 56.4862C44.1305 55.9941 56.2173 43.5425 56.2173 28.2517C56.2173 12.6487 43.6328 0 28.1088 0Z" fill="#FDDEB2"/>
<path d="M19.2161 29.6816C19.3697 29.3615 19.4992 29.0921 19.6277 28.8244C19.1323 28.8914 18.7059 28.9493 18.2417 29.0121C18.5635 29.2333 18.8685 29.4427 19.2161 29.6816Z" fill="#FDDEB2"/>
<path d="M24.8945 31.3525C24.1759 32.3088 23.2579 32.3215 22.2474 31.9349C22.0996 31.8786 21.9395 31.855 21.8757 31.8388C22.7106 33.1554 23.5565 34.489 24.3647 35.7632C24.6059 35.2523 24.8623 34.6129 25.2021 34.0218C25.437 33.6129 25.4402 33.3073 25.1261 32.9573C24.6546 32.4319 24.6929 31.8686 25.0678 31.3052C25.005 31.3169 24.9232 31.3146 24.8945 31.3525Z" fill="#FDDEB2"/>
</g>
<defs>
<clipPath id="clip0_875_11724">
<rect width="220" height="56.6555" fill="white"/>
</clipPath>
</defs>
</svg>
