<svg width="220" height="58" viewBox="0 0 220 58" fill="none" xmlns="http://www.w3.org/2000/svg">
<g clip-path="url(#clip0_875_11797)">
<path d="M0.5 10C0.5 4.75329 4.75329 0.5 10 0.5H75.5V57.5H10C4.75329 57.5 0.5 53.2467 0.5 48V10Z" stroke="#FDDEB2"/>
<path d="M75.5 0.5H210C215.247 0.5 219.5 4.75329 219.5 10V48C219.5 53.2467 215.247 57.5 210 57.5H75.5V0.5Z" stroke="#FDDEB2"/>
<path fill-rule="evenodd" clip-rule="evenodd" d="M30.1016 8.53516L39.6138 8.53506L39.6138 5.38019L26.9885 5.38032L26.988 45.5172L30.1012 45.5172L30.1016 8.53516ZM36.6658 12.0936L49.6978 12.094L49.6974 45.5173L46.5842 45.5172L46.5845 15.2488L36.6657 15.2485L36.6658 12.0936ZM52.9852 22.2593L66.0172 22.2597L66.0169 45.5173L62.9037 45.5172L62.9039 25.4145L52.9851 25.4142L52.9852 22.2593ZM13.9222 32.3719L23.4343 32.3718L23.4343 29.217L10.809 29.2171L10.8085 45.5171L13.9218 45.5172L13.9222 32.3719ZM33.7261 38.3843H43.2386V49.1724H75.5564V52.3273H40.1254V41.5391H36.8393L36.8393 52.3272L1.20029 52.3283L0.200195 49.1734L33.7261 49.1724L33.7261 38.3843Z" fill="#FDDEB2"/>
<path d="M20.4083 35.7552H23.5216V38.9101H20.4083V35.7552Z" fill="#FDDEB2"/>
<path d="M53.27 35.7552H56.3832V38.9101H53.27V35.7552Z" fill="#FDDEB2"/>
<path d="M40.1253 28.7444H43.2385V31.8993H40.1253V28.7444Z" fill="#FDDEB2"/>
<path d="M33.553 28.7444H36.6662V31.8993H33.553V28.7444Z" fill="#FDDEB2"/>
<path d="M53.27 28.7444H56.3832V31.8993H53.27V28.7444Z" fill="#FDDEB2"/>
<path d="M40.1253 21.7336H43.2385V24.8884H40.1253V21.7336Z" fill="#FDDEB2"/>
<path d="M33.553 21.7336H36.6662V24.8884H33.553V21.7336Z" fill="#FDDEB2"/>
<path d="M20.4083 42.4155H23.5216V45.5704H20.4083V42.4155Z" fill="#FDDEB2"/>
<path d="M53.27 42.4155H56.3832V45.5704H53.27V42.4155Z" fill="#FDDEB2"/>
<path d="M95.0563 27.0522L95.8929 30.9099H96.1439L96.8133 26.925L101.206 13.9527H107.104L99.3233 34.4709C98.7097 36.0819 98.1101 37.4808 97.5244 38.6678C96.9667 39.8548 96.3531 40.844 95.6838 41.6353C95.0423 42.3984 94.3172 42.9778 93.5085 43.3735C92.6997 43.7409 91.7515 43.9246 90.6638 43.9246C89.7435 43.9246 88.9905 43.8539 88.4048 43.7126C87.847 43.5995 87.2335 43.3311 86.5642 42.9071L88.0283 38.2015C88.5024 38.4559 88.9347 38.6113 89.3252 38.6678C89.7156 38.7244 90.1339 38.7526 90.5801 38.7526C91.8909 38.7526 92.8112 37.7069 93.3411 35.6155L82.3809 13.9527H89.116L95.0563 27.0522Z" fill="#FDDEB2"/>
<path d="M129.625 19.1247H118.331V43.6278H112.599V13.9527H129.625V19.1247Z" fill="#FDDEB2"/>
<path d="M146.234 37.0569H137.24L135.023 43.6278H129.292L139.834 13.7408H144.059L154.601 43.6278H148.577L146.234 37.0569ZM138.704 32.3937H144.979L142.804 25.7804L141.925 21.1172H141.716L140.838 25.8228L138.704 32.3937Z" fill="#FDDEB2"/>
<path d="M177.754 27.1793L178.089 23.3216H177.88L175.913 27.3065L164.995 43.6278H160.686V13.9527H166.417V30.1045L165.999 34.0894H166.25L168.3 29.9773L179.218 13.9527H183.485V43.6278H177.754V27.1793Z" fill="#FDDEB2"/>
<path d="M199.341 30.9523H197.835V43.6278H192.103V13.9527H197.835V27.0946L199.173 26.5011L207.247 13.9527H213.773L205.239 26.4163L202.98 28.0272L205.323 29.6805L215.07 43.6278H208L199.341 30.9523Z" fill="#FDDEB2"/>
</g>
<defs>
<clipPath id="clip0_875_11797">
<rect width="220" height="58" fill="white"/>
</clipPath>
</defs>
</svg>
