<svg width="60" height="83" viewBox="0 0 60 83" fill="none" xmlns="http://www.w3.org/2000/svg">
<path fill-rule="evenodd" clip-rule="evenodd" d="M30 83C30 83 60 50.8577 60 32.7632C60 14.6686 46.5685 0 30 0C13.4315 0 0 14.6686 0 32.7632C0 50.8577 30 83 30 83ZM30 47C38.8366 47 46 39.8366 46 31C46 22.1634 38.8366 15 30 15C21.1634 15 14 22.1634 14 31C14 39.8366 21.1634 47 30 47Z" fill="#492E16"/>
<circle cx="30.0003" cy="30.0001" r="21.8182" fill="white"/>
<circle cx="30" cy="30" r="24" fill="white"/>
<circle cx="30.0005" cy="30" r="22" fill="#492E16"/>
<path fill-rule="evenodd" clip-rule="evenodd" d="M25.2689 17.68L30.4443 17.68L30.4443 16L23.575 16.0001L23.5748 37.373L25.2686 37.3731L25.2689 17.68ZM28.8403 19.5749L35.9308 19.5751L35.9306 37.3731L34.2368 37.3731L34.2369 21.255L28.8403 21.2549L28.8403 19.5749ZM37.7194 24.9882L44.8099 24.9884L44.8097 37.3731L43.1159 37.3731L43.116 26.6683L37.7194 26.6682L37.7194 24.9882ZM16.4659 30.3732L21.6413 30.3731L21.6413 28.6931L14.7721 28.6932L14.7718 37.373L16.4657 37.3731L16.4659 30.3732ZM27.2409 33.5748H32.4165V39.3195H50V40.9994H30.7226V35.2547H28.9347V40.9994L9.00005 41L9 39.32L27.2409 39.3195L27.2409 33.5748Z" fill="white"/>
<path d="M19.9949 32.1748H21.6888V33.8548H19.9949V32.1748Z" fill="white"/>
<path d="M37.8744 32.1748H39.5682V33.8548H37.8744V32.1748Z" fill="white"/>
<path d="M30.7226 28.4415H32.4164V30.1215H30.7226V28.4415Z" fill="white"/>
<path d="M27.1467 28.4415H28.8405V30.1215H27.1467V28.4415Z" fill="white"/>
<path d="M37.8744 28.4415H39.5682V30.1215H37.8744V28.4415Z" fill="white"/>
<path d="M30.7226 24.7082H32.4164V26.3882H30.7226V24.7082Z" fill="white"/>
<path d="M27.1467 24.7082H28.8405V26.3882H27.1467V24.7082Z" fill="white"/>
<path d="M19.9949 35.7214H21.6888V37.4014H19.9949V35.7214Z" fill="white"/>
<path d="M37.8744 35.7214H39.5682V37.4014H37.8744V35.7214Z" fill="white"/>
</svg>
