<svg width="280" height="369" viewBox="0 0 280 369" fill="none" xmlns="http://www.w3.org/2000/svg">
<path opacity="0.3" fill-rule="evenodd" clip-rule="evenodd" d="M139.203 16.1467C139.203 13.6065 141.027 11.4331 143.529 10.9927L165.369 7.14893L188.081 4.32301L210.793 2.12507L240.354 0.0135686C243.383 -0.202812 245.96 2.19642 245.96 5.23346V99.4624C245.96 102.353 243.617 104.696 240.727 104.696H144.436C141.546 104.696 139.203 102.353 139.203 99.4624V16.1467ZM111.991 23.0427C111.991 20.6018 113.678 18.485 116.058 17.9411L127.571 15.3096C130.847 14.5607 133.97 17.0503 133.97 20.4112V99.4619C133.97 102.352 131.627 104.695 128.737 104.695H117.224C117.191 104.695 117.159 104.695 117.127 104.694H79.4507C79.4123 104.695 79.3737 104.695 79.3351 104.695H67.8221C64.9992 104.695 62.6984 102.46 62.5927 99.6633C62.5902 99.5966 62.5889 99.5296 62.5889 99.4623V99.461V87.948V35.6028C62.5889 33.1618 64.2764 31.0451 66.656 30.5012L78.169 27.8696C81.4454 27.1207 84.5683 29.6103 84.5683 32.9712V82.7148L111.991 82.7148V23.0427ZM0 115.916C0 113.026 2.34298 110.683 5.23319 110.683H100.977C103.867 110.683 106.21 113.026 106.21 115.916V229.548C106.21 232.438 103.867 234.781 100.977 234.781H5.23319C2.34298 234.781 0 232.438 0 229.548V115.916ZM0 246.722C0 243.832 2.34298 241.489 5.23319 241.489H100.977C103.867 241.489 106.21 243.832 106.21 246.722V363.708C106.21 366.598 103.867 368.941 100.977 368.941H5.23319C2.34298 368.941 0 366.598 0 363.708V246.722ZM144.983 241.489C142.093 241.489 139.75 243.832 139.75 246.722V363.708C139.75 366.598 142.093 368.941 144.983 368.941H240.727C243.617 368.941 245.96 366.598 245.96 363.708V246.722C245.96 243.832 243.617 241.489 240.727 241.489H144.983ZM139.75 115.916C139.75 113.026 142.093 110.683 144.983 110.683H240.727C243.617 110.683 245.96 113.026 245.96 115.916V229.548C245.96 232.438 243.617 234.781 240.727 234.781H144.983C142.093 234.781 139.75 232.438 139.75 229.548V115.916ZM117.033 241.489C114.143 241.489 111.8 243.832 111.8 246.722V363.708C111.8 366.598 114.143 368.941 117.033 368.941H128.927C131.817 368.941 134.16 366.598 134.16 363.708V246.722C134.16 243.832 131.817 241.489 128.927 241.489H117.033ZM111.8 115.916C111.8 113.026 114.143 110.683 117.033 110.683H128.927C131.817 110.683 134.16 113.026 134.16 115.916V229.548C134.16 232.438 131.817 234.781 128.927 234.781H117.033C114.143 234.781 111.8 232.438 111.8 229.548V115.916ZM22.1888 70.0515C19.2986 70.0515 16.9556 72.3945 16.9556 75.2847V99.776C16.9556 102.666 19.2986 105.009 22.1888 105.009H51.39C54.2802 105.009 56.6232 102.666 56.6232 99.776V75.2847C56.6232 72.3945 54.2802 70.0515 51.39 70.0515H22.1888Z" fill="#492E16"/>
<path d="M189.352 67.0107V51.4012H186.591V47.6224H193.829V67.0107H189.352Z" fill="#492E16"/>
<path d="M198.16 178.386V182.165H183.335L189.149 175.828C190.166 174.695 191.707 172.805 192.317 171.875C192.753 171.177 193.48 169.927 193.48 168.59C193.48 167.864 193.189 167.108 192.724 166.672C192.346 166.323 191.707 166.12 190.951 166.12C190.108 166.12 189.556 166.41 189.178 166.817C188.654 167.398 188.364 168.445 188.364 169.201H183.887C184.033 167.515 184.701 165.596 185.893 164.346C186.823 163.358 188.48 162.341 191.241 162.341C194.061 162.341 195.573 163.503 196.27 164.172C197.317 165.218 198.072 166.817 198.072 168.823C198.072 170.538 197.549 171.788 196.619 173.096C195.776 174.259 194.759 175.247 193.509 176.439L191.474 178.386H198.16Z" fill="#492E16"/>
<path d="M196.968 292.465V296.244H190.428L189.904 298.831C190.398 298.743 191.009 298.685 191.503 298.685C193.683 298.685 195.369 299.47 196.445 300.575C197.317 301.447 198.218 302.958 198.218 305.255C198.218 307.754 197.142 309.353 196.241 310.254C194.468 311.998 192.346 312.289 190.369 312.289C188.538 312.289 186.358 312.057 183.916 310.167L184.934 306.01C185.457 306.592 186.184 307.231 186.794 307.609C187.608 308.132 188.567 308.452 189.73 308.452C190.747 308.452 191.794 308.22 192.491 307.667C193.102 307.202 193.625 306.359 193.625 305.226C193.625 304.063 193.102 303.365 192.637 302.958C192.404 302.755 191.445 301.941 189.41 301.941C187.782 301.941 186.416 302.435 185.457 302.958L187.434 292.465H196.968Z" fill="#492E16"/>
<path d="M58.336 292.465V304.644H60.6615V308.19H58.336V311.853H54.034V308.19H44.5578V305.632L53.1038 292.465H58.336ZM49.2668 304.644H54.034V297.116L49.2668 304.644Z" fill="#492E16"/>
<path d="M49.6156 168.59H45.3136C45.488 166.962 46.2147 165.247 47.232 164.201C48.6564 162.719 50.5458 162.37 52.1445 162.37C54.5281 162.37 56.2431 163.096 57.2314 164.085C58.0453 164.87 58.7139 166.149 58.7139 168.038C58.7139 168.997 58.5395 169.84 57.9291 170.683C57.5221 171.265 57.028 171.642 56.4757 171.904C57.2896 172.195 58.1616 172.747 58.6848 173.474C59.2662 174.259 59.5859 175.479 59.5859 176.526C59.5859 178.008 59.0046 179.694 57.6384 180.944C55.9815 182.456 54.0921 182.63 52.5224 182.63C50.633 182.63 48.5692 182.339 46.8542 180.624C45.7496 179.491 44.9066 177.776 44.7031 175.828H49.1796C49.2377 176.584 49.5865 177.485 50.1098 178.008C50.5749 178.473 51.3306 178.793 52.2608 178.793C53.0166 178.793 53.7433 178.561 54.2084 178.125C54.6734 177.689 54.9932 176.933 54.9932 176.148C54.9932 175.334 54.6153 174.665 54.1502 174.288C53.4526 173.735 52.4352 173.677 51.7666 173.677H51.4178V170.596H51.6794C51.9411 170.596 52.9875 170.567 53.627 170.044C54.034 169.695 54.3537 169.084 54.3537 168.3C54.3537 167.631 54.0921 167.079 53.7142 166.73C53.3654 166.41 52.784 166.149 52.0573 166.149C51.3016 166.149 50.6911 166.41 50.3132 166.788C49.9063 167.224 49.6447 167.98 49.6156 168.59Z" fill="#492E16"/>
<rect opacity="0.1" x="252.668" y="0.000488281" width="22.36" height="368.94" fill="#492E16"/>
<path fill-rule="evenodd" clip-rule="evenodd" d="M199.901 17.6147H225.551V29.7053V31.6609V33.4917V35.8123V39.5987H210.772V33.4917H214.069V31.6609H199.901V17.6147ZM185.366 17.615H159.717V29.7053H159.717V33.4917V35.8123V39.5987H174.496V33.4917H171.198V31.6611H185.366V17.615ZM174.474 40.3274H159.717V66.0747H174.474V40.3274ZM210.793 40.3274H225.55V66.0747H210.793V40.3274ZM174.474 66.8067H159.717V93.0774H174.474V66.8067ZM210.793 66.8067H225.55V93.0774H210.793V66.8067Z" fill="#492E16"/>
<path fill-rule="evenodd" clip-rule="evenodd" d="M199.901 123.011H225.55V135.104H225.551V138.89V141.211V144.997H210.772V138.89H214.069V137.057H199.901V123.011ZM185.366 123.011H159.717V135.104H159.717V138.89V141.211V144.997H174.496V138.89H171.198V137.057H185.366V123.011ZM174.474 145.723H159.717V171.47H174.474V145.723ZM210.793 145.723H225.55V171.47H210.793V145.723ZM174.474 172.203H159.717V198.474H174.474V172.203ZM159.717 199.207H174.474V221.919H159.717V199.207ZM225.55 172.203H210.793V198.474H225.55V172.203ZM210.793 199.207H225.55V221.919H210.793V199.207Z" fill="#FFB800"/>
<path fill-rule="evenodd" clip-rule="evenodd" d="M199.901 251.853H225.55V263.946H225.551V267.731V270.053V273.838H210.772V267.731H214.069V265.899H199.901V251.853ZM185.366 251.853H159.717V263.946H159.717V267.731V270.053V273.838H174.496V267.731H171.198V265.899H185.366V251.853ZM174.474 274.566H159.717V300.313H174.474V274.566ZM210.793 274.566H225.55V300.313H210.793V274.566ZM174.474 301.045H159.717V327.316H174.474V301.045ZM159.717 328.047H174.474V350.759H159.717V328.047ZM225.55 301.045H210.793V327.316H225.55V301.045ZM210.793 328.047H225.55V350.759H210.793V328.047Z" fill="#492E16"/>
<path fill-rule="evenodd" clip-rule="evenodd" d="M60.6981 123.011H86.3475V137.057H86.3474V138.89V141.211V144.997H71.5684V138.89H74.8662V137.057H60.6981V123.011ZM46.1631 123.011H20.5137V137.057H20.5137V138.89V141.211V144.997H35.2927V138.89H31.9949V137.057H46.1631V123.011ZM35.2714 145.723H20.5138V171.47H35.2714V145.723ZM71.5897 145.723H86.3473V171.47H71.5897V145.723ZM35.2714 172.203H20.5138V198.474H35.2714V172.203ZM20.5138 199.207H35.2714V221.919H20.5138V199.207ZM86.3473 172.203H71.5897V198.474H86.3473V172.203ZM71.5897 199.207H86.3473V221.919H71.5897V199.207Z" fill="#492E16"/>
<path fill-rule="evenodd" clip-rule="evenodd" d="M60.6981 251.853H86.3475V265.899H86.3474V267.731V270.053V273.838H71.5684V267.731H74.8662V265.899H60.6981V251.853ZM46.1631 251.853H20.5137V265.899H20.5137V267.731V270.053V273.838H35.2927V267.731H31.9949V265.899H46.1631V251.853ZM35.2714 274.566H20.5138V300.313H35.2714V274.566ZM71.5897 274.566H86.3473V300.313H71.5897V274.566ZM35.2714 301.045H20.5138V327.316H35.2714V301.045ZM20.5138 328.047H35.2714V350.759H20.5138V328.047ZM86.3473 301.045H71.5897V327.316H86.3473V301.045ZM71.5897 328.047H86.3473V350.759H71.5897V328.047Z" fill="#492E16"/>
<path opacity="0.2" fill-rule="evenodd" clip-rule="evenodd" d="M53.9018 73.0864H19.6768V93.8099H27.736V96.1122H45.7382V93.8099H53.9018V73.0864Z" fill="#D9D9D9"/>
<path d="M267.904 246.224L258.955 244.56L258.955 243.299L264.644 240.925L258.955 238.443L258.955 237.182L267.904 235.679L267.904 237.45L262.39 238.255L267.904 240.656L267.904 241.247L262.39 243.541L267.904 244.453L267.904 246.224ZM258.955 234.094L258.955 232.35L264.912 232.35L258.955 227.44L258.955 226.206L267.904 226.206L267.904 227.95L261.92 227.95L267.904 232.86L267.904 234.094L258.955 234.094ZM258.955 223.305L258.955 217.214L267.904 217.214L267.904 218.958L260.458 218.958L260.458 221.561L264.429 221.561C265.355 221.561 266.576 221.534 267.394 222.527C267.689 222.875 267.984 223.439 267.984 224.311C267.984 224.566 267.957 224.807 267.904 225.049L266.401 225.049C266.441 224.915 266.482 224.74 266.482 224.552C266.482 224.15 266.307 223.895 266.16 223.747C265.704 223.291 264.925 223.305 264.08 223.305L258.955 223.305ZM258.754 210.829C258.754 208.011 260.713 206.053 263.436 206.053C266.16 206.053 268.105 208.011 268.105 210.829C268.105 213.646 266.16 215.605 263.436 215.605C260.713 215.605 258.754 213.646 258.754 210.829ZM266.522 210.829C266.522 209.085 265.247 207.85 263.436 207.85C261.625 207.85 260.337 209.085 260.337 210.829C260.337 212.573 261.625 213.807 263.436 213.807C265.247 213.807 266.522 212.573 266.522 210.829ZM258.955 204.445L258.955 202.232C258.955 201.735 258.955 200.769 259.519 200.045C259.921 199.522 260.619 199.213 261.37 199.213C262.524 199.213 262.994 199.978 263.128 200.219C263.222 199.629 263.477 199.28 263.691 199.052C264.201 198.516 264.899 198.408 265.368 198.408C265.891 198.408 266.629 198.556 267.179 199.173C267.77 199.844 267.904 200.662 267.904 201.44L267.904 204.445L258.955 204.445ZM260.377 202.701L262.672 202.701L262.672 202.205C262.672 201.937 262.645 200.85 261.504 200.85C260.686 200.85 260.377 201.48 260.377 202.192L260.377 202.701ZM264.013 202.701L266.482 202.701L266.482 201.95C266.482 201.628 266.468 201.145 266.24 200.756C265.985 200.327 265.556 200.206 265.207 200.206C264.925 200.206 264.442 200.3 264.188 200.863C264.013 201.239 264.013 201.682 264.013 202.057L264.013 202.701ZM265.543 190.301L267.582 190.301C267.864 190.837 268.105 191.548 268.105 192.514C268.105 194.084 267.568 195.037 266.857 195.788C265.865 196.821 264.751 197.223 263.436 197.223C261.813 197.223 260.646 196.553 259.935 195.788C259.089 194.889 258.754 193.776 258.754 192.501C258.754 191.87 258.861 191.119 259.304 190.301L261.343 190.301C260.404 191.119 260.337 192.139 260.337 192.461C260.337 194.258 261.813 195.426 263.463 195.426C265.449 195.426 266.522 193.896 266.522 192.394C266.522 191.562 266.16 190.824 265.543 190.301ZM258.955 186.953L262.739 186.953L258.955 183.666L258.955 181.466L263.087 185.249L267.904 181.265L267.904 183.572L263.892 186.752L264.094 186.953L267.904 186.953L267.904 188.697L258.955 188.697L258.955 186.953ZM258.754 176.11C258.754 173.292 260.713 171.334 263.436 171.334C266.16 171.334 268.105 173.292 268.105 176.11C268.105 178.927 266.16 180.886 263.436 180.886C260.713 180.886 258.754 178.927 258.754 176.11ZM266.522 176.11C266.522 174.366 265.247 173.131 263.436 173.131C261.625 173.131 260.337 174.366 260.337 176.11C260.337 177.854 261.625 179.088 263.436 179.088C265.247 179.088 266.522 177.854 266.522 176.11ZM258.955 164.762L260.458 164.762L260.458 167.982L262.457 167.982L262.457 164.897L263.96 164.897L263.96 167.982L266.401 167.982L266.401 164.762L267.904 164.762L267.904 169.726L258.955 169.726L258.955 164.762ZM267.904 159.939L258.955 159.939L258.955 158.195L266.401 158.195L266.401 155.324L258.955 155.324L258.955 153.58L266.401 153.58L266.401 150.709L258.955 150.709L258.955 148.965L267.904 148.965L267.904 159.939ZM258.754 142.583C258.754 139.765 260.713 137.807 263.436 137.807C266.16 137.807 268.105 139.765 268.105 142.583C268.105 145.4 266.16 147.359 263.436 147.359C260.713 147.359 258.754 145.4 258.754 142.583ZM266.522 142.583C266.522 140.839 265.247 139.604 263.436 139.604C261.625 139.604 260.337 140.839 260.337 142.583C260.337 144.327 261.625 145.561 263.436 145.561C265.247 145.561 266.522 144.327 266.522 142.583ZM265.543 129.706L267.582 129.706C267.864 130.243 268.105 130.954 268.105 131.92C268.105 133.489 267.568 134.442 266.857 135.193C265.865 136.226 264.751 136.629 263.436 136.629C261.813 136.629 260.646 135.958 259.935 135.193C259.089 134.294 258.754 133.181 258.754 131.906C258.754 131.276 258.861 130.524 259.304 129.706L261.343 129.706C260.404 130.524 260.337 131.544 260.337 131.866C260.337 133.664 261.813 134.831 263.463 134.831C265.449 134.831 266.522 133.302 266.522 131.799C266.522 130.967 266.16 130.229 265.543 129.706ZM265.543 121.609L267.582 121.609C267.864 122.146 268.105 122.857 268.105 123.823C268.105 125.393 267.568 126.345 266.857 127.096C265.865 128.129 264.751 128.532 263.436 128.532C261.813 128.532 260.646 127.861 259.935 127.096C259.089 126.198 258.754 125.084 258.754 123.809C258.754 123.179 258.861 122.428 259.304 121.609L261.343 121.609C260.404 122.428 260.337 123.447 260.337 123.769C260.337 125.567 261.813 126.734 263.463 126.734C265.449 126.734 266.522 125.205 266.522 123.702C266.522 122.87 266.16 122.132 265.543 121.609ZM258.955 115.042L260.458 115.042L260.458 118.262L262.457 118.262L262.457 115.176L263.959 115.176L263.959 118.262L266.401 118.262L266.401 115.042L267.904 115.042L267.904 120.006L258.955 120.006L258.955 115.042Z" fill="white"/>
</svg>
