<svg width="1920" height="1535" viewBox="0 0 1920 1535" fill="none" xmlns="http://www.w3.org/2000/svg">
<g clip-path="url(#clip0_673_19635)">
<path d="M1919.94 1013.46C1900.2 1011.69 1895.78 1011.35 1886.62 1016.85C1885.35 1017.6 1884.28 1018.68 1883.45 1019.9C1861.37 1052.51 1841.04 1062.38 1810.51 1055.56C1798.44 1052.87 1787.79 1047.6 1783.57 1034.33C1788.12 1034.79 1791.89 1036.45 1795.6 1038.23C1807.98 1044.17 1812.75 1042.21 1816.06 1028.82C1818.21 1020.1 1819.36 1011.13 1821.08 1001.59C1777.77 996.433 1735.86 999.01 1692.96 1007.84C1695.72 1013.97 1698.2 1018.8 1700.11 1023.84C1705.74 1038.69 1708.91 1054.42 1698.59 1067.8C1680.85 1090.81 1655.81 1102.69 1627.87 1110.36C1619.54 1082.39 1631.73 1061.65 1648.43 1042.19C1647.35 1040.72 1647.54 1040.99 1646.46 1039.53C1639.95 1042.45 1633.43 1045.38 1626.92 1048.3C1625.61 1046.96 1625.59 1046.94 1624.29 1045.59C1627.58 1038.75 1630.87 1031.91 1634.6 1024.15C1628.93 1025.94 1624.18 1027.68 1619.3 1028.94C1583.25 1038.2 1547.29 1047.89 1511.02 1056.23C1501.39 1058.44 1496.7 1061.73 1494.78 1071.61C1489.93 1096.52 1463.49 1111.97 1439.01 1104.82C1432.65 1102.97 1426.17 1100.51 1425.04 1090.88C1428.83 1091.77 1431.67 1092.06 1434.19 1093.1C1442.64 1096.6 1446.67 1093.72 1447.17 1084.83C1447.59 1077.38 1448.22 1069.95 1448.78 1062.3C1441.45 1062.31 1434.87 1062.57 1428.31 1062.29C1390.78 1060.67 1354.51 1053.27 1319.68 1038.94C1308.67 1034.41 1302.68 1037.29 1298.24 1048.22C1297 1051.27 1296.28 1054.55 1294.76 1057.43C1286.59 1072.93 1275.71 1086.67 1256.85 1086.47C1230.78 1086.2 1206.06 1079.12 1183.33 1064.27C1189.18 1050.95 1199.73 1043.26 1211.36 1038.52C1222.32 1034.07 1234.58 1032.82 1246.29 1030.24C1246.36 1028.83 1246.35 1028.94 1246.42 1027.53C1239.89 1025.31 1233.36 1023.08 1224.91 1020.2C1243.21 1003.11 1263.95 1012.19 1280.97 1012.54C1299.58 1012.93 1317.94 1025.72 1337.61 1033.6L1339.7 1009.01C1335.14 1008.16 1331.62 1007.51 1328.09 1006.86C1329.94 1003.15 1331.81 1001.44 1333.99 1000.85C1350.6 996.369 1370.26 1010.81 1369.73 1028.06C1369.45 1037.37 1372.73 1039.59 1381.3 1040.54C1426.84 1045.59 1471.88 1042.99 1516.51 1033.04C1530.72 1029.88 1544.69 1025.58 1560.74 1021.28C1518.77 1000.95 1509.83 992.765 1511.17 975.605C1518.08 978.744 1524.6 981.704 1531.12 984.667C1532.2 983.202 1532 983.473 1533.09 982.007C1516.24 962.582 1502.56 942.233 1511.15 915.111C1529.56 917.793 1546.66 925.242 1565.31 938.475C1590.24 956.175 1595.51 975.908 1582.85 1003.91C1581.43 1007.05 1580.47 1010.41 1578.55 1015.73C1600.65 1008.16 1620.53 1001.35 1640.65 994.456C1636.35 985.818 1633.03 977.695 1628.46 970.354C1622.88 961.401 1618.6 961.428 1611.41 969.009C1609.22 971.318 1606.87 973.472 1604.31 975.972C1602.94 973.798 1602.23 973.191 1602.25 972.613C1602.31 971.186 1602.45 969.663 1603 968.371C1609.92 952.12 1623.43 944.872 1639.92 943.19C1655.8 941.572 1670.71 943.981 1679.96 959.598C1682.55 963.974 1685.21 968.592 1688.89 971.949C1692.06 974.832 1696.97 978.162 1700.66 977.7C1721.22 975.131 1741.64 971.466 1761.44 968.282C1758.07 961.572 1754.77 955.022 1751.48 948.471C1752.38 947.569 1752.36 947.591 1753.26 946.689C1757.15 948.617 1761.04 950.548 1764.93 952.476C1756.56 937.709 1750.91 923.673 1757.87 907.286C1795.74 922.912 1810.95 938.541 1800.64 965.374C1833.09 969.818 1865.89 974.311 1899.26 978.88C1852.34 942.222 1803.82 909.073 1748.77 886.62C1730.66 918.983 1707.79 930.598 1675.92 924.334C1660.71 921.346 1649.6 912.51 1648.44 900.856C1653.28 903.4 1657.18 905.638 1661.24 907.553C1671.61 912.446 1677.1 910.301 1680.11 899.174C1682.64 889.85 1683.97 880.202 1685.92 870.199C1681.59 869.672 1678.37 869.189 1675.13 868.904C1622.35 864.255 1570.75 870.507 1520.23 886.101C1473.12 900.638 1426.75 918.026 1377.56 924.613C1366.38 926.11 1360.35 930.042 1359.39 941.668C1357.04 970.363 1315.15 981.358 1297.24 970.655C1294.03 968.733 1291.67 965.39 1288.91 962.703C1289.5 961.761 1290.09 960.822 1290.68 959.881C1293.29 960.432 1296.01 960.679 1298.49 961.593C1307.2 964.813 1311.76 962.379 1312.04 952.665C1312.25 945.483 1313.03 938.32 1313.6 930.632C1278.73 931.541 1245.15 927.566 1212.39 917.387C1193.33 911.468 1186.84 915.14 1179.3 933.919C1173.06 949.454 1163.2 963.288 1145.67 965.219C1117.25 968.35 1091.39 958.946 1066.74 944.17C1080.21 917.962 1104.61 913.775 1129.64 910.741C1129.84 909.153 1129.81 909.374 1130.01 907.783C1123.31 905.205 1116.63 902.632 1108.25 899.402C1122.72 887.229 1137.03 891.302 1152.89 893.061L1138.45 880.464C1139.22 879.163 1139.04 879.464 1139.82 878.162C1160.54 885.889 1181.27 893.615 1202.78 901.638C1203.36 891.781 1203.8 884.28 1204.24 876.975L1191.74 875.705C1198.05 865.738 1206.1 867.945 1213.01 870.235C1230.32 875.974 1237.7 888.565 1234.42 907.311C1302.07 917.308 1366.61 909.084 1430.95 887.539C1383.8 861.973 1378.93 857.495 1382.03 841.741C1388.66 844.831 1395.05 847.808 1401.44 850.787C1402.54 849.296 1402.32 849.597 1403.42 848.106C1386.19 828.751 1372.73 808.277 1381.21 780.952C1401.5 782.949 1417.69 793.109 1433.48 803.391C1460.84 821.205 1465.84 840.357 1452.63 870.937C1451.3 874.014 1450.41 877.278 1448.6 882.511C1459.75 878.702 1468.68 875.696 1477.57 872.601C1486.69 869.433 1495.77 866.178 1505.17 862.851C1500.98 854.151 1497.76 846.395 1493.63 839.156C1488.31 829.855 1484.19 829.697 1476.86 837.339C1474.42 839.874 1471.59 842.019 1468.93 844.341C1467.45 840.483 1467.48 837.937 1468.43 835.794C1480.61 808.166 1526.38 801.009 1542.35 826.267C1555 846.269 1569.04 849.251 1588.77 842.402C1590.1 841.939 1591.45 841.504 1591.95 841.335C1589.38 835.765 1586.9 830.434 1584.44 825.102C1585.36 824.184 1585.37 824.175 1586.3 823.256L1598.05 828.847C1590.21 814.376 1583.78 800.56 1591.01 784.366C1619.66 791.901 1635.2 809.784 1636.64 835.432C1658.24 836.293 1679.74 837.342 1701.26 837.841C1705.21 837.932 1723.5 836.738 1724.43 835.644C1714 822.611 1709.63 808.608 1715.33 792.733C1746.06 799.698 1761.66 819.236 1760.26 848.966C1813.07 862.518 1859.47 888.952 1902.25 922.782C1880.25 877.98 1856.74 834.7 1820.25 800.28C1800.43 815.081 1784.6 816.179 1765.3 804.444C1756.29 798.965 1749.06 791.983 1749.19 779.379C1756.54 783.29 1764.56 790.618 1768.3 788.856C1774.68 785.85 1778.38 777.146 1784.46 769.194C1765.7 761.57 1748.15 754.639 1730.79 747.284C1724.09 744.446 1720.23 747.331 1717.45 752.692C1715.45 756.549 1714.31 760.836 1712.63 764.872C1704.38 784.745 1687.41 797.33 1667.46 794.18C1648.96 791.256 1631.02 784.603 1612.99 779.108C1608.75 777.818 1605.11 774.575 1597.78 770.18C1609.57 761.014 1618.25 751.705 1628.94 746.682C1639.57 741.684 1652.18 740.881 1663.95 738.294C1663.94 736.462 1663.94 736.806 1663.93 734.974C1657.66 733.715 1651.47 731.938 1644.83 733.011C1622.43 736.642 1599.54 733.255 1578.87 723.899C1561.73 716.141 1557.83 718.803 1552.92 726.146C1542.01 742.488 1512.58 742.087 1502.02 725.567C1500.7 723.507 1500.61 720.66 1499.2 715.363L1514.39 723.568C1517.66 717.488 1520.64 711.956 1523.84 706.007C1519.94 704.099 1517.05 702.611 1514.09 701.26C1501.12 695.322 1495.82 697.476 1490.79 710.702C1489.89 713.089 1489.21 715.568 1488.21 717.914C1479.13 739.322 1460.39 750.969 1438.62 747.161C1424.66 744.722 1410.9 740.724 1397.4 736.343C1390.07 733.962 1383.48 729.317 1376.34 725.586C1390.28 699.548 1414.33 694.819 1439.42 692.017C1439.63 690.288 1439.59 690.568 1439.8 688.838L1418.74 681.223C1430.75 670.468 1434 670.301 1472.14 677.07C1469.47 674.743 1467.53 672.799 1465.34 671.181C1437.8 650.793 1421 622.609 1408.5 591.603C1405.75 584.767 1405.63 576.681 1405.36 569.132C1405.25 565.909 1407.89 562.591 1410.16 557.246C1415.13 565.763 1418.67 571.84 1422.22 577.918C1424.16 577.246 1423.75 577.387 1425.68 576.717C1422.02 550.855 1423.33 526.627 1445.6 508.478C1463.32 525.822 1472.24 546.907 1479.73 568.64C1484.64 582.871 1481.97 596.384 1471.57 607.327C1465.39 613.813 1457.64 618.777 1450.79 624.644C1446.65 628.184 1439.34 631.329 1445.11 638.285C1449.65 643.758 1455.82 647.881 1461.23 652.64C1462.82 651.935 1463 651.853 1464.6 651.149L1464.78 633.738C1480.39 630.283 1489.52 645.392 1482.53 669.276C1501.23 677.747 1520.14 686.317 1539.06 694.887C1527.83 683.543 1511.95 677.209 1510.97 656.257C1519.19 659.915 1525.63 662.782 1532.08 665.652C1533.24 664.054 1533.01 664.362 1534.17 662.762C1516.62 643.73 1503.87 623.24 1511.69 596.289C1529.63 598.153 1556.24 610.499 1572.85 624.487C1590.12 639.033 1594.87 658.597 1586.19 679.548C1584.38 683.919 1580.89 688.341 1581.09 692.599C1581.3 697.075 1584.53 704.84 1587.29 705.23C1613.89 708.984 1640.66 711.489 1668.89 714.511L1665.62 689.184C1659.08 690.814 1654.61 691.929 1648.67 693.408C1655.06 680.89 1662.44 677.793 1677.87 679.473C1693.37 681.378 1703.73 689.166 1705.67 705.289C1706.95 715.963 1712.25 720.485 1722.82 722.556C1738.09 725.549 1899.56 775.967 1919.94 791.051" fill="#482E17"/>
<path d="M1185.89 844.04C1170.23 823.976 1161.75 799.42 1138.91 786.901C1133.44 783.906 1126.76 783.135 1120.64 781.344C1120.07 782.531 1119.5 783.719 1118.94 784.906C1123.09 790.479 1127.24 796.052 1131.39 801.627C1131.11 802.629 1130.83 803.632 1130.56 804.635C1107.78 792.617 1084.85 782.602 1058.53 796.804C1061.77 803.081 1064.09 809.645 1068.1 814.926C1076.24 825.642 1084.76 836.179 1094.09 845.861C1111.45 863.885 1132.16 866.689 1153.63 853.506C1163.52 847.432 1172.04 839.16 1185.89 844.04Z" fill="#482E17"/>
<path d="M1302.4 773.132C1297.46 770.935 1292.52 768.735 1287 766.281C1285.91 774.75 1289.78 780.576 1295.29 783.728C1309.9 792.095 1325.15 799.341 1341.59 806.158C1335.61 796.084 1340.98 788.362 1343.73 779.951C1349.32 762.878 1343.92 749.196 1328.66 739.302C1315.89 731.015 1302.91 723.126 1286.67 720.988C1280.07 742.012 1291.49 757.121 1304.42 771.778C1303.75 772.229 1303.08 772.681 1302.4 773.132Z" fill="#482E17"/>
<path d="M1313.44 1142.16C1333.58 1144.12 1352.5 1140.78 1369.81 1131.51C1380.96 1125.54 1383.75 1113.6 1383.44 1101.81C1383.22 1093.62 1380.58 1085.44 1388.83 1078.54C1370.99 1081.03 1353.1 1078.03 1337.21 1086.74C1332.92 1089.1 1329.64 1093.3 1325.89 1096.65C1326.36 1097.59 1326.82 1098.54 1327.28 1099.48L1342.48 1097.71C1343.02 1098.37 1343.57 1099.02 1344.12 1099.68C1328.06 1109.63 1313.64 1120.67 1313.44 1142.16Z" fill="#482E17"/>
<path d="M1180.03 724.589C1171.56 743.432 1169.98 762.992 1171.97 782.6C1173.58 798.495 1185.28 806.992 1199.66 811.008C1208.6 813.504 1218.36 813.522 1222.17 825.301C1234.96 798.737 1234.56 762.609 1220.65 751.66C1219.51 758.139 1218.52 763.769 1217.53 769.396C1216.83 769.775 1216.14 770.155 1215.44 770.534C1209.38 750.926 1203 731.584 1180.03 724.589Z" fill="#482E17"/>
<path d="M1498.08 1003.37C1482.97 985.941 1468.2 968.202 1452.57 951.252C1447.15 945.369 1439.22 943.193 1428.64 945.95C1433.74 952.749 1437.88 958.279 1442.02 963.806C1441.79 964.809 1441.56 965.814 1441.33 966.817C1418.22 955.491 1395.09 944.453 1369.33 959.338C1379.83 983.844 1396.24 1003.32 1417.31 1018.05C1432.61 1028.75 1449.81 1024.86 1464.81 1015.51C1474.45 1009.51 1482.91 1001.94 1495.97 1007.81C1496.67 1006.33 1497.37 1004.85 1498.08 1003.37Z" fill="#482E17"/>
<path d="M1304.66 912.954C1297.46 898.509 1307.35 890.035 1313.19 879.847C1324.42 860.277 1323.17 842.009 1308.15 825.39C1293.53 809.207 1277.56 794.139 1255.32 786.073C1241.82 811.448 1250.38 834.436 1263.88 857.009C1262.98 857.592 1262.09 858.176 1261.2 858.759C1255.49 854.673 1249.79 850.586 1244.08 846.5C1243.01 846.919 1241.94 847.338 1240.87 847.76C1242.09 853.26 1241.93 859.673 1244.83 864.061C1250.18 872.154 1256.47 880.111 1263.93 886.215C1275.87 895.986 1289.09 904.2 1301.76 913.07C1302.73 913.032 1303.7 912.993 1304.66 912.954Z" fill="#482E17"/>
<path d="M1217.9 997.588C1239.49 997.549 1248.76 969.331 1257.98 945.324C1249.83 943.277 1241.41 941.586 1233.26 939.029C1217.04 933.934 1202.46 937.588 1192.5 951.482C1182.78 965.046 1173.01 978.901 1171.2 997.027C1192.02 1003.03 1208.05 993.078 1224.69 982.52C1222.59 987.184 1220.49 991.847 1217.9 997.588Z" fill="#482E17"/>
<path d="M1350.66 717.26C1349.7 699.623 1358.97 680.02 1342.23 660.703C1341.05 667.231 1340.25 671.644 1339.18 677.56C1334.67 669.661 1331.74 662.123 1326.72 656.414C1321.93 650.96 1314.97 647.407 1306.89 641.497C1301.05 662.832 1298.97 681.709 1308.93 698.65C1312.79 705.216 1323.57 708.058 1331.6 711.707C1337.14 714.221 1343.37 715.206 1350.66 717.26Z" fill="#482E17"/>
<path d="M1614.32 612.827C1610.6 607.735 1606.87 602.643 1602.71 596.952C1596.69 604.895 1597.22 613.034 1600.97 619.425C1610.91 636.375 1622.14 652.562 1634.82 669.002C1634.62 655.338 1644.53 650.634 1652.2 643.719C1667.77 629.679 1670.24 612.694 1660.55 593.825C1652.42 578.023 1643.86 562.499 1628.66 550.91C1609.78 568.359 1612.57 590.287 1617.16 612.628C1616.21 612.694 1615.27 612.76 1614.32 612.827Z" fill="#482E17"/>
<path d="M1711.63 641.182C1708.02 638.032 1704.4 634.885 1700.36 631.366C1697.24 638.262 1699 644.204 1702.84 648.311C1713.05 659.208 1724.1 669.321 1736.25 679.377C1733.81 669.285 1740.37 664.134 1744.89 657.722C1754.07 644.706 1753.05 631.701 1742.7 619.343C1734.03 608.995 1725.08 598.926 1711.87 592.886C1700.8 608.988 1706.56 624.772 1713.7 640.56L1711.63 641.182Z" fill="#482E17"/>
<path d="M1514.78 1173.41C1540.51 1168.46 1562.8 1157.38 1580.9 1139.53C1592.57 1128.02 1591.65 1112.16 1586.95 1097.64C1583.68 1087.54 1577.4 1078.34 1585.12 1066.75C1563.86 1076.38 1540.55 1079.21 1524 1095.86C1519.53 1100.35 1516.99 1106.78 1513.57 1112.32C1514.49 1113.31 1515.42 1114.31 1516.34 1115.31C1522.41 1112.72 1528.48 1110.13 1534.56 1107.55C1535.48 1108.17 1536.4 1108.78 1537.32 1109.4C1521.01 1127.64 1507.15 1146.64 1514.78 1173.41Z" fill="#482E17"/>
<path d="M1739.96 1132.64C1756.03 1118.68 1767.17 1101.83 1772.62 1081.92C1776.14 1069.08 1769.04 1058.31 1759.82 1050.02C1753.41 1044.26 1745.26 1040.35 1745.97 1029.07C1734.95 1044.48 1719.72 1055.97 1714.87 1074.39C1713.56 1079.38 1714.39 1084.92 1714.24 1090.2C1715.3 1090.53 1716.35 1090.86 1717.41 1091.18C1720.62 1086.89 1723.83 1082.6 1727.05 1078.31L1729.74 1078.49C1725.71 1097.94 1723.71 1116.93 1739.96 1132.64Z" fill="#482E17"/>
<path d="M1564.8 800.783C1558.54 787.06 1559.8 768.587 1540.48 758.443C1541.58 763.999 1542.32 767.756 1543.31 772.793C1537.27 767.915 1532.58 762.837 1526.82 759.86C1521.31 757.016 1514.67 756.357 1506.4 754.176C1508.41 772.959 1512.63 788.613 1525.83 798.983C1530.94 803.001 1540.4 801.903 1547.92 802.304C1553.1 802.577 1558.36 801.419 1564.8 800.783Z" fill="#482E17"/>
<path d="M1780.6 641.497C1772.12 660.339 1770.54 679.899 1772.54 699.507C1774.15 715.402 1785.84 723.899 1800.22 727.915C1809.17 730.411 1818.93 730.429 1822.74 742.208C1835.52 715.644 1835.12 679.516 1821.21 668.567C1820.08 675.046 1819.09 680.676 1818.1 686.303L1816.01 687.441C1809.95 667.833 1803.57 648.491 1780.6 641.497Z" fill="#482E17"/>
<path d="M1.10449 185.754C14.5039 175.839 120.651 142.695 130.691 140.726C137.636 139.365 141.121 136.393 141.962 129.375C143.236 118.777 150.048 113.658 160.232 112.407C170.376 111.301 175.229 113.337 179.429 121.567C175.53 120.594 172.585 119.86 168.291 118.791L166.139 135.438C184.694 133.451 202.297 131.805 219.783 129.337C221.59 129.081 223.714 123.976 223.853 121.033C223.988 118.235 221.693 115.329 220.503 112.455C214.794 98.6813 217.916 85.8221 229.271 76.2585C240.193 67.0642 257.681 58.9502 269.478 57.724C274.618 75.4403 266.233 88.9104 254.7 101.421C255.459 102.472 255.313 102.269 256.072 103.32C260.311 101.435 264.546 99.5497 269.95 97.1451C269.305 110.918 258.864 115.082 251.484 122.538C263.919 116.906 276.353 111.272 288.644 105.701C284.047 90.0021 290.055 80.0694 300.314 82.3417L300.435 93.7856C301.481 94.2483 301.602 94.303 302.648 94.7657C306.201 91.6386 310.256 88.9286 313.241 85.3298C317.036 80.7577 312.229 78.6904 309.513 76.3634C305.007 72.507 299.91 69.2431 295.851 64.9787C289.009 57.7856 287.256 48.9035 290.484 39.5474C295.414 25.2613 301.271 11.4015 312.922 0.000915527C327.564 11.9303 328.421 27.8573 326.012 44.8579C327.286 45.2978 327.017 45.2044 328.291 45.6465C330.623 41.6511 332.952 37.6579 336.22 32.0579C337.711 35.5702 339.445 37.7536 339.373 39.871C339.199 44.8329 339.115 50.1502 337.305 54.6426C329.096 75.0255 318.051 93.5531 299.945 106.955C298.506 108.017 297.23 109.298 295.477 110.825C320.549 106.376 322.684 106.485 330.575 113.555L316.733 118.561C316.87 119.7 316.847 119.516 316.984 120.653C333.479 122.492 349.287 125.603 358.449 142.718C353.759 145.17 349.424 148.224 344.603 149.79C335.733 152.669 326.684 155.297 317.513 156.901C303.195 159.404 290.878 151.748 284.906 137.676C284.252 136.133 283.81 134.504 283.213 132.933C279.908 124.24 276.421 122.823 267.897 126.727C265.955 127.616 264.054 128.596 261.485 129.847C263.591 133.758 265.549 137.394 267.703 141.394L277.686 135.999C276.761 139.481 276.699 141.353 275.833 142.706C268.89 153.565 249.547 153.829 242.372 143.087C239.147 138.26 236.58 136.509 225.314 141.608C211.726 147.759 196.676 149.986 181.95 147.6C177.592 146.893 173.522 148.063 169.396 148.89C169.39 150.093 169.392 149.868 169.383 151.073C177.121 152.774 185.41 153.302 192.403 156.587C199.429 159.887 205.132 166.007 212.884 172.033C208.063 174.923 205.672 177.054 202.889 177.902C191.031 181.514 179.236 185.888 167.076 187.81C153.962 189.881 142.807 181.606 137.385 168.544C136.284 165.891 135.53 163.071 134.215 160.537C132.387 157.013 129.854 155.117 125.449 156.981C114.034 161.818 102.502 166.374 90.1667 171.386C94.1644 176.612 96.5963 182.335 100.792 184.311C103.249 185.469 108.519 180.651 113.353 178.08C113.437 186.365 108.685 190.955 102.764 194.556C90.0778 202.271 79.6686 201.549 66.6384 191.821C42.6521 214.447 27.1991 242.896 12.733 272.348C40.8584 250.109 71.361 232.733 106.073 223.823C105.155 204.281 115.411 191.438 135.607 186.859C139.359 197.293 136.485 206.499 129.627 215.067C130.242 215.787 142.265 216.571 144.858 216.512C159.003 216.183 173.141 215.495 187.338 214.928C188.286 198.066 198.502 186.312 217.333 181.359C222.085 192.003 217.859 201.086 212.706 210.599L220.43 206.923C221.039 207.527 221.045 207.534 221.656 208.136C220.033 211.641 218.408 215.146 216.715 218.807C217.045 218.918 217.93 219.206 218.809 219.509C231.776 224.012 241.009 222.052 249.321 208.901C259.817 192.297 289.907 197.004 297.916 215.165C298.536 216.573 298.557 218.246 297.583 220.785C295.84 219.258 293.973 217.847 292.375 216.181C287.553 211.158 284.843 211.26 281.351 217.375C278.634 222.134 276.517 227.233 273.759 232.952C279.942 235.14 285.914 237.28 291.904 239.363C297.752 241.396 303.621 243.372 310.951 245.875C309.763 242.435 309.173 240.291 308.3 238.269C299.616 218.164 302.901 205.574 320.888 193.863C331.27 187.105 341.907 180.427 355.252 179.114C360.822 197.077 351.977 210.536 340.651 223.26C341.374 224.238 341.228 224.042 341.953 225.022C346.153 223.064 350.354 221.106 354.712 219.076C356.749 229.43 353.549 232.375 322.557 249.179C364.843 263.345 407.277 268.749 451.742 262.178C449.586 249.856 454.44 241.578 465.82 237.806C470.361 236.3 475.653 234.85 479.801 241.401L471.585 242.237C471.87 247.037 472.159 251.969 472.544 258.449C486.684 253.175 500.307 248.097 513.93 243.016C514.44 243.871 514.322 243.675 514.832 244.53L505.34 252.81C515.765 251.655 525.169 248.977 534.684 256.979C529.171 259.103 524.781 260.794 520.382 262.488C520.512 263.534 520.494 263.388 520.624 264.434C537.075 266.426 553.112 269.179 561.973 286.408C545.766 296.122 528.77 302.303 510.083 300.245C498.559 298.975 492.079 289.881 487.977 279.668C483.019 267.324 478.753 264.911 466.228 268.801C444.69 275.493 422.614 278.105 399.696 277.51C400.068 282.563 400.578 287.272 400.717 291.992C400.904 298.378 403.904 299.978 409.627 297.861C411.254 297.259 413.043 297.1 414.757 296.735C415.145 297.355 415.534 297.973 415.922 298.59C414.112 300.357 412.56 302.556 410.447 303.817C398.673 310.855 371.136 303.625 369.59 284.762C368.963 277.12 365 274.536 357.649 273.551C325.314 269.22 294.83 257.793 263.865 248.236C230.65 237.984 196.735 233.875 162.037 236.931C159.908 237.118 157.791 237.437 154.942 237.783C156.227 244.359 157.1 250.7 158.762 256.828C160.742 264.145 164.35 265.553 171.167 262.337C173.834 261.079 176.4 259.607 179.58 257.934C178.821 265.597 171.514 271.404 161.519 273.369C140.564 277.485 125.531 269.852 113.629 248.575C77.4373 263.336 45.5467 285.127 14.7022 309.225C36.6327 306.221 58.2008 303.267 79.5296 300.348C72.7513 282.707 82.7524 272.434 107.644 262.162C112.22 272.933 108.505 282.16 103.005 291.869C105.563 290.599 108.12 289.332 110.677 288.063C111.268 288.658 111.254 288.642 111.844 289.236C109.681 293.542 107.518 297.847 105.301 302.26C118.317 304.352 131.739 306.761 145.253 308.45C147.678 308.753 150.912 306.565 152.988 304.669C155.409 302.463 157.162 299.427 158.864 296.548C164.945 286.283 174.743 284.701 185.184 285.765C196.022 286.871 204.906 291.634 209.456 302.317C209.816 303.167 209.905 304.168 209.943 305.104C209.957 305.485 209.494 305.884 208.592 307.313C206.91 305.67 205.362 304.254 203.922 302.736C199.197 297.754 196.384 297.736 192.719 303.621C189.713 308.446 187.532 313.786 184.701 319.463C197.93 323.994 210.996 328.471 225.526 333.451C224.264 329.952 223.63 327.746 222.696 325.676C214.379 307.272 217.839 294.299 234.231 282.666C246.486 273.964 257.731 269.068 269.829 267.306C275.477 285.136 266.481 298.511 255.409 311.281C256.122 312.245 255.99 312.067 256.706 313.029C260.991 311.083 265.278 309.136 269.82 307.071C270.698 318.353 264.824 323.732 237.235 337.095C247.783 339.926 256.966 342.748 266.31 344.831C295.644 351.37 325.255 353.079 355.19 349.758C360.827 349.134 362.983 347.675 362.794 341.553C362.445 330.217 375.373 320.721 386.29 323.668C387.721 324.054 388.952 325.18 390.165 327.616C387.849 328.044 385.533 328.473 382.536 329.031L383.906 345.195C396.845 340.019 408.909 331.607 421.141 331.352C432.332 331.121 445.964 325.152 457.998 336.386C452.437 338.283 448.148 339.746 443.858 341.209C443.901 342.132 443.897 342.059 443.94 342.985C451.642 344.685 459.701 345.503 466.901 348.434C474.548 351.545 481.485 356.603 485.328 365.357C470.386 375.119 454.135 379.776 436.998 379.953C424.601 380.083 417.451 371.053 412.077 360.863C411.079 358.971 410.604 356.808 409.793 354.809C406.873 347.623 402.933 345.727 395.699 348.703C372.804 358.128 348.957 362.994 324.286 364.054C319.977 364.241 315.653 364.072 310.832 364.065C311.195 369.093 311.612 373.977 311.888 378.871C312.22 384.715 314.869 386.611 320.423 384.309C322.08 383.623 323.942 383.434 326.434 382.848C325.69 389.177 321.433 390.796 317.255 392.017C301.164 396.717 283.778 386.559 280.592 370.18C279.329 363.689 276.245 361.524 269.921 360.07C246.076 354.59 222.438 348.222 198.737 342.13C195.53 341.305 192.407 340.161 188.678 338.985C191.133 344.086 193.296 348.582 195.459 353.082C194.6 353.964 194.586 353.977 193.727 354.859C189.444 352.938 185.164 351.014 180.884 349.091C180.17 350.052 180.298 349.879 179.587 350.839C190.563 363.632 198.582 377.271 193.102 395.657C174.734 390.615 158.276 382.805 146.616 367.68C139.831 358.88 141.916 348.544 145.615 338.782C146.871 335.466 148.501 332.293 150.317 328.263C122.117 322.458 94.5632 320.762 66.0937 324.154C67.2265 330.424 67.9832 336.318 69.3963 342.05C71.5706 350.859 74.7068 352.147 82.8436 348.241C85.2846 347.069 87.7621 345.977 90.7524 345.679C87.9809 354.397 80.9792 357.863 73.0407 359.634C52.9723 364.113 39.6116 357.624 25.0908 336.19C24.5461 335.388 23.8418 334.682 23.0099 334.182C16.9883 330.565 14.08 330.793 1.10449 331.956" fill="#482E17"/>
<path d="M483.642 220.586C493.939 207.396 499.516 191.255 514.527 183.025C518.119 181.056 522.513 180.55 526.539 179.371C526.91 180.153 527.284 180.932 527.658 181.714C524.929 185.377 522.199 189.04 519.471 192.705C519.653 193.363 519.835 194.024 520.018 194.683C534.99 186.781 550.067 180.199 567.368 189.534C565.237 193.662 563.71 197.976 561.073 201.448C555.721 208.493 550.124 215.419 543.993 221.783C532.578 233.632 518.962 235.474 504.852 226.808C498.352 222.817 492.749 217.377 483.642 220.586Z" fill="#482E17"/>
<path d="M407.054 173.974C410.302 172.529 413.548 171.084 417.178 169.47C417.892 175.038 415.353 178.867 411.731 180.939C402.127 186.439 392.098 191.202 381.295 195.683C385.222 189.062 381.696 183.984 379.886 178.457C376.214 167.234 379.765 158.238 389.792 151.736C398.186 146.288 406.724 141.101 417.397 139.697C421.737 153.516 414.225 163.449 405.725 173.083L407.054 173.974Z" fill="#482E17"/>
<path d="M399.799 416.564C386.561 417.85 374.121 415.655 362.746 409.562C355.413 405.635 353.581 397.783 353.784 390.039C353.925 384.653 355.66 379.274 350.237 374.741C361.968 376.375 373.727 374.406 384.172 380.133C386.994 381.679 389.15 384.443 391.612 386.647C391.306 387.265 391.001 387.883 390.695 388.503C387.368 388.115 384.04 387.728 380.71 387.34C380.352 387.773 379.992 388.204 379.632 388.637C390.189 395.176 399.669 402.435 399.799 416.564Z" fill="#482E17"/>
<path d="M487.498 142.063C493.066 154.448 494.106 167.308 492.795 180.197C491.735 190.647 484.048 196.231 474.596 198.87C468.715 200.513 462.302 200.525 459.795 208.267C451.391 190.804 451.653 167.057 460.797 159.859C461.545 164.119 462.195 167.818 462.844 171.517C463.302 171.768 463.763 172.017 464.221 172.265C468.2 159.376 472.396 146.663 487.498 142.063Z" fill="#482E17"/>
<path d="M278.427 325.325C288.357 313.868 298.067 302.205 308.339 291.062C311.904 287.197 317.114 285.765 324.072 287.577C320.722 292.049 317.998 295.682 315.277 299.315C315.43 299.974 315.58 300.635 315.733 301.294C330.921 293.85 346.124 286.595 363.058 296.38C356.157 312.489 345.369 325.289 331.521 334.973C321.463 342.009 310.153 339.45 300.291 333.305C293.957 329.36 288.394 324.384 279.813 328.245C279.35 327.272 278.889 326.299 278.427 325.325Z" fill="#482E17"/>
<path d="M405.57 265.888C410.3 256.393 403.804 250.82 399.961 244.124C392.579 231.26 393.404 219.251 403.275 208.327C412.889 197.687 423.387 187.784 438.001 182.481C446.876 199.162 441.253 214.273 432.38 229.111C432.966 229.496 433.552 229.879 434.138 230.262C437.892 227.575 441.643 224.89 445.395 222.203L447.503 223.032C446.701 226.647 446.806 230.864 444.898 233.747C441.381 239.066 437.247 244.299 432.344 248.311C424.494 254.734 415.806 260.133 407.473 265.963C406.837 265.938 406.204 265.913 405.57 265.888Z" fill="#482E17"/>
<path d="M462.602 321.523C448.41 321.498 442.318 302.948 436.255 287.167C441.616 285.822 447.149 284.71 452.506 283.028C463.168 279.679 472.754 282.082 479.3 291.215C485.691 300.131 492.116 309.241 493.306 321.154C479.614 325.097 469.078 318.558 458.142 311.618C459.521 314.683 460.902 317.749 462.602 321.523Z" fill="#482E17"/>
<path d="M375.334 137.245C375.963 125.653 369.871 112.764 380.875 100.067C381.65 104.359 382.174 107.258 382.876 111.148C385.839 105.954 387.769 101.001 391.065 97.2474C394.215 93.6622 398.789 91.326 404.104 87.44C407.942 101.466 409.308 113.874 402.762 125.013C400.225 129.327 393.139 131.196 387.858 133.596C384.22 135.249 380.125 135.896 375.334 137.245Z" fill="#482E17"/>
<path d="M202.009 68.5937C204.457 65.2455 206.905 61.8997 209.642 58.1572C213.599 63.3789 213.25 68.7304 210.786 72.931C204.256 84.074 196.87 94.7156 188.534 105.521C188.664 96.539 182.15 93.4461 177.111 88.9014C166.877 79.6706 165.25 68.5071 171.625 56.1014C176.963 45.715 182.593 35.511 192.585 27.8917C204.997 39.3629 203.16 53.7766 200.147 68.4638C200.767 68.5071 201.389 68.5504 202.009 68.5937Z" fill="#482E17"/>
<path d="M138.04 87.2349C140.417 85.1654 142.792 83.0959 145.448 80.7802C147.503 85.3158 146.348 89.2224 143.818 91.9209C137.108 99.0845 129.849 105.733 121.858 112.343C123.462 105.708 119.152 102.323 116.18 98.109C110.143 89.5506 110.811 81.0035 117.616 72.8782C123.317 66.0748 129.201 59.4582 137.885 55.4879C145.16 66.0725 141.379 76.4474 136.682 86.8269C137.135 86.9614 137.587 87.0981 138.04 87.2349Z" fill="#482E17"/>
<path d="M267.446 437.107C250.53 433.852 235.881 426.565 223.981 414.83C216.312 407.265 216.914 396.84 220.004 387.292C222.153 380.653 226.279 374.609 221.205 366.989C235.179 373.316 250.507 375.181 261.385 386.123C264.326 389.079 265.989 393.3 268.239 396.943C267.635 397.599 267.029 398.255 266.422 398.912C262.429 397.209 258.436 395.509 254.443 393.809C253.839 394.214 253.233 394.62 252.629 395.023C263.348 407.017 272.462 419.509 267.446 437.107Z" fill="#482E17"/>
<path d="M119.417 410.299C108.858 401.127 101.53 390.046 97.947 376.956C95.6382 368.519 100.306 361.439 106.362 355.99C110.574 352.199 115.934 349.633 115.472 342.214C122.713 352.348 132.723 359.896 135.912 372.013C136.773 375.285 136.224 378.93 136.324 382.403C135.631 382.618 134.938 382.832 134.246 383.046C132.133 380.227 130.02 377.405 127.907 374.586C127.317 374.625 126.727 374.663 126.136 374.702C128.787 387.488 130.104 399.976 119.417 410.299Z" fill="#482E17"/>
<path d="M234.566 192.15C238.678 183.129 237.848 170.986 250.55 164.317C249.83 167.97 249.342 170.439 248.691 173.75C252.663 170.544 255.74 167.207 259.531 165.249C263.152 163.38 267.517 162.947 272.953 161.513C271.635 173.86 268.855 184.15 260.185 190.968C256.823 193.609 250.605 192.887 245.659 193.149C242.254 193.331 238.797 192.57 234.566 192.15Z" fill="#482E17"/>
<path d="M92.7062 87.4406C98.2743 99.8257 99.3136 112.685 98.0031 125.574C96.9433 136.024 89.2555 141.608 79.8037 144.247C73.9233 145.891 67.5096 145.902 65.0025 153.645C56.5991 136.181 56.8612 112.434 66.0054 105.234C66.7529 109.496 67.4025 113.196 68.0521 116.895C68.5102 117.145 68.9706 117.394 69.4287 117.642C73.4082 104.753 77.6042 92.0377 92.7062 87.4406Z" fill="#482E17"/>
<path d="M0.000976562 1239.11C18.8295 1225.18 167.987 1178.6 182.096 1175.84C191.855 1173.92 196.751 1169.75 197.936 1159.89C199.723 1144.99 209.296 1137.8 223.609 1136.04C237.861 1134.49 244.683 1137.35 250.586 1148.91C245.104 1147.55 240.968 1146.51 234.932 1145.01L231.91 1168.41C257.984 1165.61 282.718 1163.3 307.288 1159.83C309.829 1159.47 312.813 1152.3 313.011 1148.16C313.198 1144.23 309.973 1140.15 308.3 1136.11C300.279 1116.76 304.664 1098.68 320.621 1085.25C335.969 1072.33 360.544 1060.92 377.12 1059.2C384.343 1084.1 372.562 1103.02 356.355 1120.6C357.421 1122.08 357.216 1121.8 358.283 1123.27C364.241 1120.62 370.192 1117.97 377.784 1114.59C376.876 1133.95 362.208 1139.8 351.837 1150.28C369.31 1142.36 386.78 1134.45 404.054 1126.62C397.594 1104.56 406.034 1090.6 420.453 1093.79L420.619 1109.88C422.091 1110.53 422.26 1110.6 423.732 1111.25C428.724 1106.86 434.424 1103.05 438.618 1097.99C443.949 1091.57 437.196 1088.66 433.378 1085.39C427.044 1079.97 419.883 1075.39 414.182 1069.39C404.567 1059.29 402.1 1046.81 406.638 1033.66C413.565 1013.59 421.795 994.108 438.169 978.087C458.743 994.851 459.947 1017.23 456.564 1041.12C458.353 1041.74 457.975 1041.61 459.764 1042.23C463.04 1036.62 466.317 1031 470.907 1023.13C473.002 1028.07 475.441 1031.14 475.338 1034.11C475.094 1041.09 474.976 1048.56 472.434 1054.87C460.895 1083.51 445.373 1109.55 419.931 1128.38C417.911 1129.87 416.118 1131.67 413.654 1133.82C448.886 1127.57 451.887 1127.72 462.973 1137.66L443.525 1144.69C443.716 1146.29 443.685 1146.03 443.878 1147.63C467.056 1150.22 489.269 1154.58 502.144 1178.63C495.552 1182.08 489.46 1186.37 482.689 1188.57C470.221 1192.62 457.508 1196.31 444.619 1198.57C424.5 1202.08 407.19 1191.33 398.802 1171.55C397.884 1169.38 397.259 1167.09 396.421 1164.89C391.776 1152.67 386.878 1150.68 374.898 1156.16C372.17 1157.41 369.499 1158.79 365.891 1160.55C368.851 1166.05 371.602 1171.15 374.627 1176.77L388.653 1169.19C387.354 1174.09 387.267 1176.72 386.05 1178.62C376.298 1193.88 349.113 1194.25 339.03 1179.15C334.499 1172.37 330.894 1169.91 315.062 1177.08C295.965 1185.72 274.818 1188.85 254.128 1185.49C248.003 1184.5 242.283 1186.14 236.487 1187.31C236.475 1189 236.478 1188.68 236.468 1190.37C247.34 1192.77 258.989 1193.51 268.815 1198.12C278.688 1202.76 286.702 1211.36 297.594 1219.83C290.821 1223.89 287.459 1226.89 283.548 1228.08C266.887 1233.15 250.312 1239.3 233.225 1242C214.798 1244.91 199.121 1233.28 191.504 1214.93C189.957 1211.2 188.895 1207.24 187.046 1203.67C184.48 1198.72 180.922 1196.06 174.729 1198.68C158.691 1205.47 142.483 1211.87 125.15 1218.92C130.768 1226.26 134.187 1234.3 140.083 1237.08C143.534 1238.71 150.941 1231.94 157.731 1228.33C157.852 1239.97 151.174 1246.42 142.852 1251.48C125.024 1262.32 110.401 1261.3 92.0899 1247.63C58.3851 1279.43 36.6688 1319.41 16.3429 1360.79C55.8643 1329.54 98.7247 1305.12 147.504 1292.61C146.214 1265.14 160.623 1247.1 189.006 1240.66C194.276 1255.33 190.239 1268.26 180.601 1280.3C181.464 1281.31 198.358 1282.41 202.005 1282.33C221.882 1281.87 241.747 1280.9 261.697 1280.1C263.03 1256.41 277.385 1239.89 303.846 1232.93C310.524 1247.89 304.585 1260.65 297.344 1274.02L308.197 1268.86C309.054 1269.7 309.063 1269.71 309.92 1270.56C307.639 1275.49 305.36 1280.41 302.976 1285.56C303.443 1285.71 304.687 1286.12 305.92 1286.54C324.143 1292.87 337.116 1290.11 348.794 1271.64C363.545 1248.31 405.829 1254.92 417.082 1280.44C417.955 1282.42 417.982 1284.77 416.614 1288.33C414.164 1286.19 411.543 1284.21 409.296 1281.87C402.518 1274.81 398.714 1274.95 393.804 1283.54C389.986 1290.23 387.01 1297.39 383.137 1305.43C391.826 1308.51 400.216 1311.51 408.633 1314.44C416.851 1317.3 425.1 1320.08 435.397 1323.59C433.729 1318.76 432.902 1315.74 431.673 1312.9C419.473 1284.65 424.088 1266.96 449.362 1250.5C463.951 1241.01 478.901 1231.62 497.649 1229.78C505.478 1255.02 493.048 1273.93 477.132 1291.81C478.151 1293.19 477.943 1292.91 478.962 1294.29C484.865 1291.54 490.768 1288.79 496.893 1285.93C499.755 1300.48 495.258 1304.62 451.705 1328.24C511.128 1348.14 570.755 1355.74 633.239 1346.5C630.208 1329.19 637.032 1317.55 653.02 1312.25C659.402 1310.14 666.837 1308.1 672.669 1317.31L661.123 1318.48C661.522 1325.23 661.93 1332.15 662.47 1341.26C682.34 1333.85 701.485 1326.71 720.628 1319.58C721.344 1320.78 721.178 1320.5 721.893 1321.7L708.553 1333.34C723.204 1331.71 736.419 1327.95 749.791 1339.2C742.044 1342.18 735.874 1344.56 729.69 1346.94C729.875 1348.41 729.85 1348.2 730.032 1349.67C753.15 1352.47 775.685 1356.34 788.136 1380.55C765.362 1394.2 741.479 1402.88 715.22 1399.99C699.026 1398.21 689.921 1385.43 684.157 1371.08C677.191 1353.73 671.195 1350.34 653.595 1355.81C623.329 1365.21 592.309 1368.88 560.104 1368.04C560.626 1375.15 561.344 1381.76 561.54 1388.39C561.802 1397.37 566.016 1399.62 574.06 1396.64C576.346 1395.8 578.86 1395.57 581.269 1395.06C581.813 1395.93 582.358 1396.8 582.903 1397.67C580.359 1400.15 578.18 1403.24 575.213 1405.01C558.666 1414.9 519.972 1404.74 517.8 1378.24C516.92 1367.5 511.35 1363.87 501.02 1362.48C455.584 1356.4 412.747 1340.34 369.232 1326.91C322.559 1312.5 274.903 1306.73 226.144 1311.02C223.153 1311.29 220.179 1311.73 216.174 1312.22C217.982 1321.46 219.208 1330.37 221.542 1338.98C224.325 1349.26 229.396 1351.24 238.976 1346.72C242.723 1344.95 246.328 1342.89 250.795 1340.54C249.729 1351.3 239.461 1359.46 225.417 1362.22C195.972 1368.01 174.846 1357.28 158.123 1327.39C107.265 1348.13 62.4534 1378.75 19.1075 1412.61C49.9269 1408.39 80.2335 1404.24 110.203 1400.13C100.68 1375.35 114.734 1360.91 149.71 1346.48C156.14 1361.61 150.921 1374.58 143.194 1388.22C146.786 1386.44 150.381 1384.66 153.973 1382.87C154.802 1383.71 154.782 1383.69 155.614 1384.52C152.573 1390.57 149.533 1396.62 146.417 1402.82C164.708 1405.76 183.57 1409.15 202.558 1411.52C205.968 1411.95 210.511 1408.87 213.43 1406.21C216.829 1403.11 219.292 1398.84 221.685 1394.8C230.23 1380.37 244.001 1378.15 258.67 1379.64C273.9 1381.2 286.383 1387.89 292.776 1402.9C293.284 1404.1 293.41 1405.5 293.462 1406.82C293.483 1407.35 292.831 1407.92 291.566 1409.93C289.2 1407.62 287.023 1405.63 285 1403.49C278.36 1396.49 274.408 1396.46 269.257 1404.73C265.034 1411.52 261.968 1419.02 257.993 1427C276.58 1433.37 294.941 1439.66 315.361 1446.65C313.585 1441.74 312.694 1438.64 311.381 1435.73C299.696 1409.87 304.555 1391.64 327.589 1375.29C344.813 1363.06 360.614 1356.18 377.615 1353.7C385.553 1378.76 372.911 1397.56 357.351 1415.5C358.353 1416.85 358.169 1416.6 359.174 1417.96C365.196 1415.22 371.22 1412.49 377.601 1409.59C378.834 1425.44 370.581 1433 331.81 1451.78C346.636 1455.75 359.536 1459.72 372.669 1462.64C413.888 1471.83 455.5 1474.23 497.565 1469.57C505.485 1468.69 508.514 1466.64 508.25 1458.04C507.76 1442.11 525.923 1428.77 541.266 1432.91C543.277 1433.45 545.009 1435.03 546.711 1438.45C543.457 1439.06 540.204 1439.66 535.99 1440.44L537.916 1463.16C556.097 1455.88 573.05 1444.06 590.24 1443.71C605.964 1443.38 625.121 1434.99 642.03 1450.78C634.217 1453.44 628.188 1455.5 622.16 1457.55C622.219 1458.85 622.215 1458.75 622.276 1460.05C633.098 1462.44 644.421 1463.59 654.541 1467.71C665.287 1472.08 675.035 1479.19 680.435 1491.49C659.439 1505.21 636.603 1511.75 612.521 1512C595.101 1512.18 585.052 1499.49 577.501 1485.17C576.099 1482.51 575.432 1479.48 574.292 1476.67C570.192 1466.57 564.651 1463.9 554.486 1468.09C522.312 1481.33 488.804 1488.17 454.139 1489.66C448.083 1489.92 442.005 1489.68 435.231 1489.67C435.744 1496.74 436.327 1503.6 436.717 1510.48C437.182 1518.69 440.906 1521.36 448.71 1518.12C451.037 1517.16 453.656 1516.89 457.155 1516.07C456.111 1524.96 450.13 1527.24 444.259 1528.95C421.645 1535.55 397.216 1521.28 392.737 1498.27C390.964 1489.14 386.631 1486.1 377.743 1484.06C344.238 1476.36 311.019 1467.41 277.713 1458.85C273.209 1457.69 268.822 1456.08 263.58 1454.43C267.028 1461.6 270.068 1467.92 273.111 1474.24C271.901 1475.48 271.883 1475.5 270.675 1476.74C264.658 1474.04 258.643 1471.33 252.626 1468.63C251.627 1469.98 251.805 1469.74 250.807 1471.09C266.228 1489.06 277.496 1508.23 269.797 1534.07C243.985 1526.98 220.858 1516 204.473 1494.75C194.939 1482.39 197.87 1467.86 203.069 1454.14C204.833 1449.49 207.124 1445.03 209.676 1439.36C170.048 1431.21 131.329 1428.83 91.3264 1433.59C92.915 1442.4 93.9771 1450.68 95.9646 1458.74C99.021 1471.12 103.427 1472.93 114.861 1467.43C118.292 1465.79 121.772 1464.26 125.975 1463.84C122.08 1476.09 112.24 1480.96 101.086 1483.45C72.8854 1489.74 54.1116 1480.62 33.7081 1450.5C32.9423 1449.37 31.9509 1448.38 30.7839 1447.68C22.3212 1442.6 18.2346 1442.92 0.000976562 1444.55" fill="#482E17"/>
<path d="M678.064 1288.05C692.535 1269.52 700.371 1246.84 721.465 1235.27C726.511 1232.51 732.686 1231.79 738.343 1230.14C738.867 1231.24 739.391 1232.33 739.915 1233.43C736.082 1238.58 732.246 1243.73 728.412 1248.87C728.667 1249.8 728.925 1250.73 729.182 1251.66C750.219 1240.55 771.405 1231.3 795.717 1244.42C792.722 1250.22 790.575 1256.28 786.871 1261.16C779.352 1271.06 771.484 1280.79 762.869 1289.74C746.833 1306.39 727.696 1308.98 707.867 1296.8C698.732 1291.19 690.862 1283.55 678.064 1288.05Z" fill="#482E17"/>
<path d="M570.443 1222.55C575.006 1220.52 579.569 1218.49 584.668 1216.23C585.673 1224.05 582.104 1229.43 577.016 1232.34C563.517 1240.07 549.427 1246.76 534.247 1253.06C539.763 1243.76 534.81 1236.62 532.266 1228.85C527.106 1213.08 532.096 1200.44 546.183 1191.3C557.983 1183.65 569.978 1176.36 584.978 1174.39C591.075 1193.81 580.52 1207.76 568.574 1221.3C569.199 1221.72 569.821 1222.14 570.443 1222.55Z" fill="#482E17"/>
<path d="M683.485 1177.71C691.309 1195.12 692.768 1213.19 690.929 1231.3C689.438 1245.98 678.637 1253.83 665.354 1257.54C657.092 1259.85 648.077 1259.86 644.554 1270.74C632.745 1246.21 633.117 1212.83 645.965 1202.72C647.015 1208.71 647.927 1213.9 648.841 1219.1C649.486 1219.45 650.131 1219.8 650.776 1220.15C656.367 1202.04 662.263 1184.17 683.485 1177.71Z" fill="#482E17"/>
<path d="M389.695 1435.23C403.651 1419.13 417.294 1402.75 431.728 1387.09C436.738 1381.65 444.061 1379.64 453.837 1382.19C449.128 1388.47 445.303 1393.58 441.477 1398.68C441.691 1399.61 441.905 1400.54 442.117 1401.47C463.462 1391 484.822 1380.81 508.62 1394.56C498.924 1417.19 483.765 1435.18 464.305 1448.79C450.169 1458.68 434.279 1455.08 420.421 1446.45C411.521 1440.9 403.701 1433.91 391.642 1439.34C390.992 1437.97 390.345 1436.6 389.695 1435.23Z" fill="#482E17"/>
<path d="M568.358 1351.71C575.004 1338.37 565.876 1330.54 560.476 1321.13C550.101 1303.05 551.261 1286.18 565.133 1270.83C578.641 1255.88 593.392 1241.96 613.93 1234.51C626.4 1257.95 618.5 1279.18 606.031 1300.03C606.853 1300.57 607.679 1301.11 608.504 1301.65C613.775 1297.88 619.047 1294.1 624.319 1290.32C625.306 1290.71 626.293 1291.1 627.282 1291.49C626.154 1296.57 626.302 1302.5 623.622 1306.55C618.678 1314.02 612.871 1321.37 605.981 1327.01C594.949 1336.04 582.742 1343.63 571.031 1351.82C570.14 1351.78 569.249 1351.75 568.358 1351.71Z" fill="#482E17"/>
<path d="M648.499 1429.89C628.556 1429.85 619.993 1403.79 611.476 1381.61C619.006 1379.72 626.785 1378.16 634.311 1375.8C649.294 1371.09 662.762 1374.47 671.963 1387.3C680.943 1399.83 689.971 1412.63 691.642 1429.37C672.406 1434.91 657.598 1425.73 642.231 1415.97C644.171 1420.28 646.11 1424.59 648.499 1429.89Z" fill="#482E17"/>
<path d="M525.871 1170.94C526.755 1154.65 518.194 1136.54 533.654 1118.7C534.746 1124.73 535.482 1128.81 536.469 1134.27C540.633 1126.98 543.343 1120.01 547.977 1114.74C552.403 1109.7 558.83 1106.42 566.299 1100.96C571.692 1120.67 573.609 1138.1 564.412 1153.75C560.848 1159.82 550.89 1162.45 543.469 1165.82C538.356 1168.14 532.604 1169.05 525.871 1170.94Z" fill="#482E17"/>
<path d="M282.313 1074.47C285.755 1069.77 289.194 1065.07 293.039 1059.81C298.598 1067.15 298.108 1074.67 294.648 1080.57C285.47 1096.23 275.09 1111.18 263.38 1126.37C263.562 1113.74 254.409 1109.4 247.325 1103.01C232.946 1090.04 230.66 1074.35 239.617 1056.92C247.118 1042.32 255.029 1027.99 269.069 1017.28C286.511 1033.4 283.929 1053.65 279.697 1074.29C280.57 1074.35 281.44 1074.41 282.313 1074.47Z" fill="#482E17"/>
<path d="M192.423 1100.67C195.762 1097.76 199.101 1094.85 202.832 1091.6C205.722 1097.97 204.097 1103.46 200.542 1107.26C191.112 1117.32 180.911 1126.66 169.683 1135.95C171.938 1126.63 165.882 1121.87 161.704 1115.95C153.223 1103.92 154.162 1091.91 163.723 1080.5C171.732 1070.94 180.001 1061.64 192.204 1056.06C202.426 1070.93 197.114 1085.51 190.513 1100.1C191.151 1100.29 191.787 1100.48 192.423 1100.67Z" fill="#482E17"/>
<path d="M328.062 1248.1C333.839 1235.42 332.672 1218.36 350.521 1208.99C349.511 1214.12 348.827 1217.59 347.909 1222.24C353.493 1217.74 357.817 1213.05 363.141 1210.3C368.23 1207.67 374.364 1207.06 382.001 1205.05C380.15 1222.39 376.244 1236.86 364.059 1246.43C359.337 1250.15 350.601 1249.13 343.651 1249.5C338.863 1249.75 334.003 1248.69 328.062 1248.1Z" fill="#482E17"/>
<path d="M128.72 1100.96C136.545 1118.36 138.003 1136.43 136.164 1154.54C134.674 1169.23 123.872 1177.08 110.589 1180.78C102.327 1183.09 93.3128 1183.11 89.7892 1193.99C77.9806 1169.45 78.3521 1136.08 91.2 1125.96C92.2507 1131.95 93.1624 1137.15 94.0763 1142.35C94.7214 1142.7 95.3664 1143.05 96.0114 1143.4C101.602 1125.28 107.499 1107.42 128.72 1100.96Z" fill="#482E17"/>
</g>
<defs>
<clipPath id="clip0_673_19635">
<rect width="1920" height="1534.36" fill="white"/>
</clipPath>
</defs>
</svg>
