<svg width="40" height="40" viewBox="0 0 40 40" fill="none" xmlns="http://www.w3.org/2000/svg">
<circle cx="20" cy="20" r="18.5" fill="#492E16" stroke="#492E16" stroke-width="3"/>
<g clip-path="url(#clip0_370_12876)">
<path fill-rule="evenodd" clip-rule="evenodd" d="M26.3115 24.5843L26.2987 24.5711C26.0723 24.3353 25.9144 24.3133 25.8389 24.3133C25.7609 24.3133 25.5854 24.3371 25.3283 24.5943L25.326 24.5965L22.4954 27.4182L21.1874 26.7139C21.1062 26.6702 21.0394 26.636 20.9581 26.5943C20.9104 26.5699 20.8576 26.5428 20.794 26.5098C20.789 26.5073 20.7839 26.5048 20.7788 26.5022C20.5976 26.4117 20.3336 26.2798 20.0903 26.1288L20.0815 26.1233L20.0727 26.1178C18.1985 24.9274 16.528 23.3952 14.9618 21.4709L14.9531 21.4601L14.9445 21.4493C14.1711 20.4717 13.5996 19.5833 13.1708 18.6343L12.5739 17.3133L13.6436 16.335C14.0201 15.9906 14.373 15.6326 14.7571 15.2429C14.7962 15.2032 14.8356 15.1632 14.8755 15.1229L14.8802 15.1181L14.8849 15.1133C14.9564 15.0419 15.029 14.968 15.1088 14.8867L15.1116 14.8839C15.1886 14.8056 15.2726 14.7201 15.3577 14.635C15.6376 14.355 15.6583 14.1654 15.6583 14.1018C15.6583 14.0383 15.6376 13.8486 15.3577 13.5687L13.8116 12.0226C13.6466 11.8576 13.4518 11.6629 13.2643 11.4633C12.9351 11.1233 12.6163 10.8005 12.2973 10.5061L12.2718 10.4825L12.247 10.458C12.0258 10.2391 11.8622 10.2091 11.7684 10.2091C11.671 10.2091 11.4915 10.2428 11.253 10.4668L9.34425 12.3924C8.95705 12.7796 8.75107 13.2176 8.70146 13.7655C8.60555 14.9522 8.95651 16.1379 9.30436 17.0761C10.1234 19.2854 11.3568 21.3707 13.2703 23.6715C15.5557 26.3997 18.2943 28.5437 21.4174 30.0547C22.6585 30.6425 24.0932 31.2239 25.6193 31.3251C25.7337 31.3305 25.8065 31.3333 25.8614 31.3333C26.6046 31.3333 27.1463 31.097 27.6005 30.6223C27.9442 30.208 28.3286 29.8368 28.6378 29.5382C28.6676 29.5094 28.6968 29.4813 28.7251 29.4538L28.7306 29.4485L28.7362 29.4432C28.967 29.2231 29.19 29.0048 29.402 28.7829L29.406 28.7787C29.6629 28.5114 29.6978 28.3151 29.6978 28.2173C29.6978 28.1262 29.6681 27.9498 29.4239 27.7081L29.4191 27.7033L26.3115 24.5843ZM29.1089 31.9375C28.2534 32.8662 27.1615 33.3333 25.8614 33.3333C25.7488 33.3333 25.625 33.3277 25.5068 33.3221C23.5764 33.1982 21.8485 32.4722 20.554 31.8587C17.1659 30.2209 14.1998 27.8965 11.7347 24.9529C9.7029 22.5103 8.34088 20.2309 7.42911 17.7714C7.05765 16.7696 6.57363 15.2387 6.70871 13.5953C6.79876 12.5766 7.20961 11.6986 7.93002 10.9782L9.8436 9.04771L9.85486 9.03645C10.4177 8.49614 11.0818 8.20911 11.7684 8.20911C12.4551 8.20911 13.1079 8.49614 13.6539 9.03645C14.0197 9.37414 14.3743 9.73434 14.712 10.0833C14.8808 10.2634 15.0609 10.4435 15.2354 10.618L16.7719 12.1545C17.9538 13.3364 17.9538 14.8672 16.7719 16.0492C16.6931 16.128 16.6143 16.2082 16.5355 16.2884C16.4567 16.3686 16.3779 16.4488 16.2991 16.5276C16.259 16.5683 16.2187 16.6091 16.1783 16.6501C15.7998 17.0342 15.4104 17.4294 14.9934 17.8108C15.3367 18.5706 15.8095 19.3191 16.513 20.2084C17.9651 21.9925 19.4791 23.3714 21.145 24.4295C21.3082 24.5308 21.4996 24.6265 21.7022 24.7278C21.7499 24.7526 21.7982 24.7774 21.847 24.8024C21.9421 24.8512 22.0388 24.9009 22.1356 24.9529L23.9141 23.1801C24.4825 22.6116 25.1466 22.3133 25.8389 22.3133C26.5368 22.3133 27.1953 22.6173 27.7412 23.1857L30.8311 26.2868C31.3995 26.8496 31.6978 27.5194 31.6978 28.2173C31.6978 28.9096 31.4052 29.5849 30.848 30.1646C30.606 30.4179 30.3583 30.6599 30.1163 30.8907C30.0901 30.9161 30.0639 30.9414 30.0378 30.9666C29.712 31.2817 29.4024 31.5811 29.1314 31.9094C29.1286 31.915 29.1243 31.9192 29.1201 31.9235C29.1159 31.9277 29.1117 31.9319 29.1089 31.9375Z" fill="#FDDEB2"/>
<path fill-rule="evenodd" clip-rule="evenodd" d="M20.3562 11.3449C20.4489 10.8005 20.9654 10.4343 21.5099 10.5271C23.5002 10.8661 25.3146 11.8088 26.7486 13.2428C28.1826 14.6767 29.1252 16.4911 29.4643 18.4815C29.557 19.0259 29.1909 19.5424 28.6464 19.6352C28.102 19.7279 27.5854 19.3618 27.4927 18.8173C27.2239 17.2394 26.4781 15.8007 25.3344 14.657C24.1906 13.5132 22.752 12.7674 21.174 12.4987C20.6296 12.4059 20.2634 11.8894 20.3562 11.3449Z" fill="#FDDEB2"/>
<path fill-rule="evenodd" clip-rule="evenodd" d="M20.317 8.00822C20.4093 7.4637 20.9255 7.09712 21.47 7.18943C24.3004 7.66925 26.8797 9.01211 28.926 11.0524L28.927 11.0534C30.9747 13.1011 32.3114 15.6812 32.791 18.5104C32.8833 19.0549 32.5167 19.5712 31.9722 19.6635C31.4277 19.7558 30.9115 19.3892 30.8192 18.8447C30.4096 16.4286 29.27 14.225 27.5132 12.468C25.755 10.7152 23.5506 9.57067 21.1358 9.16129C20.5912 9.06898 20.2247 8.55273 20.317 8.00822Z" fill="#FDDEB2"/>
</g>
<defs>
<clipPath id="clip0_370_12876">
<rect width="26.6667" height="26.6667" fill="white" transform="translate(6.66602 6.66666)"/>
</clipPath>
</defs>
</svg>
