<svg width="46" height="46" viewBox="0 0 46 46" fill="none" xmlns="http://www.w3.org/2000/svg">
<g clip-path="url(#clip0_1318_27023)">
<path d="M23.2327 17.0173C19.7396 17.0456 16.8992 19.9121 16.9383 23.3678C16.9785 26.8621 19.8178 29.6582 23.3075 29.639C26.8776 29.6197 29.6189 26.7657 29.5815 23.1083C29.5475 19.7744 26.6448 16.9895 23.2327 17.0173Z" fill="#482E17"/>
<path d="M15.2077 17.2423C15.7505 17.716 16.5868 17.6508 17.103 17.1664C17.6339 16.6683 17.7642 15.7946 17.2996 15.2444C16.806 14.6608 16.2468 14.1265 15.6723 13.6206C15.4609 13.4347 15.1238 13.3911 14.8439 13.2823C14.2308 13.3684 13.7753 13.6285 13.5226 14.1554C13.2665 14.6909 13.275 15.2558 13.6778 15.713C14.1538 16.2536 14.6649 16.7692 15.2077 17.2423Z" fill="#482E17"/>
<path d="M23.153 31.6879C22.3502 31.71 21.7365 32.3457 21.7133 33.1871C21.7054 33.4942 21.7122 33.8024 21.7127 34.1095C21.7133 34.4019 21.7054 34.6943 21.715 34.9861C21.7422 35.7986 22.3502 36.419 23.1411 36.4507C23.9095 36.4819 24.6234 35.832 24.6625 35.0212C24.6925 34.3923 24.6914 33.7594 24.6636 33.1304C24.6285 32.3174 23.9264 31.6669 23.153 31.6879Z" fill="#482E17"/>
<path d="M14.6456 23.2159C14.683 22.4544 14.0609 21.7292 13.2824 21.6895C12.6075 21.6544 11.9282 21.6527 11.2539 21.6906C10.476 21.7337 9.85383 22.4658 9.89406 23.2233C9.93542 24.0114 10.5734 24.6188 11.3763 24.6313C11.6834 24.6364 11.9911 24.6324 12.2987 24.6324C12.5911 24.6324 12.8829 24.6364 13.1753 24.6313C13.9798 24.6183 14.6065 24.0126 14.6456 23.2159Z" fill="#482E17"/>
<path d="M31.1701 29.0882C30.604 28.597 29.7235 28.6842 29.2034 29.2174C28.6844 29.7489 28.613 30.5778 29.107 31.1444C29.5802 31.6867 30.098 32.1961 30.642 32.6675C30.8675 32.863 31.212 32.9202 31.5027 33.0403C32.1242 32.9644 32.5639 32.6981 32.8336 32.1762C33.1226 31.6159 33.075 31.0515 32.6687 30.5852C32.2058 30.0537 31.7027 29.55 31.1701 29.0882Z" fill="#482E17"/>
<path d="M23.1503 14.6342C23.9141 14.6535 24.6127 14.0381 24.6592 13.2449C24.6971 12.5865 24.6983 11.9213 24.658 11.2629C24.6087 10.4634 23.9197 9.86567 23.1441 9.88777C22.3446 9.90987 21.7417 10.5178 21.7145 11.3383C21.7043 11.6454 21.7128 11.953 21.7123 12.2607C21.7123 12.5525 21.7055 12.8449 21.7134 13.1367C21.7361 13.9764 22.3514 14.6144 23.1503 14.6342Z" fill="#482E17"/>
<path d="M35.0894 21.689C34.4299 21.6555 33.7669 21.6578 33.1074 21.6873C32.2977 21.723 31.6841 22.4278 31.717 23.2307C31.7487 24.0098 32.3924 24.6206 33.1975 24.6319C33.5046 24.6364 33.8123 24.633 34.1194 24.633C34.4117 24.6325 34.7035 24.637 34.9959 24.6319C35.8027 24.6172 36.4277 24.0024 36.4464 23.2086C36.4657 22.4125 35.8787 21.7292 35.0894 21.689Z" fill="#482E17"/>
<path d="M31.3129 17.1186C31.7577 16.6943 32.1997 16.2648 32.6133 15.8104C33.0462 15.335 33.1318 14.7706 32.8547 14.1865C32.5952 13.6397 32.1374 13.3677 31.318 13.3332C31.1492 13.4204 30.7786 13.5422 30.5004 13.7745C30.0421 14.157 29.6324 14.6012 29.2216 15.0375C28.6216 15.6744 28.6369 16.5583 29.238 17.1419C29.8165 17.7028 30.7038 17.7 31.3129 17.1186Z" fill="#482E17"/>
<path d="M16.7101 28.9075C16.1491 28.6633 15.5837 28.7154 15.1179 29.1495C14.6448 29.5908 14.1836 30.0475 13.7462 30.5235C13.2022 31.1156 13.243 32.0108 13.8079 32.5666C14.3479 33.0981 15.2477 33.1293 15.8205 32.6029C16.2965 32.1655 16.7673 31.715 17.186 31.2244C17.4013 30.9711 17.4977 30.6164 17.6478 30.3076C17.5725 29.6282 17.2818 29.1563 16.7101 28.9075Z" fill="#482E17"/>
<path d="M23.1694 43.5799C11.9149 43.5799 2.75914 34.4242 2.75914 23.1703C2.75914 11.9158 11.9149 2.76003 23.1694 2.76003C34.4233 2.76003 43.5791 11.9158 43.5791 23.1703C43.5791 34.4242 34.4233 43.5799 23.1694 43.5799ZM23.1694 0.548004C10.6956 0.548004 0.547119 10.6965 0.547119 23.1703C0.547119 35.6441 10.6956 45.792 23.1694 45.792C35.6432 45.792 45.7911 35.6441 45.7911 23.1703C45.7911 10.6965 35.6432 0.548004 23.1694 0.548004Z" fill="#482E17"/>
</g>
<defs>
<clipPath id="clip0_1318_27023">
<rect width="45.283" height="45.283" fill="white" transform="translate(0.547119 0.54718)"/>
</clipPath>
</defs>
</svg>
