<svg width="171" height="30" viewBox="0 0 171 30" fill="none" xmlns="http://www.w3.org/2000/svg">
<rect x="1.33398" y="0.599976" width="168" height="28.2" rx="14.1" fill="#FDDEB2"/>
<path d="M155.675 27.5222H14.8861C7.91945 27.5222 2.25278 21.8555 2.25278 14.8861C2.25278 7.91944 7.91945 2.25278 14.8861 2.25278H155.675C162.642 2.25278 168.311 7.91944 168.311 14.8861C168.311 21.8555 162.642 27.5222 155.675 27.5222ZM155.675 0H14.8861C6.67778 0 0 6.67777 0 14.8861C0 23.0972 6.67778 29.775 14.8861 29.775H155.675C163.883 29.775 170.564 23.0972 170.564 14.8861C170.564 6.67777 163.883 0 155.675 0Z" fill="#472E17"/>
<path d="M28.4536 10.3945C27.1814 11.6251 26.248 13.4917 26.248 15.7195C26.248 17.9862 27.1814 19.8528 28.4536 21.0834C29.6425 22.2501 31.4008 23.1417 34.0092 23.1417C34.8592 23.1417 35.8758 23.0139 37.1286 22.3778V18.6251C35.8758 19.8528 34.7314 20.0862 33.8842 20.0862C32.1425 20.0862 31.1258 19.1973 30.8286 18.9001C30.1925 18.2834 29.598 17.2445 29.598 15.7806C29.598 14.4251 30.1508 13.2806 30.9342 12.5167C31.6786 11.7945 32.6314 11.414 33.8203 11.414C35.3258 11.414 36.4064 12.1556 37.1286 12.9195V9.14451C35.7508 8.55007 34.6675 8.3584 33.7342 8.3584C31.5286 8.3584 29.7036 9.18618 28.4536 10.3945Z" fill="#472E17"/>
<path d="M50.1038 18.9193C49.426 19.5971 48.4066 20.1305 46.9649 20.1305C45.8621 20.1305 44.8454 19.8332 43.9343 18.961C43.0621 18.1138 42.6371 17.0749 42.6371 15.7805C42.6371 14.211 43.276 13.1721 43.8899 12.5777C44.6538 11.8138 45.7566 11.3693 46.9871 11.3693C48.2788 11.3693 49.4038 11.8999 50.1038 12.5777C50.7399 13.2138 51.3343 14.2971 51.3343 15.761C51.3343 17.3916 50.6566 18.3888 50.1038 18.9193ZM47.0066 8.35824C44.1871 8.35824 42.4288 9.48324 41.4732 10.436C40.201 11.7082 39.2871 13.7666 39.2871 15.8027C39.2871 17.8805 40.1371 19.7888 41.4927 21.061C42.5538 22.0805 44.3566 23.1388 47.0066 23.1388C49.3843 23.1388 51.1649 22.3332 52.4788 21.061C54.0065 19.5777 54.6843 17.6471 54.6843 15.761C54.6843 13.5749 53.8149 11.7082 52.4788 10.4166C51.0593 9.03601 49.2149 8.35824 47.0066 8.35824Z" fill="#472E17"/>
<path d="M58.7276 16.5861C58.7276 17.7083 58.686 18.9611 58.0915 19.5555C57.8165 19.8305 57.3499 20.0222 56.7971 20.0222C56.5026 20.0222 56.2249 19.9805 55.9915 19.8944V22.8194C56.3943 22.9277 56.8193 22.9888 57.3054 22.9888C58.9193 22.9888 59.8943 22.4611 60.4888 21.8666C61.6138 20.7194 61.911 18.7055 61.911 16.2889V11.4305H65.7471V22.8194H69.0138V8.67497H58.7276V16.5861Z" fill="#472E17"/>
<path d="M81.228 14.064H75.5863V8.6779H72.3197V22.8223H75.5863V16.8223H81.228V22.8223H84.4947V8.6779H81.228V14.064Z" fill="#472E17"/>
<path d="M87.7975 22.8223H95.792V20.0668H91.0642V16.9279H95.5586V14.1696H91.0642V11.4335H95.792V8.6779H87.7975V22.8223Z" fill="#472E17"/>
<path d="M105.99 14.3805C105.312 14.5083 104.759 14.55 104.059 14.55C103.106 14.55 102.426 14.4222 102.004 14.0833C101.367 13.575 101.387 12.7888 101.387 12.3666V8.67773H98.123V13.0222C98.123 14.0833 98.2286 15.2083 99.2036 16.1416C100.348 17.2222 102.32 17.3916 103.592 17.3916C104.462 17.3916 105.248 17.3083 105.99 17.1805V22.8222H109.256V8.67773H105.99V14.3805Z" fill="#472E17"/>
<path d="M121.468 14.064H115.826V8.6779H112.559V22.8223H115.826V16.8223H121.468V22.8223H124.734V8.6779H121.468V14.064Z" fill="#472E17"/>
<path d="M134.441 19.8083C133.997 20.1277 133.316 20.1889 132.744 20.1889H131.302V16.8194H132.766C133.783 16.8194 134.23 16.9889 134.464 17.1583C134.569 17.2222 135.055 17.6027 135.055 18.4944C135.055 19.2361 134.694 19.6389 134.441 19.8083ZM133.252 14.1889H131.302V8.67497H128.036V22.8194H133.147C134.336 22.8194 136.011 22.7361 137.177 21.6333C138.152 20.7 138.322 19.45 138.322 18.5139C138.322 17.5833 138.152 16.3305 137.133 15.3777C136.011 14.3166 134.464 14.1889 133.252 14.1889Z" fill="#472E17"/>
<path d="M142.905 8.67773H139.639V22.8221H142.905V8.67773Z" fill="#472E17"/>
<path d="M149.473 17.9224V8.67514H146.206V22.9918H149.092L155.645 13.5529V22.8224H158.909V8.5057H156.026L149.473 17.9224Z" fill="#472E17"/>
<path d="M149.961 6.87219C150.808 7.38052 151.722 7.46663 152.547 7.46663C153.397 7.46663 154.308 7.38052 155.155 6.87219C155.791 6.46941 156.408 5.81108 156.769 4.96386L154.519 4.0083C154.414 4.34719 154.158 4.77219 153.841 5.02774C153.416 5.34441 152.908 5.38608 152.589 5.38608C152.103 5.38608 151.614 5.2583 151.297 5.02774C151.022 4.81386 150.744 4.39163 150.597 4.0083L148.347 4.96386C148.708 5.81108 149.325 6.46941 149.961 6.87219Z" fill="#472E17"/>
<path d="M14.2447 18.8722C16.1132 18.8722 17.628 17.3649 17.628 15.5055C17.628 13.6461 16.1132 12.1388 14.2447 12.1388C12.3761 12.1388 10.8613 13.6461 10.8613 15.5055C10.8613 17.3649 12.3761 18.8722 14.2447 18.8722Z" fill="#472E17"/>
<path d="M9.96355 12.2722C10.2524 12.525 10.6969 12.4889 10.9719 12.2333C11.2524 11.9667 11.3219 11.5028 11.0747 11.2111C10.8135 10.9 10.5163 10.6167 10.2108 10.3472C10.0969 10.2472 9.9191 10.225 9.7691 10.1667C9.4441 10.2111 9.20244 10.35 9.06633 10.6306C8.93022 10.9167 8.93577 11.2167 9.14966 11.4583C9.40244 11.7472 9.67466 12.0194 9.96355 12.2722Z" fill="#472E17"/>
<path d="M14.1891 19.9555C13.7613 19.9666 13.4363 20.3055 13.4225 20.7527C13.4197 20.9166 13.4225 21.0805 13.4225 21.2444C13.4225 21.3999 13.4197 21.5555 13.4252 21.7083C13.4391 22.1416 13.7613 22.4722 14.1836 22.4888C14.5919 22.5055 14.9725 22.1583 14.9919 21.7277C15.0086 21.3944 15.0058 21.0583 14.9919 20.7222C14.9725 20.2888 14.6002 19.9444 14.1891 19.9555Z" fill="#472E17"/>
<path d="M9.66336 15.4499C9.6828 15.0443 9.35225 14.6582 8.93836 14.6388C8.58003 14.6193 8.21891 14.6193 7.86058 14.6388C7.44669 14.661 7.11614 15.0499 7.13558 15.4527C7.1578 15.8721 7.49669 16.1971 7.92447 16.2027C8.08836 16.2054 8.25225 16.2027 8.41614 16.2027C8.57169 16.2027 8.72725 16.2054 8.88003 16.2027C9.31058 16.1943 9.64391 15.8749 9.66336 15.4499Z" fill="#472E17"/>
<path d="M18.4534 18.5723C18.1534 18.3112 17.684 18.3584 17.4062 18.6418C17.1312 18.9223 17.0923 19.364 17.3562 19.6668C17.609 19.9529 17.884 20.2251 18.1729 20.4751C18.2923 20.5807 18.4756 20.6112 18.6312 20.6751C18.9617 20.6334 19.1951 20.4918 19.3367 20.214C19.4923 19.9168 19.4673 19.6168 19.2506 19.3696C19.0034 19.0862 18.7367 18.8168 18.4534 18.5723Z" fill="#472E17"/>
<path d="M14.1863 10.8861C14.5918 10.8972 14.9641 10.5695 14.9891 10.1472C15.0085 9.79723 15.0085 9.44446 14.9891 9.09446C14.9613 8.66668 14.5946 8.35001 14.1835 8.36112C13.7585 8.37501 13.4363 8.69723 13.4224 9.13335C13.4168 9.29723 13.4224 9.46112 13.4224 9.62501C13.4224 9.77779 13.4168 9.93335 13.4224 10.0889C13.4335 10.5361 13.7613 10.875 14.1863 10.8861Z" fill="#472E17"/>
<path d="M20.5366 14.6362C20.1866 14.6195 19.8338 14.6195 19.481 14.6362C19.0533 14.6556 18.7255 15.0279 18.7421 15.4556C18.7588 15.8695 19.1033 16.1945 19.531 16.2001C19.6949 16.2029 19.856 16.2029 20.0199 16.2029C20.1755 16.2029 20.331 16.2029 20.4866 16.2001C20.9171 16.1945 21.2477 15.8668 21.2588 15.4445C21.2671 15.0223 20.956 14.6584 20.5366 14.6362Z" fill="#472E17"/>
<path d="M18.5282 12.2056C18.7643 11.9806 19.0004 11.7528 19.2199 11.5112C19.4504 11.2556 19.4949 10.9556 19.3477 10.6473C19.2088 10.3556 18.9671 10.2112 18.531 10.1917C18.4421 10.239 18.2449 10.3028 18.0949 10.4278C17.8532 10.6306 17.6338 10.8667 17.4171 11.1001C17.0977 11.4362 17.106 11.9084 17.4254 12.2167C17.7338 12.5167 18.2032 12.514 18.5282 12.2056Z" fill="#472E17"/>
<path d="M10.7645 18.475C10.4672 18.3444 10.1645 18.3722 9.91724 18.6028C9.66724 18.8389 9.42002 19.0806 9.18946 19.3333C8.89779 19.65 8.92002 20.125 9.22002 20.4222C9.5089 20.7028 9.98668 20.7194 10.2922 20.4417C10.545 20.2083 10.795 19.9694 11.0172 19.7083C11.1311 19.5722 11.1839 19.3833 11.2645 19.2194C11.2228 18.8583 11.0672 18.6083 10.7645 18.475Z" fill="#472E17"/>
</svg>
