<svg width="22" height="16" viewBox="0 0 22 16" fill="none" xmlns="http://www.w3.org/2000/svg">
<path d="M0.793135 10.075C0.279467 9.63875 0.0139499 9.05846 0.000521842 8.4742C-0.0127272 7.89011 0.226292 7.30063 0.719371 6.84637C1.21209 6.39242 1.86828 6.15746 2.52876 6.14574C3.1896 6.13371 3.85581 6.34445 4.36983 6.78098L8.80772 10.5574L17.6432 0.631748L17.9597 0.84534L17.6428 0.630798C17.6681 0.601822 17.6967 0.577122 17.7286 0.557014C18.2543 0.15437 18.914 -0.0273982 19.5589 0.00363531V0.00300197L19.5905 0.00553532C20.2391 0.0435356 20.8727 0.298454 21.3406 0.760157C21.8165 1.22962 22.0322 1.8259 21.9962 2.40873H21.9969L21.9941 2.4366C21.9518 2.99995 21.6734 3.55048 21.1689 3.96168L10.5654 15.376L10.5661 15.3766C10.5462 15.399 10.5238 15.4181 10.4995 15.4349C10.003 15.8204 9.37599 16.0095 8.75257 16C8.12396 15.9903 7.4966 15.779 7.00854 15.3641L0.793135 10.075Z" fill="#FDDEB2"/>
</svg>
