<svg width="60" height="83" fill="none" xmlns="http://www.w3.org/2000/svg"><path fill-rule="evenodd" clip-rule="evenodd" d="M30 83s30-32.142 30-50.237C60 14.67 46.569 0 30 0 13.431 0 0 14.669 0 32.763 0 50.858 30 83 30 83zm0-36c8.837 0 16-7.163 16-16s-7.163-16-16-16-16 7.163-16 16 7.163 16 16 16z" fill="#492E16"/><circle cx="30" cy="30" r="21.818" fill="#fff"/><circle cx="30" cy="30" r="24" fill="#fff"/><circle cx="30" cy="30" r="22" fill="#492E16"/><path fill-rule="evenodd" clip-rule="evenodd" d="M25.269 17.68h5.175V16h-6.869v21.373h1.694V17.68zm3.571 1.895h7.09v17.798h-1.693V21.255H28.84v-1.68zm8.88 5.413h7.09v12.385h-1.694V26.668h-5.397v-1.68zm-21.254 5.385h5.175v-1.68h-6.869v8.68h1.694v-7zm10.775 3.202h5.175v5.744H50V41H30.723v-5.744h-1.788V41H9v-1.68h18.24v-5.745z" fill="#fff"/><path d="M19.995 32.175h1.694v1.68h-1.694v-1.68zm17.879 0h1.694v1.68h-1.694v-1.68zm-7.151-3.733h1.693v1.68h-1.693v-1.68zm-3.576 0h1.694v1.68h-1.694v-1.68zm10.727 0h1.694v1.68h-1.694v-1.68zm-7.151-3.734h1.693v1.68h-1.693v-1.68zm-3.576 0h1.694v1.68h-1.694v-1.68zm-7.152 11.013h1.694v1.68h-1.694v-1.68zm17.879 0h1.694v1.68h-1.694v-1.68z" fill="#fff"/></svg>