<svg width="280" height="369" fill="none" xmlns="http://www.w3.org/2000/svg"><path opacity=".3" fill-rule="evenodd" clip-rule="evenodd" d="M139.203 16.147a5.233 5.233 0 014.326-5.154l21.84-3.844 22.712-2.826 22.712-2.198L240.354.014a5.233 5.233 0 015.606 5.22v94.228a5.233 5.233 0 01-5.233 5.234h-96.291a5.233 5.233 0 01-5.233-5.234V16.147zm-27.212 6.896a5.233 5.233 0 014.067-5.102l11.513-2.631c3.276-.75 6.399 1.74 6.399 5.101v79.05a5.233 5.233 0 01-5.233 5.234h-11.513l-.097-.001H79.451l-.116.001H67.822a5.233 5.233 0 01-5.233-5.233V35.603a5.233 5.233 0 014.067-5.102l11.513-2.631c3.276-.75 6.4 1.74 6.4 5.101v49.744h27.422V23.043zM0 115.916a5.233 5.233 0 015.233-5.233h95.744a5.233 5.233 0 015.233 5.233v113.632a5.233 5.233 0 01-5.233 5.233H5.233A5.233 5.233 0 010 229.548V115.916zm0 130.806a5.233 5.233 0 015.233-5.233h95.744a5.233 5.233 0 015.233 5.233v116.986a5.233 5.233 0 01-5.233 5.233H5.233A5.233 5.233 0 010 363.708V246.722zm144.983-5.233a5.233 5.233 0 00-5.233 5.233v116.986a5.233 5.233 0 005.233 5.233h95.744a5.233 5.233 0 005.233-5.233V246.722a5.233 5.233 0 00-5.233-5.233h-95.744zm-5.233-125.573a5.233 5.233 0 015.233-5.233h95.744a5.233 5.233 0 015.233 5.233v113.632a5.233 5.233 0 01-5.233 5.233h-95.744a5.233 5.233 0 01-5.233-5.233V115.916zm-22.717 125.573a5.233 5.233 0 00-5.233 5.233v116.986a5.233 5.233 0 005.233 5.233h11.894a5.233 5.233 0 005.233-5.233V246.722a5.233 5.233 0 00-5.233-5.233h-11.894zM111.8 115.916a5.233 5.233 0 015.233-5.233h11.894a5.233 5.233 0 015.233 5.233v113.632a5.233 5.233 0 01-5.233 5.233h-11.894a5.233 5.233 0 01-5.233-5.233V115.916zM22.189 70.052a5.233 5.233 0 00-5.233 5.233v24.491a5.233 5.233 0 005.233 5.233H51.39a5.233 5.233 0 005.233-5.233V75.285a5.233 5.233 0 00-5.233-5.233H22.189z" fill="#492E16"/><path d="M189.352 67.01V51.402h-2.761v-3.779h7.238v19.389h-4.477zm8.808 111.376v3.779h-14.825l5.814-6.337c1.017-1.133 2.558-3.023 3.168-3.953.436-.698 1.163-1.948 1.163-3.285 0-.726-.291-1.482-.756-1.918-.378-.349-1.017-.552-1.773-.552-.843 0-1.395.29-1.773.697-.524.581-.814 1.628-.814 2.384h-4.477c.146-1.686.814-3.605 2.006-4.855.93-.988 2.587-2.005 5.348-2.005 2.82 0 4.332 1.162 5.029 1.831 1.047 1.046 1.802 2.645 1.802 4.651 0 1.715-.523 2.965-1.453 4.273-.843 1.163-1.86 2.151-3.11 3.343l-2.035 1.947h6.686zm-1.192 114.079v3.779h-6.54l-.524 2.587a9.823 9.823 0 011.599-.146c2.18 0 3.866.785 4.942 1.89.872.872 1.773 2.383 1.773 4.68 0 2.499-1.076 4.098-1.977 4.999-1.773 1.744-3.895 2.035-5.872 2.035-1.831 0-4.011-.232-6.453-2.122l1.018-4.157c.523.582 1.25 1.221 1.86 1.599.814.523 1.773.843 2.936.843 1.017 0 2.064-.232 2.761-.785.611-.465 1.134-1.308 1.134-2.441 0-1.163-.523-1.861-.988-2.268-.233-.203-1.192-1.017-3.227-1.017a8.303 8.303 0 00-3.953 1.017l1.977-10.493h9.534zm-138.632 0v12.179h2.325v3.546h-2.325v3.663h-4.302v-3.663h-9.476v-2.558l8.546-13.167h5.232zm-9.07 12.179h4.768v-7.528l-4.767 7.528zm.35-136.054h-4.302c.174-1.628.9-3.343 1.918-4.389 1.424-1.482 3.314-1.831 4.913-1.831 2.383 0 4.098.726 5.086 1.715.814.785 1.483 2.064 1.483 3.953 0 .959-.175 1.802-.785 2.645a3.607 3.607 0 01-1.453 1.221c.814.291 1.686.843 2.209 1.57.581.785.9 2.005.9 3.052a6.02 6.02 0 01-1.947 4.418c-1.657 1.512-3.546 1.686-5.116 1.686-1.889 0-3.953-.291-5.668-2.006-1.104-1.133-1.947-2.848-2.15-4.796h4.476c.058.756.407 1.657.93 2.18.465.465 1.22.785 2.15.785.757 0 1.483-.232 1.948-.668.465-.436.785-1.192.785-1.977 0-.814-.378-1.483-.843-1.86-.697-.553-1.715-.611-2.383-.611h-.35v-3.081h.262c.262 0 1.308-.029 1.948-.552.407-.349.727-.96.727-1.744 0-.669-.262-1.221-.64-1.57-.349-.32-.93-.581-1.657-.581-.755 0-1.366.261-1.744.639-.407.436-.668 1.192-.697 1.802z" fill="#492E16"/><path opacity=".1" fill="#492E16" d="M252.668 0h22.36v368.94h-22.36z"/><path fill-rule="evenodd" clip-rule="evenodd" d="M199.901 17.615h25.65v21.984h-14.779v-6.107h3.297V31.66h-14.168V17.615zm-14.535 0h-25.649v21.984h14.779v-6.107h-3.298v-1.83h14.168V17.614zm-10.892 22.712h-14.757v25.748h14.757V40.327zm36.319 0h14.757v25.748h-14.757V40.327zm-36.319 26.48h-14.757v26.27h14.757v-26.27zm36.319 0h14.757v26.27h-14.757v-26.27z" fill="#492E16"/><path fill-rule="evenodd" clip-rule="evenodd" d="M199.901 123.011h25.649v12.093h.001v9.893h-14.779v-6.107h3.297v-1.833h-14.168v-14.046zm-14.535 0h-25.649v21.986h14.779v-6.107h-3.298v-1.833h14.168v-14.046zm-10.892 22.712h-14.757v25.747h14.757v-25.747zm36.319 0h14.757v25.747h-14.757v-25.747zm-36.319 26.48h-14.757v26.271h14.757v-26.271zm-14.757 27.004h14.757v22.712h-14.757v-22.712zm65.833-27.004h-14.757v26.271h14.757v-26.271zm-14.757 27.004h14.757v22.712h-14.757v-22.712z" fill="#FFB800"/><path fill-rule="evenodd" clip-rule="evenodd" d="M199.901 251.853h25.649v12.093h.001v9.892h-14.779v-6.107h3.297v-1.832h-14.168v-14.046zm-14.535 0h-25.649v21.985h14.779v-6.107h-3.298v-1.832h14.168v-14.046zm-10.892 22.713h-14.757v25.747h14.757v-25.747zm36.319 0h14.757v25.747h-14.757v-25.747zm-36.319 26.479h-14.757v26.271h14.757v-26.271zm-14.757 27.002h14.757v22.712h-14.757v-22.712zm65.833-27.002h-14.757v26.271h14.757v-26.271zm-14.757 27.002h14.757v22.712h-14.757v-22.712zM60.698 123.011h25.65v21.986h-14.78v-6.107h3.298v-1.833H60.698v-14.046zm-14.535 0h-25.65v21.986h14.78v-6.107h-3.298v-1.833h14.168v-14.046zm-10.892 22.712H20.514v25.747H35.27v-25.747zm36.319 0h14.757v25.747H71.59v-25.747zm-36.319 26.48H20.514v26.271H35.27v-26.271zm-14.757 27.004H35.27v22.712H20.514v-22.712zm65.833-27.004H71.59v26.271h14.757v-26.271zM71.59 199.207h14.757v22.712H71.59v-22.712zm-10.892 52.646h25.65v21.985h-14.78v-6.107h3.298v-1.832H60.698v-14.046zm-14.535 0h-25.65v21.985h14.78v-6.107h-3.298v-1.832h14.168v-14.046zm-10.892 22.713H20.514v25.747H35.27v-25.747zm36.319 0h14.757v25.747H71.59v-25.747zm-36.32 26.479H20.514v26.271H35.27v-26.271zm-14.757 27.002H35.27v22.712H20.514v-22.712zm65.833-27.002H71.59v26.271h14.757v-26.271zM71.59 328.047h14.757v22.712H71.59v-22.712z" fill="#492E16"/><path opacity=".2" fill-rule="evenodd" clip-rule="evenodd" d="M53.902 73.086H19.677V93.81h8.059v2.302h18.002V93.81h8.164V73.086z" fill="#D9D9D9"/><path d="M267.904 246.224l-8.949-1.664v-1.261l5.689-2.374-5.689-2.482v-1.261l8.949-1.503v1.771l-5.514.805 5.514 2.401v.591l-5.514 2.294 5.514.912v1.771zm-8.949-12.13v-1.744h5.957l-5.957-4.91v-1.234h8.949v1.744h-5.984l5.984 4.91v1.234h-8.949zm0-10.789v-6.091h8.949v1.744h-7.446v2.603h3.971c.926 0 2.147-.027 2.965.966.295.348.59.912.59 1.784 0 .255-.027.496-.08.738h-1.503c.04-.134.081-.309.081-.497 0-.402-.175-.657-.322-.805-.456-.456-1.235-.442-2.08-.442h-5.125zm-.201-12.476c0-2.818 1.959-4.776 4.682-4.776 2.724 0 4.669 1.958 4.669 4.776 0 2.817-1.945 4.776-4.669 4.776-2.723 0-4.682-1.959-4.682-4.776zm7.768 0c0-1.744-1.275-2.979-3.086-2.979s-3.099 1.235-3.099 2.979 1.288 2.978 3.099 2.978c1.811 0 3.086-1.234 3.086-2.978zm-7.567-6.384v-2.213c0-.497 0-1.463.564-2.187.402-.523 1.1-.832 1.851-.832 1.154 0 1.624.765 1.758 1.006.094-.59.349-.939.563-1.167.51-.536 1.208-.644 1.677-.644.523 0 1.261.148 1.811.765.591.671.725 1.489.725 2.267v3.005h-8.949zm1.422-1.744h2.295v-.496c0-.268-.027-1.355-1.168-1.355-.818 0-1.127.63-1.127 1.342v.509zm3.636 0h2.469v-.751c0-.322-.014-.805-.242-1.194-.255-.429-.684-.55-1.033-.55-.282 0-.765.094-1.019.657-.175.376-.175.819-.175 1.194v.644zm1.53-12.4h2.039c.282.536.523 1.247.523 2.213 0 1.57-.537 2.523-1.248 3.274-.992 1.033-2.106 1.435-3.421 1.435-1.623 0-2.79-.67-3.501-1.435-.846-.899-1.181-2.012-1.181-3.287 0-.631.107-1.382.55-2.2h2.039a2.878 2.878 0 00-1.006 2.16c0 1.797 1.476 2.965 3.126 2.965 1.986 0 3.059-1.53 3.059-3.032a2.71 2.71 0 00-.979-2.093zm-6.588-3.348h3.784l-3.784-3.287v-2.2l4.132 3.783 4.817-3.984v2.307l-4.012 3.18.202.201h3.81v1.744h-8.949v-1.744zm-.201-10.843c0-2.818 1.959-4.776 4.682-4.776 2.724 0 4.669 1.958 4.669 4.776 0 2.817-1.945 4.776-4.669 4.776-2.723 0-4.682-1.959-4.682-4.776zm7.768 0c0-1.744-1.275-2.979-3.086-2.979s-3.099 1.235-3.099 2.979 1.288 2.978 3.099 2.978c1.811 0 3.086-1.234 3.086-2.978zm-7.567-11.348h1.503v3.22h1.999v-3.085h1.503v3.085h2.441v-3.22h1.503v4.964h-8.949v-4.964zm8.949-4.823h-8.949v-1.744h7.446v-2.871h-7.446v-1.744h7.446v-2.871h-7.446v-1.744h8.949v10.974zm-9.15-17.356c0-2.818 1.959-4.776 4.682-4.776 2.724 0 4.669 1.958 4.669 4.776 0 2.817-1.945 4.776-4.669 4.776-2.723 0-4.682-1.959-4.682-4.776zm7.768 0c0-1.744-1.275-2.979-3.086-2.979s-3.099 1.235-3.099 2.979 1.288 2.978 3.099 2.978c1.811 0 3.086-1.234 3.086-2.978zm-.979-12.877h2.039c.282.537.523 1.248.523 2.214 0 1.569-.537 2.522-1.248 3.273-.992 1.033-2.106 1.436-3.421 1.436-1.623 0-2.79-.671-3.501-1.436-.846-.899-1.181-2.012-1.181-3.287 0-.63.107-1.382.55-2.2h2.039a2.878 2.878 0 00-1.006 2.16c0 1.798 1.476 2.965 3.126 2.965 1.986 0 3.059-1.529 3.059-3.032a2.71 2.71 0 00-.979-2.093zm0-8.097h2.039c.282.537.523 1.248.523 2.214 0 1.57-.537 2.522-1.248 3.273-.992 1.033-2.106 1.436-3.421 1.436-1.623 0-2.79-.671-3.501-1.436-.846-.898-1.181-2.012-1.181-3.287 0-.63.107-1.381.55-2.2h2.039a2.879 2.879 0 00-1.006 2.16c0 1.798 1.476 2.965 3.126 2.965 1.986 0 3.059-1.529 3.059-3.032a2.71 2.71 0 00-.979-2.093zm-6.588-6.567h1.503v3.22h1.999v-3.086h1.502v3.086h2.442v-3.22h1.503v4.964h-8.949v-4.964z" fill="#fff"/></svg>