<svg width="46" height="46" fill="none" xmlns="http://www.w3.org/2000/svg"><g clip-path="url(#clip0_1318_27023)" fill="#482E17"><path d="M23.233 17.017c-3.493.029-6.334 2.895-6.295 6.35a6.332 6.332 0 006.37 6.272c3.57-.02 6.31-2.873 6.273-6.53-.034-3.335-2.936-6.12-6.348-6.092zm-8.025.225c.543.474 1.379.409 1.895-.076.53-.498.661-1.371.197-1.922a15.73 15.73 0 00-1.628-1.623c-.211-.186-.548-.23-.828-.339-.613.086-1.069.347-1.321.873-.256.536-.248 1.1.155 1.558.476.54.987 1.056 1.53 1.53zm7.945 14.446c-.803.022-1.416.658-1.44 1.5-.008.306 0 .614 0 .921 0 .293-.008.585.002.877.027.813.635 1.433 1.426 1.465.769.03 1.482-.619 1.522-1.43a20.54 20.54 0 000-1.89c-.035-.814-.737-1.464-1.51-1.443zm-8.507-8.472c.037-.762-.585-1.487-1.364-1.527a18.803 18.803 0 00-2.028.002c-.778.043-1.4.775-1.36 1.532.041.788.68 1.396 1.482 1.408.307.005.615.001.923.001.292 0 .584.004.876 0a1.473 1.473 0 001.47-1.416zm16.524 5.872c-.566-.491-1.447-.404-1.967.13-.519.53-.59 1.36-.096 1.926.473.543.991 1.052 1.535 1.523.226.196.57.253.86.373.622-.076 1.062-.342 1.332-.864.289-.56.241-1.125-.165-1.59a15.191 15.191 0 00-1.499-1.498zm-8.02-14.454a1.497 1.497 0 001.51-1.39 16.76 16.76 0 00-.002-1.981 1.477 1.477 0 00-1.514-1.375c-.8.022-1.402.63-1.43 1.45-.01.307-.001.615-.002.923 0 .292-.006.584.001.876.023.84.638 1.477 1.437 1.497zm11.94 7.055a20.797 20.797 0 00-1.983-.002c-.81.036-1.423.74-1.39 1.544.032.779.675 1.39 1.48 1.4.308.005.615.002.922.002.293 0 .584.004.877-.001.807-.015 1.432-.63 1.45-1.423.02-.796-.567-1.48-1.357-1.52zm-3.777-4.57c.445-.425.887-.854 1.3-1.309.433-.475.519-1.04.242-1.623-.26-.547-.718-.82-1.537-.854-.169.087-.54.21-.818.441-.458.383-.868.827-1.278 1.264-.6.636-.585 1.52.016 2.104.579.56 1.466.558 2.075-.023zM16.71 28.907c-.56-.244-1.126-.192-1.592.242a25.25 25.25 0 00-1.372 1.374 1.463 1.463 0 00.062 2.044c.54.531 1.44.562 2.012.036.477-.438.947-.888 1.366-1.379.215-.253.312-.608.462-.916-.075-.68-.366-1.152-.938-1.4z"/><path d="M23.17 43.58c-11.255 0-20.41-9.156-20.41-20.41S11.914 2.76 23.17 2.76c11.253 0 20.41 9.156 20.41 20.41s-9.157 20.41-20.41 20.41zm0-43.032C10.695.548.546 10.697.546 23.17c0 12.474 10.149 22.622 22.622 22.622 12.474 0 22.622-10.148 22.622-22.622S35.643.548 23.17.548z"/></g><defs><clipPath id="clip0_1318_27023"><path fill="#fff" transform="translate(.547 .547)" d="M0 0h45.283v45.283H0z"/></clipPath></defs></svg>